<svg width="182" height="30" viewBox="0 0 182 30" fill="none" xmlns="http://www.w3.org/2000/svg">
<path d="M21.1069 13.5483C22.7711 4.55186 26.4662 4.5272 27.264 4.4861C27.4494 4.47788 27.6791 4.49843 27.9289 4.53542C27.3648 2.84627 26.4944 1.51469 25.3419 0.737931C22.5776 -1.12382 18.9591 0.692723 16.1545 4.87653C16.6058 4.75324 17.0451 4.70392 17.444 4.72858C19.3056 4.84777 20.3332 5.75604 20.7523 6.35196L19.0195 9.78777C19.0195 9.78777 17.8751 8.0822 16.4084 8.43564C15.1149 8.74799 14.8651 9.62338 14.853 10.3549C14.8449 10.9632 15.0343 11.4112 16.2472 11.8715C17.4641 12.3318 19.2976 13.0099 19.4346 15.7388C19.5756 18.4718 17.5205 23.8023 12.7012 23.8023C12.7012 23.8023 12.677 23.8064 12.6367 23.8064C13.1928 25.7051 14.1075 27.197 15.3607 28.0436C18.0645 29.8643 21.5864 28.1669 24.3587 24.1804C23.8228 23.9913 23.2546 23.6584 22.6824 23.1241C20.0028 20.6254 21.1069 13.5483 21.1069 13.5483Z" fill="#00A73C"/>
<path d="M12.5845 23.8106C12.5805 23.8106 12.5764 23.8106 12.5684 23.8106C12.5563 23.8106 12.5482 23.8106 12.5362 23.8106C12.5281 23.8106 12.52 23.8106 12.512 23.8106C12.4999 23.8106 12.4918 23.8106 12.4797 23.8106C12.4676 23.8106 12.4556 23.8106 12.4394 23.8106C12.4314 23.8106 12.4193 23.8106 12.4112 23.8106C12.3951 23.8106 12.375 23.8106 12.3548 23.8065C12.3468 23.8065 12.3427 23.8065 12.3347 23.8065C12.2783 23.8024 12.2178 23.7982 12.1533 23.79C12.1493 23.79 12.1453 23.79 12.1413 23.79C12.113 23.7859 12.0808 23.7818 12.0486 23.7777C12.0405 23.7777 12.0325 23.7736 12.0244 23.7736C11.9962 23.7695 11.968 23.7654 11.9357 23.7571C11.9277 23.7571 11.9156 23.753 11.9075 23.753C11.8793 23.7489 11.8471 23.7407 11.8189 23.7325C11.8068 23.7284 11.7987 23.7284 11.7867 23.7243C11.7544 23.7161 11.7222 23.7078 11.6899 23.6996C11.6819 23.6955 11.6698 23.6955 11.6617 23.6914C11.6255 23.6832 11.5892 23.6708 11.5529 23.6626C11.5449 23.6585 11.5368 23.6585 11.5288 23.6544C11.3918 23.6133 11.2467 23.5599 11.0936 23.4982C11.0855 23.4941 11.0774 23.49 11.0734 23.49C11.0291 23.4736 10.9888 23.453 10.9445 23.4325C10.9324 23.4284 10.9203 23.4201 10.9042 23.4119C10.8639 23.3955 10.8276 23.3749 10.7873 23.3544C10.7712 23.3462 10.7551 23.3379 10.739 23.3297C10.7027 23.3092 10.6624 23.2886 10.6261 23.2681C10.61 23.2599 10.5939 23.2475 10.5778 23.2393C10.5375 23.2188 10.5012 23.1941 10.4609 23.1694C10.4448 23.1612 10.4287 23.1489 10.4126 23.1407C10.3723 23.116 10.328 23.0872 10.2877 23.0585C10.2756 23.0503 10.2594 23.042 10.2474 23.0297C10.1909 22.9927 10.1386 22.9557 10.0821 22.9146C10.0821 22.9146 10.0781 22.9146 10.0781 22.9105C10.0177 22.8694 9.96126 22.8242 9.90082 22.779C9.89276 22.7708 9.88067 22.7626 9.87261 22.7544C9.82426 22.7174 9.7759 22.6763 9.72755 22.6393C9.7074 22.6228 9.69128 22.6064 9.67113 22.59C9.63084 22.5571 9.59054 22.5201 9.55428 22.4872C9.53413 22.4667 9.50995 22.4461 9.4898 22.4256C9.45354 22.3927 9.41727 22.3557 9.37698 22.3187C9.3528 22.2941 9.32862 22.2735 9.30847 22.2488C9.27221 22.2119 9.23594 22.1749 9.19967 22.1379C9.1755 22.1132 9.15132 22.0886 9.12714 22.0639C9.09088 22.0228 9.05461 21.9817 9.01834 21.9406C8.99417 21.9159 8.97402 21.8913 8.94984 21.8625C8.90954 21.8173 8.86925 21.768 8.82895 21.7187C8.80881 21.694 8.78866 21.6735 8.76851 21.6488C8.70807 21.5748 8.64762 21.5009 8.59121 21.4228L10.9606 17.6869C10.9606 17.6869 11.9478 20.2597 13.8498 20.1241C15.2843 20.0172 15.7276 18.7062 15.8605 17.9459C15.9371 17.5102 15.8686 17.0417 15.655 16.6965C15.4536 16.38 15.107 16.0389 14.5106 15.8909C12.8021 15.4717 10.6221 14.7936 11.3998 10.655C11.424 10.5358 11.4482 10.4208 11.4723 10.3057C11.4804 10.2687 11.4885 10.2358 11.4965 10.1988C11.5167 10.1208 11.5368 10.0386 11.557 9.96047C11.5691 9.92348 11.5771 9.88239 11.5892 9.8454C11.6094 9.76731 11.6335 9.68923 11.6577 9.61525C11.6658 9.58237 11.6779 9.54949 11.6859 9.51661C11.7182 9.40976 11.7544 9.30701 11.7947 9.20427C11.7987 9.19194 11.8028 9.18372 11.8068 9.17139C11.839 9.08097 11.8753 8.99055 11.9116 8.90014C11.9237 8.86726 11.9398 8.83438 11.9519 8.8015C11.9801 8.73575 12.0083 8.66999 12.0405 8.60423C12.0566 8.57135 12.0728 8.53436 12.0889 8.50149C12.1211 8.43573 12.1533 8.37408 12.1856 8.30832C12.2017 8.27956 12.2138 8.25079 12.2299 8.22202C12.2783 8.13571 12.3226 8.0453 12.3709 7.9631C12.383 7.94255 12.3951 7.922 12.4072 7.90145C12.4475 7.83569 12.4838 7.76994 12.5241 7.70829C12.5442 7.67541 12.5644 7.64253 12.5845 7.61376C12.6167 7.56445 12.649 7.51513 12.6852 7.46581C12.7094 7.43293 12.7296 7.40005 12.7537 7.36718C12.79 7.31786 12.8223 7.27265 12.8585 7.22333C12.8787 7.19456 12.9028 7.16579 12.923 7.13702C12.9754 7.06716 13.0318 6.99729 13.0882 6.93153C13.1124 6.90276 13.1366 6.874 13.1648 6.84523C13.197 6.80413 13.2333 6.76714 13.2655 6.72604C13.2937 6.69316 13.3259 6.66028 13.3542 6.62741C13.3824 6.59453 13.4146 6.56165 13.4468 6.53288C13.4791 6.5 13.5113 6.46712 13.5435 6.43425C13.5717 6.40548 13.6 6.37671 13.6282 6.35205C13.7571 6.22875 13.8901 6.10957 14.0271 5.9986C14.0472 5.98216 14.0714 5.96162 14.0916 5.94518C14.1319 5.9123 14.1762 5.87942 14.2205 5.84654C14.2407 5.8301 14.2608 5.81366 14.285 5.80133C14.3293 5.76845 14.3736 5.73558 14.422 5.7027C14.4341 5.69448 14.4502 5.68215 14.4623 5.67393C14.6235 5.56296 14.7887 5.46022 14.9539 5.3698C14.9619 5.36569 14.966 5.36158 14.974 5.35747C15.0264 5.3287 15.0828 5.29993 15.1352 5.27117C15.1433 5.26706 15.1513 5.26295 15.1594 5.25884C15.4576 5.10677 15.7517 4.9917 16.0459 4.90128C15.4858 3.03542 14.5791 1.56821 13.3421 0.729806C9.64293 -1.76075 4.41255 2.32853 1.65633 9.87006C-1.09989 17.4116 -0.338303 25.5449 3.36083 28.0355C6.14527 29.9137 9.80008 28.0519 12.6127 23.7982C12.6087 23.8106 12.5966 23.8106 12.5845 23.8106Z" fill="#008CD6"/>
<path d="M36.9387 0.737907C34.251 -1.07452 30.7493 0.598173 27.977 4.54359C28.8957 4.69565 30.032 5.08197 30.032 5.08197L29.4759 9.70552C28.8635 9.19591 28.2389 9.21646 28.2389 9.21646C26.5585 9.08083 24.9105 12.192 25.0515 16.495C25.1925 20.7979 28.2792 19.5239 28.2792 19.5239L27.7392 23.8063C27.7392 23.8063 26.2281 24.8502 24.3423 24.1721C24.9064 25.8941 25.7808 27.2504 26.9534 28.0394C30.6526 30.53 35.883 26.4407 38.6392 18.8992C41.3995 11.3618 40.6379 3.22846 36.9387 0.737907Z" fill="#E6002D"/>
<path fill-rule="evenodd" clip-rule="evenodd" d="M83.4081 16.343C80.543 16.3964 80.5833 14.1237 80.5833 14.1237V10.8769H83.6458V14.0867H91.7452V9.46726C85.5478 8.87133 85.7533 6.39311 85.7533 6.39311C84.5001 9.53712 79.1206 9.47548 79.1206 9.47548V7.12055C84.6492 6.90684 84.1535 1.67505 84.1535 1.67505H87.2966C87.2966 1.67505 87.4537 6.89862 91.7452 7.06301V1.62573C92.8251 1.65861 95.0051 1.62573 95.0051 1.62573V3.98477H97.1932V6.15063H95.0051V16.4005L83.4081 16.343Z" fill="white"/>
<path fill-rule="evenodd" clip-rule="evenodd" d="M61.4992 16.5896C61.4992 16.5896 59.3716 16.5896 58.3562 16.5896C58.3562 15.8499 58.3562 15.1142 58.3562 14.3744C52.4488 13.7497 51.655 8.78511 51.655 8.78511C50.7403 14.506 44.9941 14.2799 44.9941 14.2799V12.1633C44.9941 12.1633 49.7531 12.2455 50.2648 1.67099C51.248 1.67099 52.2312 1.67099 53.2144 1.67099C54.3951 12.7017 58.3562 12.0647 58.3562 12.0647V7.06306H56.0714V4.84786H58.3562V1.76963H61.4992V16.5896Z" fill="white"/>
<path d="M76.6988 4.27249V1.67099C76.6988 1.67099 74.6719 1.67099 73.7209 1.67099C73.7209 3.49986 73.7209 5.32871 73.7209 7.15758C69.7316 7.21512 69.6833 5.13555 69.6833 5.13555C70.7954 5.13555 73.0641 5.13555 73.0641 5.13555V2.85051H69.6833V1.67099H66.5402V2.85051H62.6839V5.13555H66.5402C66.9553 7.22745 62.3535 7.35074 62.3535 7.35074C62.3535 8.09051 62.3535 8.82617 62.3535 9.56594C64.9163 9.61937 67.5275 9.01933 68.1964 7.17402C69.7397 9.57005 73.7209 9.56594 73.7209 9.56594V10.7948C72.637 10.4537 71.3314 10.2564 69.9291 10.2564C66.1977 10.2564 63.1755 11.6579 63.1755 13.3881C63.1755 15.1184 66.2017 16.5198 69.9291 16.5198C73.6605 16.5198 76.7028 15.1184 76.7028 13.3881C76.7028 13.3347 76.6907 13.2812 76.6867 13.2278L76.7028 13.236V6.58221H78.8264V4.27249H76.6988ZM69.9251 14.3909C67.9788 14.3909 66.3992 13.9429 66.3992 13.3881C66.3992 12.8333 67.9788 12.3853 69.9251 12.3853C71.8713 12.3853 73.4509 12.8333 73.4509 13.3881C73.4509 13.9429 71.8713 14.3909 69.9251 14.3909Z" fill="white"/>
<path fill-rule="evenodd" clip-rule="evenodd" d="M109.5 1.39148V3.97245H107.505C106.832 2.5299 104.974 1.49012 102.782 1.49012C100.022 1.49012 97.7856 3.13404 97.7856 5.1602C97.7856 7.18634 100.022 8.83027 102.782 8.83027C105.075 8.83027 107.001 7.69596 107.59 6.14656H109.516V10.5934H102.065V9.41387H98.9663V14.4032C98.9663 16.1704 101.307 16.1211 101.307 16.1211H112.574V1.39148H109.5ZM102.782 6.60686C101.928 6.60686 101.235 5.96161 101.235 5.16431C101.235 4.367 101.928 3.72175 102.782 3.72175C103.637 3.72175 104.33 4.367 104.33 5.16431C104.33 5.96161 103.637 6.60686 102.782 6.60686ZM109.475 14.1361H102.186V12.7058H109.475V14.1361Z" fill="white"/>
<path fill-rule="evenodd" clip-rule="evenodd" d="M114.198 1.4942H129.579V3.77515H123.579C123.579 3.77515 124.272 6.77123 129.776 6.58217V8.83847C129.776 8.83847 123.591 9.08506 121.697 5.92871C121.697 5.92871 121.5 8.60421 113.936 8.83847V6.58217C113.936 6.58217 119.465 6.66848 120.073 3.77515H114.198V1.4942Z" fill="white"/>
<path fill-rule="evenodd" clip-rule="evenodd" d="M113.674 9.80026V11.9333H120.283V16.3431H123.232V11.9333H130.087V9.80026H113.674Z" fill="white"/>
<path fill-rule="evenodd" clip-rule="evenodd" d="M135.825 1.34219H138.887C138.887 1.34219 139.246 6.71784 143.263 6.77949V1.34219H146.475V16.191H143.263V13.0716H132.367V10.84H143.263V9.07277C143.263 9.07277 138.863 9.68513 137.275 5.863C137.275 5.863 137.013 9.13442 130.719 9.2084V6.9932C130.719 6.9932 135.514 7.01786 135.825 1.34219Z" fill="white"/>
<path fill-rule="evenodd" clip-rule="evenodd" d="M159.575 1.34217V12.7839H154.211V11.403C156.137 10.9057 157.532 9.44674 157.532 7.72473C157.532 6.40959 156.714 5.24651 155.468 4.55195H158.144V2.22989H154.272V1.2312H151.245V2.234H147.373V4.55195H150.049C148.804 5.24651 147.986 6.40959 147.986 7.72473C147.986 9.44674 149.38 10.9057 151.306 11.403V12.7839H147.635V15.0156H159.575V16.3307H162.697V1.34217H159.575ZM152.757 6.20409C153.587 6.20409 154.264 6.88633 154.264 7.72473C154.264 8.56724 153.591 9.24536 152.757 9.24536C151.926 9.24536 151.249 8.56313 151.249 7.72473C151.249 6.88222 151.926 6.20409 152.757 6.20409Z" fill="white"/>
<path fill-rule="evenodd" clip-rule="evenodd" d="M181.846 5.17666H179.751V1.46552H176.503V11.9086C172.155 10.6633 171.446 1.46552 171.446 1.46552H168.472C168.311 12.1798 163.503 11.8675 163.503 11.8675V14.1484C169.576 13.9511 169.987 8.37 169.987 8.37C171.22 13.5279 175.31 14.0909 176.507 14.1443V16.265H179.755V7.4083H181.85V5.17666H181.846Z" fill="white"/>
<path d="M45.8726 28.2698L46.199 26.4368C46.6946 26.7656 47.1338 26.93 47.5126 26.93C47.7342 26.93 47.9196 26.8683 48.0687 26.745C48.2178 26.6217 48.3104 26.4574 48.3467 26.2519C48.3749 26.0957 48.3507 25.9477 48.2701 25.8121C48.1936 25.6765 48.0445 25.508 47.8309 25.3107C47.3071 24.8381 46.9485 24.4024 46.747 23.9956C46.5455 23.5887 46.4931 23.1366 46.5818 22.6393C46.7026 21.9612 47.0129 21.4064 47.5086 20.979C48.0042 20.5515 48.5885 20.3378 49.2574 20.3378C49.753 20.3378 50.2245 20.4447 50.6718 20.6625L50.3575 22.4215C49.886 22.1297 49.4911 21.9859 49.1647 21.9859C48.9471 21.9859 48.7658 22.0393 48.6248 22.1462C48.4797 22.253 48.391 22.401 48.3588 22.59C48.2984 22.9188 48.524 23.2887 49.0358 23.7038C49.342 23.9463 49.6321 24.2915 49.9102 24.7312C50.1882 25.171 50.2769 25.6847 50.1721 26.2642C50.0512 26.9423 49.7168 27.5054 49.1687 27.9492C48.6207 28.3931 47.9881 28.6191 47.2708 28.6191C46.7792 28.6232 46.3158 28.504 45.8726 28.2698Z" fill="white"/>
<path d="M51.9774 20.5556H55.5314L55.2332 22.2283H53.4361L53.1782 23.675H54.7376L54.4475 25.3066H52.888L52.6342 26.7368H54.4435L54.1453 28.4136H50.5791L51.9774 20.5556Z" fill="white"/>
<path d="M57.1392 28.6109C56.2044 28.6109 55.5556 28.2451 55.197 27.5177C54.8343 26.7903 54.7779 25.7381 55.0237 24.3655C55.2493 23.0996 55.6725 22.1092 56.293 21.4023C56.9136 20.6954 57.6631 20.3378 58.5455 20.3378C59.4844 20.3378 60.1372 20.6913 60.5079 21.4023C60.8786 22.1133 60.9431 23.1284 60.7094 24.4477C60.4757 25.7669 60.0445 26.7903 59.428 27.5177C58.8034 28.2492 58.0418 28.6109 57.1392 28.6109ZM58.2353 22.1215C57.6026 22.1215 57.1513 22.8777 56.8813 24.3901C56.708 25.3641 56.6718 26.0135 56.7725 26.3382C56.8733 26.6628 57.0788 26.8272 57.385 26.8272C57.7154 26.8272 57.9935 26.6628 58.2272 26.3382C58.4609 26.0135 58.6624 25.3765 58.8316 24.423C59.1056 22.89 58.9082 22.1256 58.2353 22.1215Z" fill="white"/>
<path d="M68.0512 26.5642L67.7168 28.4301C67.3259 28.5534 66.9794 28.6109 66.6852 28.6109C65.6698 28.6109 64.9122 28.2246 64.4206 27.4478C63.929 26.6711 63.792 25.6518 64.0177 24.3901C64.2272 23.2147 64.7188 22.2489 65.4925 21.4845C66.2662 20.72 67.1406 20.3378 68.1157 20.3378C68.4945 20.3378 68.833 20.3871 69.1312 20.4899L68.7967 22.364C68.4824 22.2489 68.1721 22.1914 67.878 22.1914C67.4226 22.1914 67.0036 22.4051 66.6288 22.8284C66.25 23.2517 66.0042 23.7901 65.8874 24.4477C65.7625 25.1545 65.8148 25.7135 66.0445 26.1245C66.2742 26.5354 66.6409 26.7409 67.1486 26.7409C67.3985 26.7409 67.7007 26.6793 68.0512 26.5642Z" fill="white"/>
<path d="M69.7881 20.5598H71.545L71.0252 23.4736H72.5847L73.1045 20.5598H74.8614L73.4551 28.4177H71.6982L72.2824 25.1504H70.723L70.1387 28.4177H68.3818L69.7881 20.5598Z" fill="white"/>
<path d="M79.6565 28.4177H77.8311L77.7707 27.1067H75.9171L75.3771 28.4177H73.584L77.0413 20.5598H79.0118L79.6565 28.4177ZM77.6861 25.6929C77.6337 24.5216 77.6337 23.412 77.6901 22.3557H77.6659C77.3315 23.4449 76.9366 24.5545 76.4853 25.6929H77.6861Z" fill="white"/>
<path d="M81.4741 20.5598H83.2471L84.6695 25.0929L84.7582 24.2463L85.419 20.5598H87.1759L85.7696 28.4177H83.9684L82.5822 23.9545L82.4533 24.9326L81.8287 28.4177H80.0718L81.4741 20.5598Z" fill="white"/>
<path d="M92.668 24.0161L92.4302 25.3354C92.2489 26.3546 91.862 27.156 91.2737 27.7396C90.6854 28.3232 89.9682 28.615 89.126 28.615C88.1831 28.615 87.5182 28.2533 87.1354 27.5341C86.7485 26.8149 86.676 25.7874 86.9137 24.4517C87.1555 23.1037 87.5947 22.0845 88.2314 21.3858C88.8681 20.6871 89.678 20.3419 90.6653 20.3419C91.7694 20.3419 92.4625 20.942 92.7445 22.1379L90.9433 22.8366C90.8506 22.5859 90.7539 22.4009 90.6532 22.2859C90.5524 22.1708 90.3993 22.1133 90.1938 22.1133C89.8392 22.1133 89.5531 22.3023 89.3355 22.6804C89.1179 23.0585 88.9366 23.6709 88.7835 24.5216C88.6424 25.3107 88.6223 25.8902 88.723 26.2601C88.8238 26.6299 89.0575 26.8149 89.4282 26.8149C90.0165 26.8149 90.3953 26.3875 90.5686 25.5367H89.7506L90.0246 24.012L92.668 24.0161Z" fill="white"/>
<path d="M97.0001 20.5598H98.757L97.3506 28.4177H95.5938L97.0001 20.5598Z" fill="white"/>
<path d="M99.5986 20.5598H101.372L102.794 25.0929L102.883 24.2463L103.544 20.5598H105.3L103.894 28.4177H102.093L100.707 23.9545L100.578 24.9326L99.9532 28.4177H98.1963L99.5986 20.5598Z" fill="white"/>
<path d="M106.091 20.5598H107.731C108.867 20.5598 109.673 20.8885 110.144 21.5461C110.62 22.2037 110.741 23.1654 110.515 24.4271C110.346 25.3847 110.06 26.1573 109.665 26.745C109.266 27.3327 108.783 27.7602 108.214 28.0232C107.642 28.2862 107.042 28.4177 106.409 28.4177H104.688L106.091 20.5598ZM107.545 22.2325L106.74 26.7409C107.279 26.6957 107.69 26.5026 107.973 26.1656C108.255 25.8285 108.46 25.2778 108.601 24.5093C108.682 24.0531 108.714 23.6668 108.694 23.3544C108.674 23.038 108.601 22.7955 108.48 22.6229C108.359 22.4503 108.226 22.3475 108.089 22.3064C107.948 22.2694 107.771 22.2407 107.545 22.2325Z" fill="white"/>
<path d="M111.869 20.5598H113.67L112.679 26.0957C112.634 26.3546 112.663 26.5601 112.772 26.7122C112.88 26.8642 113.05 26.9382 113.275 26.9382C113.513 26.9382 113.71 26.856 113.876 26.6957C114.041 26.5354 114.15 26.3135 114.202 26.0299L115.181 20.5598H116.974L116.056 25.7176C115.931 26.4204 115.737 26.9834 115.479 27.4067C115.221 27.83 114.899 28.1424 114.508 28.3397C114.117 28.5369 113.606 28.6356 112.973 28.6356C112.038 28.6356 111.422 28.3931 111.127 27.904C110.833 27.4149 110.789 26.593 110.994 25.4381L111.869 20.5598Z" fill="white"/>
<path d="M116.712 28.2739L117.039 26.4409C117.534 26.7697 117.974 26.9341 118.352 26.9341C118.574 26.9341 118.759 26.8724 118.909 26.7491C119.058 26.6258 119.15 26.4614 119.187 26.256C119.215 26.0998 119.191 25.9518 119.11 25.8162C119.029 25.6806 118.884 25.5121 118.671 25.3148C118.147 24.8422 117.788 24.4065 117.587 23.9997C117.385 23.5928 117.333 23.1407 117.422 22.6434C117.542 21.9653 117.853 21.4105 118.348 20.9831C118.844 20.5556 119.428 20.3419 120.097 20.3419C120.593 20.3419 121.064 20.4488 121.512 20.6666L121.197 22.4256C120.726 22.1338 120.331 21.99 120.005 21.99C119.787 21.99 119.606 22.0434 119.461 22.1502C119.316 22.2571 119.227 22.405 119.195 22.5941C119.134 22.9229 119.36 23.2928 119.872 23.7079C120.178 23.9503 120.468 24.2956 120.746 24.7353C121.024 25.1751 121.113 25.6888 121.008 26.2683C120.887 26.9464 120.553 27.5094 120.005 27.9533C119.457 28.3972 118.824 28.6232 118.107 28.6232C117.619 28.6232 117.152 28.5081 116.712 28.2739Z" fill="white"/>
<path d="M122.632 20.5598H126.823L126.5 22.3557H125.288L124.204 28.4218H122.423L123.506 22.3557H122.306L122.632 20.5598Z" fill="white"/>
<path d="M127.834 20.5598H129.881C130.707 20.5598 131.324 20.7776 131.727 21.2091C132.13 21.6406 132.263 22.2283 132.13 22.9681C132.061 23.3503 131.904 23.7161 131.658 24.0737C131.412 24.4312 131.102 24.6983 130.719 24.8792L131.489 28.4218H129.635L128.854 24.8422H128.825L128.185 28.4218H126.428L127.834 20.5598ZM129.321 22.0804L128.987 23.9462C129.764 23.9298 130.203 23.6545 130.3 23.1161C130.365 22.7503 130.32 22.4914 130.171 22.3311C130.018 22.1749 129.736 22.0886 129.321 22.0804Z" fill="white"/>
<path d="M133.871 20.5598H135.628L134.221 28.4177H132.464L133.871 20.5598Z" fill="white"/>
<path d="M140.483 28.4177H138.657L138.597 27.1067H136.743L136.203 28.4177H134.41L137.868 20.5598H139.838L140.483 28.4177ZM138.512 25.6929C138.46 24.5216 138.46 23.412 138.516 22.3557H138.492C138.158 23.4449 137.763 24.5545 137.311 25.6929H138.512Z" fill="white"/>
<path d="M142.3 20.5598H144.057L142.977 26.6012H144.368L144.041 28.4218H140.894L142.3 20.5598Z" fill="white"/>
<path d="M151.983 26.5642L151.649 28.4301C151.258 28.5534 150.911 28.6109 150.617 28.6109C149.602 28.6109 148.844 28.2246 148.352 27.4478C147.861 26.6711 147.724 25.6518 147.953 24.3901C148.163 23.2147 148.655 22.2489 149.428 21.4845C150.202 20.72 151.076 20.3378 152.052 20.3378C152.43 20.3378 152.769 20.3871 153.067 20.4899L152.733 22.364C152.418 22.2489 152.108 22.1914 151.814 22.1914C151.358 22.1914 150.939 22.4051 150.565 22.8284C150.186 23.2517 149.94 23.7901 149.823 24.4477C149.698 25.1545 149.747 25.7135 149.98 26.1245C150.21 26.5354 150.577 26.7409 151.084 26.7409C151.33 26.7409 151.628 26.6834 151.983 26.5642Z" fill="white"/>
<path d="M154.8 28.615C153.865 28.615 153.216 28.2492 152.858 27.5218C152.495 26.7943 152.439 25.7422 152.684 24.3695C152.91 23.1037 153.333 22.1133 153.954 21.4064C154.574 20.6995 155.324 20.3419 156.206 20.3419C157.145 20.3419 157.798 20.6954 158.169 21.4064C158.539 22.1174 158.604 23.1325 158.37 24.4517C158.136 25.771 157.705 26.7943 157.089 27.5218C156.464 28.2492 155.702 28.615 154.8 28.615ZM155.896 22.1256C155.263 22.1256 154.812 22.8818 154.542 24.3942C154.369 25.3682 154.332 26.0176 154.433 26.3423C154.534 26.6669 154.739 26.8313 155.046 26.8313C155.376 26.8313 155.654 26.6669 155.888 26.3423C156.122 26.0176 156.323 25.3806 156.492 24.4271C156.766 22.8941 156.569 22.1256 155.896 22.1256Z" fill="white"/>
<path d="M158.459 27.6246C158.507 27.3575 158.64 27.1273 158.862 26.9341C159.083 26.741 159.329 26.6465 159.595 26.6465C159.861 26.6465 160.075 26.741 160.232 26.93C160.389 27.1191 160.445 27.3492 160.397 27.6123C160.349 27.8753 160.212 28.1054 159.982 28.3027C159.752 28.5 159.506 28.5986 159.249 28.5986C158.983 28.5986 158.773 28.5041 158.62 28.315C158.463 28.126 158.41 27.8958 158.459 27.6246Z" fill="white"/>
<path d="M161.586 26.6259H163.226L161.102 30H159.95L161.586 26.6259Z" fill="white"/>
<path d="M166.985 20.5598H168.742L167.662 26.6012H169.053L168.726 28.4218H165.579L166.985 20.5598Z" fill="white"/>
<path d="M170.45 20.5598H174.641L174.319 22.3557H173.106L172.022 28.4218H170.241L171.325 22.3557H170.124L170.45 20.5598Z" fill="white"/>
<path d="M175.653 20.5598H177.293C178.429 20.5598 179.235 20.8885 179.707 21.5461C180.178 22.2037 180.303 23.1654 180.077 24.4271C179.908 25.3847 179.622 26.1573 179.227 26.745C178.828 27.3327 178.345 27.7602 177.776 28.0232C177.208 28.2862 176.604 28.4177 175.971 28.4177H174.25L175.653 20.5598ZM177.111 22.2325L176.306 26.7409C176.846 26.6957 177.257 26.5026 177.539 26.1656C177.821 25.8285 178.026 25.2778 178.167 24.5093C178.248 24.0531 178.28 23.6668 178.26 23.3544C178.24 23.038 178.167 22.7955 178.046 22.6229C177.925 22.4503 177.792 22.3475 177.655 22.3064C177.51 22.2694 177.333 22.2448 177.111 22.2325Z" fill="white"/>
<path d="M180.045 27.6246C180.093 27.3575 180.226 27.1273 180.448 26.9341C180.669 26.741 180.915 26.6465 181.181 26.6465C181.447 26.6465 181.661 26.741 181.818 26.93C181.975 27.1191 182.031 27.3492 181.983 27.6123C181.935 27.8753 181.798 28.1054 181.568 28.3027C181.338 28.5 181.092 28.5986 180.834 28.5986C180.569 28.5986 180.359 28.5041 180.206 28.315C180.049 28.126 179.996 27.8958 180.045 27.6246Z" fill="white"/>
</svg>
