<svg width="183" height="30" viewBox="0 0 183 30" fill="none" xmlns="http://www.w3.org/2000/svg">
<path d="M21.1069 13.5483C22.7711 4.55186 26.4662 4.5272 27.264 4.4861C27.4494 4.47788 27.6791 4.49843 27.9289 4.53542C27.3648 2.84627 26.4944 1.51469 25.3419 0.737931C22.5776 -1.12382 18.9591 0.692723 16.1545 4.87653C16.6058 4.75324 17.0451 4.70392 17.444 4.72858C19.3056 4.84777 20.3332 5.75604 20.7523 6.35196L19.0195 9.78777C19.0195 9.78777 17.8751 8.0822 16.4084 8.43564C15.1149 8.74799 14.8651 9.62338 14.853 10.3549C14.8449 10.9632 15.0343 11.4112 16.2472 11.8715C17.4641 12.3318 19.2976 13.0099 19.4346 15.7388C19.5756 18.4718 17.5205 23.8023 12.7012 23.8023C12.7012 23.8023 12.677 23.8064 12.6367 23.8064C13.1928 25.7051 14.1075 27.197 15.3607 28.0436C18.0645 29.8643 21.5864 28.1669 24.3587 24.1804C23.8228 23.9913 23.2546 23.6584 22.6824 23.1241C20.0028 20.6254 21.1069 13.5483 21.1069 13.5483Z" fill="#00A73C"/>
<path d="M12.5845 23.8106C12.5805 23.8106 12.5764 23.8106 12.5684 23.8106C12.5563 23.8106 12.5482 23.8106 12.5362 23.8106C12.5281 23.8106 12.52 23.8106 12.512 23.8106C12.4999 23.8106 12.4918 23.8106 12.4797 23.8106C12.4676 23.8106 12.4556 23.8106 12.4394 23.8106C12.4314 23.8106 12.4193 23.8106 12.4112 23.8106C12.3951 23.8106 12.375 23.8106 12.3548 23.8065C12.3468 23.8065 12.3427 23.8065 12.3347 23.8065C12.2783 23.8024 12.2178 23.7982 12.1533 23.79C12.1493 23.79 12.1453 23.79 12.1413 23.79C12.113 23.7859 12.0808 23.7818 12.0486 23.7777C12.0405 23.7777 12.0325 23.7736 12.0244 23.7736C11.9962 23.7695 11.968 23.7654 11.9357 23.7571C11.9277 23.7571 11.9156 23.753 11.9075 23.753C11.8793 23.7489 11.8471 23.7407 11.8189 23.7325C11.8068 23.7284 11.7987 23.7284 11.7867 23.7243C11.7544 23.7161 11.7222 23.7078 11.6899 23.6996C11.6819 23.6955 11.6698 23.6955 11.6617 23.6914C11.6255 23.6832 11.5892 23.6708 11.5529 23.6626C11.5449 23.6585 11.5368 23.6585 11.5288 23.6544C11.3918 23.6133 11.2467 23.5599 11.0936 23.4982C11.0855 23.4941 11.0774 23.49 11.0734 23.49C11.0291 23.4736 10.9888 23.453 10.9445 23.4325C10.9324 23.4284 10.9203 23.4201 10.9042 23.4119C10.8639 23.3955 10.8276 23.3749 10.7873 23.3544C10.7712 23.3462 10.7551 23.3379 10.739 23.3297C10.7027 23.3092 10.6624 23.2886 10.6261 23.2681C10.61 23.2599 10.5939 23.2475 10.5778 23.2393C10.5375 23.2188 10.5012 23.1941 10.4609 23.1694C10.4448 23.1612 10.4287 23.1489 10.4126 23.1407C10.3723 23.116 10.328 23.0872 10.2877 23.0585C10.2756 23.0503 10.2594 23.042 10.2474 23.0297C10.1909 22.9927 10.1386 22.9557 10.0821 22.9146C10.0821 22.9146 10.0781 22.9146 10.0781 22.9105C10.0177 22.8694 9.96126 22.8242 9.90082 22.779C9.89276 22.7708 9.88067 22.7626 9.87261 22.7544C9.82426 22.7174 9.7759 22.6763 9.72755 22.6393C9.7074 22.6228 9.69128 22.6064 9.67113 22.59C9.63084 22.5571 9.59054 22.5201 9.55428 22.4872C9.53413 22.4667 9.50995 22.4461 9.4898 22.4256C9.45354 22.3927 9.41727 22.3557 9.37698 22.3187C9.3528 22.2941 9.32862 22.2735 9.30847 22.2488C9.27221 22.2119 9.23594 22.1749 9.19967 22.1379C9.1755 22.1132 9.15132 22.0886 9.12714 22.0639C9.09088 22.0228 9.05461 21.9817 9.01834 21.9406C8.99417 21.9159 8.97402 21.8913 8.94984 21.8625C8.90955 21.8173 8.86925 21.768 8.82895 21.7187C8.80881 21.694 8.78866 21.6735 8.76851 21.6488C8.70807 21.5748 8.64762 21.5009 8.59121 21.4228L10.9606 17.6869C10.9606 17.6869 11.9478 20.2597 13.8498 20.1241C15.2843 20.0172 15.7276 18.7062 15.8605 17.9459C15.9371 17.5102 15.8686 17.0417 15.655 16.6965C15.4536 16.38 15.107 16.0389 14.5106 15.8909C12.8021 15.4717 10.6221 14.7936 11.3998 10.655C11.424 10.5358 11.4482 10.4208 11.4723 10.3057C11.4804 10.2687 11.4885 10.2358 11.4965 10.1988C11.5167 10.1208 11.5368 10.0386 11.557 9.96047C11.5691 9.92348 11.5771 9.88239 11.5892 9.8454C11.6094 9.76731 11.6335 9.68922 11.6577 9.61525C11.6658 9.58237 11.6779 9.54949 11.6859 9.51661C11.7182 9.40976 11.7544 9.30701 11.7947 9.20427C11.7987 9.19194 11.8028 9.18372 11.8068 9.17139C11.839 9.08097 11.8753 8.99056 11.9116 8.90014C11.9237 8.86726 11.9398 8.83438 11.9519 8.8015C11.9801 8.73575 12.0083 8.66999 12.0405 8.60423C12.0566 8.57135 12.0728 8.53436 12.0889 8.50149C12.1211 8.43573 12.1533 8.37408 12.1856 8.30832C12.2017 8.27956 12.2138 8.25079 12.2299 8.22202C12.2783 8.13571 12.3226 8.0453 12.3709 7.9631C12.383 7.94255 12.3951 7.922 12.4072 7.90145C12.4475 7.83569 12.4838 7.76994 12.5241 7.70829C12.5442 7.67541 12.5644 7.64253 12.5845 7.61376C12.6167 7.56445 12.649 7.51513 12.6852 7.46581C12.7094 7.43293 12.7296 7.40005 12.7537 7.36718C12.79 7.31786 12.8223 7.27265 12.8585 7.22333C12.8787 7.19456 12.9028 7.16579 12.923 7.13702C12.9754 7.06716 13.0318 6.99729 13.0882 6.93153C13.1124 6.90276 13.1366 6.874 13.1648 6.84523C13.197 6.80413 13.2333 6.76714 13.2655 6.72604C13.2937 6.69316 13.3259 6.66029 13.3542 6.62741C13.3824 6.59453 13.4146 6.56165 13.4468 6.53288C13.4791 6.5 13.5113 6.46712 13.5435 6.43425C13.5718 6.40548 13.6 6.37671 13.6282 6.35205C13.7571 6.22875 13.8901 6.10957 14.0271 5.9986C14.0472 5.98216 14.0714 5.96162 14.0916 5.94518C14.1319 5.9123 14.1762 5.87942 14.2205 5.84654C14.2407 5.8301 14.2608 5.81366 14.285 5.80133C14.3293 5.76845 14.3736 5.73558 14.422 5.7027C14.4341 5.69448 14.4502 5.68215 14.4623 5.67393C14.6235 5.56296 14.7887 5.46022 14.9539 5.3698C14.9619 5.36569 14.966 5.36158 14.974 5.35747C15.0264 5.3287 15.0828 5.29993 15.1352 5.27117C15.1433 5.26706 15.1513 5.26295 15.1594 5.25884C15.4576 5.10677 15.7517 4.9917 16.0459 4.90128C15.4858 3.03542 14.5791 1.56821 13.3421 0.729806C9.64293 -1.76075 4.41255 2.32853 1.65633 9.87006C-1.09989 17.4116 -0.338303 25.5449 3.36083 28.0355C6.14527 29.9137 9.80008 28.0519 12.6127 23.7982C12.6087 23.8106 12.5966 23.8106 12.5845 23.8106Z" fill="#008CD6"/>
<path d="M36.9387 0.737877C34.251 -1.07455 30.7493 0.598143 27.977 4.54356C28.8957 4.69562 30.032 5.08194 30.032 5.08194L29.4759 9.70549C28.8635 9.19588 28.2389 9.21643 28.2389 9.21643C26.5585 9.0808 24.9105 12.1919 25.0515 16.4949C25.1925 20.7979 28.2792 19.5239 28.2792 19.5239L27.7392 23.8063C27.7392 23.8063 26.2281 24.8502 24.3423 24.1721C24.9064 25.8941 25.7808 27.2503 26.9534 28.0394C30.6526 30.53 35.883 26.4407 38.6392 18.8992C41.3995 11.3618 40.6379 3.22843 36.9387 0.737877Z" fill="#E6002D"/>
<path fill-rule="evenodd" clip-rule="evenodd" d="M84.4139 16.343C81.5489 16.3964 81.5892 14.1237 81.5892 14.1237V10.8769H84.6517V14.0867H92.7511V9.46726C86.5536 8.87133 86.7591 6.39311 86.7591 6.39311C85.5059 9.53712 80.1265 9.47548 80.1265 9.47548V7.12055C85.655 6.90684 85.1594 1.67505 85.1594 1.67505H88.3025C88.3025 1.67505 88.4596 6.89862 92.7511 7.06301V1.62573C93.831 1.65861 96.011 1.62573 96.011 1.62573V3.98477H98.1991V6.15063H96.011V16.4005L84.4139 16.343Z" fill="#3D3D3D"/>
<path fill-rule="evenodd" clip-rule="evenodd" d="M62.5051 16.5897C62.5051 16.5897 60.3775 16.5897 59.362 16.5897C59.362 15.8499 59.362 15.1142 59.362 14.3745C53.4547 13.7498 52.6609 8.78514 52.6609 8.78514C51.7462 14.506 46 14.2799 46 14.2799V12.1634C46 12.1634 50.7589 12.2456 51.2707 1.67102C52.2539 1.67102 53.2371 1.67102 54.2203 1.67102C55.401 12.7018 59.362 12.0647 59.362 12.0647V7.06309H57.0773V4.84789H59.362V1.76966H62.5051V16.5897Z" fill="#3D3D3D"/>
<path d="M77.7046 4.27252V1.67102C77.7046 1.67102 75.6777 1.67102 74.7268 1.67102C74.7268 3.49989 74.7268 5.32874 74.7268 7.15761C70.7375 7.21515 70.6891 5.13558 70.6891 5.13558C71.8013 5.13558 74.07 5.13558 74.07 5.13558V2.85054H70.6891V1.67102H67.5461V2.85054H63.6898V5.13558H67.5461C67.9611 7.22748 63.3594 7.35078 63.3594 7.35078C63.3594 8.09054 63.3594 8.8262 63.3594 9.56597C65.9222 9.6194 68.5333 9.01936 69.2022 7.17405C70.7456 9.57008 74.7268 9.56597 74.7268 9.56597V10.7948C73.6428 10.4537 72.3372 10.2564 70.935 10.2564C67.2036 10.2564 64.1814 11.6579 64.1814 13.3881C64.1814 15.1184 67.2076 16.5198 70.935 16.5198C74.6663 16.5198 77.7086 15.1184 77.7086 13.3881C77.7086 13.3347 77.6966 13.2812 77.6925 13.2278L77.7086 13.236V6.58224H79.8322V4.27252H77.7046ZM70.9309 14.3909C68.9846 14.3909 67.4051 13.943 67.4051 13.3881C67.4051 12.8333 68.9846 12.3853 70.9309 12.3853C72.8772 12.3853 74.4568 12.8333 74.4568 13.3881C74.4568 13.943 72.8772 14.3909 70.9309 14.3909Z" fill="#3D3D3D"/>
<path fill-rule="evenodd" clip-rule="evenodd" d="M110.505 1.39148V3.97245H108.511C107.838 2.5299 105.98 1.49012 103.788 1.49012C101.028 1.49012 98.7915 3.13404 98.7915 5.1602C98.7915 7.18634 101.028 8.83027 103.788 8.83027C106.081 8.83027 108.007 7.69596 108.595 6.14656H110.522V10.5934H103.071V9.41387H99.9722V14.4032C99.9722 16.1704 102.313 16.1211 102.313 16.1211H113.58V1.39148H110.505ZM103.788 6.60686C102.934 6.60686 102.241 5.96161 102.241 5.16431C102.241 4.367 102.934 3.72175 103.788 3.72175C104.642 3.72175 105.336 4.367 105.336 5.16431C105.336 5.96161 104.642 6.60686 103.788 6.60686ZM110.481 14.1361H103.192V12.7058H110.481V14.1361Z" fill="#3D3D3D"/>
<path fill-rule="evenodd" clip-rule="evenodd" d="M115.204 1.4942H130.585V3.77515H124.585C124.585 3.77515 125.278 6.77123 130.782 6.58217V8.83847C130.782 8.83847 124.597 9.08506 122.703 5.92871C122.703 5.92871 122.505 8.60421 114.942 8.83847V6.58217C114.942 6.58217 120.47 6.66848 121.079 3.77515H115.204V1.4942Z" fill="#3D3D3D"/>
<path fill-rule="evenodd" clip-rule="evenodd" d="M114.68 9.80026V11.9333H121.289V16.3431H124.238V11.9333H131.093V9.80026H114.68Z" fill="#3D3D3D"/>
<path fill-rule="evenodd" clip-rule="evenodd" d="M136.831 1.34216H139.893C139.893 1.34216 140.252 6.71781 144.269 6.77946V1.34216H147.481V16.191H144.269V13.0716H133.373V10.84H144.269V9.07274C144.269 9.07274 139.869 9.6851 138.281 5.86297C138.281 5.86297 138.019 9.13439 131.725 9.20836V6.99317C131.725 6.99317 136.52 7.01783 136.831 1.34216Z" fill="#3D3D3D"/>
<path fill-rule="evenodd" clip-rule="evenodd" d="M160.58 1.34217V12.7839H155.217V11.403C157.143 10.9057 158.537 9.44674 158.537 7.72473C158.537 6.40959 157.719 5.24651 156.474 4.55195H159.15V2.22989H155.278V1.2312H152.251V2.234H148.379V4.55195H151.055C149.809 5.24651 148.991 6.40959 148.991 7.72473C148.991 9.44674 150.386 10.9057 152.312 11.403V12.7839H148.641V15.0156H160.58V16.3307H163.703V1.34217H160.58ZM153.762 6.20409C154.592 6.20409 155.269 6.88633 155.269 7.72473C155.269 8.56724 154.597 9.24536 153.762 9.24536C152.932 9.24536 152.255 8.56313 152.255 7.72473C152.255 6.88222 152.932 6.20409 153.762 6.20409Z" fill="#3D3D3D"/>
<path fill-rule="evenodd" clip-rule="evenodd" d="M182.852 5.17666H180.756V1.46552H177.509V11.9086C173.161 10.6633 172.452 1.46552 172.452 1.46552H169.478C169.317 12.1798 164.509 11.8675 164.509 11.8675V14.1484C170.582 13.9511 170.993 8.37 170.993 8.37C172.226 13.5279 176.316 14.0909 177.513 14.1443V16.265H180.76V7.4083H182.856V5.17666H182.852Z" fill="#3D3D3D"/>
<path d="M46.8784 28.2698L47.2048 26.4368C47.7004 26.7656 48.1397 26.93 48.5184 26.93C48.7401 26.93 48.9254 26.8683 49.0745 26.745C49.2236 26.6217 49.3163 26.4574 49.3526 26.2519C49.3808 26.0957 49.3566 25.9477 49.276 25.8121C49.1994 25.6765 49.0504 25.508 48.8368 25.3107C48.3129 24.8381 47.9543 24.4024 47.7528 23.9956C47.5514 23.5887 47.499 23.1366 47.5876 22.6393C47.7085 21.9612 48.0188 21.4064 48.5144 20.979C49.0101 20.5515 49.5943 20.3378 50.2633 20.3378C50.7589 20.3378 51.2303 20.4447 51.6776 20.6625L51.3633 22.4215C50.8919 22.1297 50.497 21.9859 50.1706 21.9859C49.953 21.9859 49.7716 22.0393 49.6306 22.1462C49.4855 22.253 49.3969 22.401 49.3647 22.59C49.3042 22.9188 49.5299 23.2887 50.0416 23.7038C50.3479 23.9463 50.638 24.2915 50.916 24.7312C51.1941 25.171 51.2827 25.6847 51.178 26.2642C51.0571 26.9423 50.7226 27.5054 50.1746 27.9492C49.6266 28.3931 48.9939 28.6191 48.2767 28.6191C47.7851 28.6232 47.3217 28.504 46.8784 28.2698Z" fill="#3D3D3D"/>
<path d="M52.9832 20.5556H56.5373L56.2391 22.2283H54.4419L54.184 23.675H55.7435L55.4533 25.3066H53.8939L53.64 26.7368H55.4493L55.1511 28.4136H51.585L52.9832 20.5556Z" fill="#3D3D3D"/>
<path d="M58.1451 28.6109C57.2102 28.6109 56.5615 28.2451 56.2028 27.5177C55.8402 26.7903 55.7837 25.7381 56.0296 24.3655C56.2552 23.0996 56.6783 22.1092 57.2989 21.4023C57.9194 20.6954 58.6689 20.3378 59.5514 20.3378C60.4903 20.3378 61.1431 20.6913 61.5138 21.4023C61.8845 22.1133 61.949 23.1284 61.7153 24.4477C61.4815 25.7669 61.0504 26.7903 60.4339 27.5177C59.8093 28.2492 59.0477 28.6109 58.1451 28.6109ZM59.2411 22.1215C58.6085 22.1215 58.1572 22.8777 57.8872 24.3901C57.7139 25.3641 57.6776 26.0135 57.7784 26.3382C57.8791 26.6628 58.0846 26.8272 58.3909 26.8272C58.7213 26.8272 58.9993 26.6628 59.2331 26.3382C59.4668 26.0135 59.6683 25.3765 59.8375 24.423C60.1115 22.89 59.9141 22.1256 59.2411 22.1215Z" fill="#3D3D3D"/>
<path d="M69.0571 26.5642L68.7227 28.4301C68.3318 28.5534 67.9852 28.6109 67.6911 28.6109C66.6756 28.6109 65.9181 28.2246 65.4265 27.4478C64.9349 26.6711 64.7979 25.6518 65.0235 24.3901C65.2331 23.2147 65.7247 22.2489 66.4983 21.4845C67.272 20.72 68.1464 20.3378 69.1216 20.3378C69.5004 20.3378 69.8388 20.3871 70.137 20.4899L69.8026 22.364C69.4883 22.2489 69.178 22.1914 68.8838 22.1914C68.4285 22.1914 68.0094 22.4051 67.6347 22.8284C67.2559 23.2517 67.0101 23.7901 66.8932 24.4477C66.7683 25.1545 66.8207 25.7135 67.0504 26.1245C67.2801 26.5354 67.6468 26.7409 68.1545 26.7409C68.4043 26.7409 68.7065 26.6793 69.0571 26.5642Z" fill="#3D3D3D"/>
<path d="M70.794 20.5598H72.5509L72.0311 23.4736H73.5905L74.1103 20.5598H75.8672L74.4609 28.4177H72.704L73.2883 25.1504H71.7289L71.1446 28.4177H69.3877L70.794 20.5598Z" fill="#3D3D3D"/>
<path d="M80.6624 28.4177H78.837L78.7766 27.1067H76.923L76.383 28.4177H74.5898L78.0472 20.5598H80.0177L80.6624 28.4177ZM78.6919 25.6929C78.6396 24.5216 78.6395 23.412 78.696 22.3557H78.6718C78.3373 23.4449 77.9424 24.5545 77.4911 25.6929H78.6919Z" fill="#3D3D3D"/>
<path d="M82.4799 20.5598H84.2529L85.6754 25.0929L85.764 24.2463L86.4249 20.5598H88.1818L86.7754 28.4177H84.9742L83.5881 23.9545L83.4591 24.9326L82.8345 28.4177H81.0776L82.4799 20.5598Z" fill="#3D3D3D"/>
<path d="M93.6738 24.0161L93.4361 25.3354C93.2547 26.3546 92.8679 27.156 92.2796 27.7396C91.6913 28.3232 90.974 28.615 90.1318 28.615C89.1889 28.615 88.524 28.2533 88.1412 27.5341C87.7544 26.8149 87.6819 25.7874 87.9196 24.4517C88.1614 23.1037 88.6006 22.0845 89.2373 21.3858C89.8739 20.6871 90.6839 20.3419 91.6711 20.3419C92.7752 20.3419 93.4683 20.942 93.7504 22.1379L91.9492 22.8366C91.8565 22.5859 91.7598 22.4009 91.659 22.2859C91.5583 22.1708 91.4052 22.1133 91.1997 22.1133C90.8451 22.1133 90.559 22.3023 90.3414 22.6804C90.1238 23.0585 89.9424 23.6709 89.7893 24.5216C89.6483 25.3107 89.6281 25.8902 89.7289 26.2601C89.8296 26.6299 90.0633 26.8149 90.4341 26.8149C91.0224 26.8149 91.4011 26.3875 91.5744 25.5367H90.7564L91.0304 24.012L93.6738 24.0161Z" fill="#3D3D3D"/>
<path d="M98.0059 20.5598H99.7628L98.3565 28.4177H96.5996L98.0059 20.5598Z" fill="#3D3D3D"/>
<path d="M100.604 20.5598H102.377L103.8 25.0929L103.889 24.2463L104.549 20.5598H106.306L104.9 28.4177H103.099L101.713 23.9545L101.584 24.9326L100.959 28.4177H99.2021L100.604 20.5598Z" fill="#3D3D3D"/>
<path d="M107.097 20.5598H108.737C109.873 20.5598 110.679 20.8885 111.15 21.5461C111.626 22.2037 111.747 23.1654 111.521 24.4271C111.352 25.3847 111.066 26.1573 110.671 26.745C110.272 27.3327 109.788 27.7602 109.22 28.0232C108.648 28.2862 108.048 28.4177 107.415 28.4177H105.694L107.097 20.5598ZM108.551 22.2325L107.745 26.7409C108.285 26.6957 108.696 26.5026 108.978 26.1656C109.26 25.8285 109.466 25.2778 109.607 24.5093C109.688 24.0531 109.72 23.6668 109.7 23.3544C109.68 23.038 109.607 22.7955 109.486 22.6229C109.365 22.4503 109.232 22.3475 109.095 22.3064C108.954 22.2694 108.777 22.2407 108.551 22.2325Z" fill="#3D3D3D"/>
<path d="M112.875 20.5598H114.676L113.685 26.0957C113.64 26.3546 113.669 26.5601 113.777 26.7122C113.886 26.8642 114.055 26.9382 114.281 26.9382C114.519 26.9382 114.716 26.856 114.881 26.6957C115.047 26.5354 115.155 26.3135 115.208 26.0299L116.187 20.5598H117.98L117.061 25.7176C116.937 26.4204 116.743 26.9834 116.485 27.4067C116.227 27.83 115.905 28.1424 115.514 28.3397C115.123 28.5369 114.611 28.6356 113.979 28.6356C113.044 28.6356 112.427 28.3931 112.133 27.904C111.839 27.4149 111.795 26.593 112 25.4381L112.875 20.5598Z" fill="#3D3D3D"/>
<path d="M117.718 28.2739L118.045 26.4409C118.54 26.7697 118.98 26.9341 119.358 26.9341C119.58 26.9341 119.765 26.8724 119.914 26.7491C120.063 26.6258 120.156 26.4614 120.192 26.256C120.221 26.0998 120.196 25.9518 120.116 25.8162C120.035 25.6806 119.89 25.5121 119.677 25.3148C119.153 24.8422 118.794 24.4065 118.593 23.9997C118.391 23.5928 118.339 23.1407 118.427 22.6434C118.548 21.9653 118.859 21.4105 119.354 20.9831C119.85 20.5556 120.434 20.3419 121.103 20.3419C121.599 20.3419 122.07 20.4488 122.517 20.6666L122.203 22.4256C121.732 22.1338 121.337 21.99 121.01 21.99C120.793 21.99 120.611 22.0434 120.466 22.1502C120.321 22.2571 120.233 22.405 120.2 22.5941C120.14 22.9229 120.366 23.2928 120.877 23.7079C121.184 23.9503 121.474 24.2956 121.752 24.7353C122.03 25.1751 122.119 25.6888 122.014 26.2683C121.893 26.9464 121.558 27.5095 121.01 27.9533C120.462 28.3972 119.83 28.6232 119.112 28.6232C118.625 28.6232 118.157 28.5081 117.718 28.2739Z" fill="#3D3D3D"/>
<path d="M123.638 20.5598H127.829L127.506 22.3557H126.293L125.209 28.4218H123.428L124.512 22.3557H123.312L123.638 20.5598Z" fill="#3D3D3D"/>
<path d="M128.84 20.5598H130.887C131.713 20.5598 132.33 20.7776 132.732 21.2091C133.135 21.6406 133.268 22.2283 133.135 22.9681C133.067 23.3503 132.91 23.7161 132.664 24.0737C132.418 24.4312 132.108 24.6983 131.725 24.8792L132.495 28.4218H130.641L129.859 24.8422H129.831L129.19 28.4218H127.434L128.84 20.5598ZM130.327 22.0804L129.992 23.9462C130.77 23.9298 131.209 23.6545 131.306 23.1161C131.37 22.7503 131.326 22.4914 131.177 22.3311C131.024 22.1749 130.742 22.0886 130.327 22.0804Z" fill="#3D3D3D"/>
<path d="M134.877 20.5598H136.633L135.227 28.4177H133.47L134.877 20.5598Z" fill="#3D3D3D"/>
<path d="M141.489 28.4177H139.663L139.603 27.1067H137.749L137.209 28.4177H135.416L138.873 20.5598H140.844L141.489 28.4177ZM139.518 25.6929C139.466 24.5216 139.466 23.412 139.522 22.3557H139.498C139.164 23.4449 138.769 24.5545 138.317 25.6929H139.518Z" fill="#3D3D3D"/>
<path d="M143.306 20.5598H145.063L143.983 26.6012H145.373L145.047 28.4218H141.9L143.306 20.5598Z" fill="#3D3D3D"/>
<path d="M152.989 26.5642L152.654 28.4301C152.264 28.5534 151.917 28.6109 151.623 28.6109C150.607 28.6109 149.85 28.2246 149.358 27.4478C148.867 26.6711 148.73 25.6518 148.959 24.3901C149.169 23.2147 149.66 22.2489 150.434 21.4845C151.208 20.72 152.082 20.3378 153.057 20.3378C153.436 20.3378 153.775 20.3871 154.073 20.4899L153.738 22.364C153.424 22.2489 153.114 22.1914 152.82 22.1914C152.364 22.1914 151.945 22.4051 151.571 22.8284C151.192 23.2517 150.946 23.7901 150.829 24.4477C150.704 25.1545 150.753 25.7135 150.986 26.1245C151.216 26.5354 151.583 26.7409 152.09 26.7409C152.336 26.7409 152.634 26.6834 152.989 26.5642Z" fill="#3D3D3D"/>
<path d="M155.806 28.615C154.871 28.615 154.222 28.2492 153.863 27.5218C153.501 26.7943 153.444 25.7422 153.69 24.3695C153.916 23.1037 154.339 22.1133 154.96 21.4064C155.58 20.6995 156.33 20.3419 157.212 20.3419C158.151 20.3419 158.804 20.6954 159.174 21.4064C159.545 22.1174 159.61 23.1325 159.376 24.4517C159.142 25.771 158.711 26.7943 158.095 27.5218C157.47 28.2492 156.708 28.615 155.806 28.615ZM156.902 22.1256C156.269 22.1256 155.818 22.8818 155.548 24.3942C155.375 25.3682 155.338 26.0176 155.439 26.3423C155.54 26.6669 155.745 26.8313 156.052 26.8313C156.382 26.8313 156.66 26.6669 156.894 26.3423C157.127 26.0176 157.329 25.3806 157.498 24.4271C157.772 22.8941 157.575 22.1256 156.902 22.1256Z" fill="#3D3D3D"/>
<path d="M159.465 27.6246C159.513 27.3575 159.646 27.1273 159.868 26.9341C160.089 26.741 160.335 26.6465 160.601 26.6465C160.867 26.6465 161.08 26.741 161.238 26.93C161.395 27.1191 161.451 27.3492 161.403 27.6123C161.354 27.8753 161.217 28.1054 160.988 28.3027C160.758 28.5 160.512 28.5986 160.254 28.5986C159.988 28.5986 159.779 28.5041 159.626 28.315C159.469 28.126 159.416 27.8958 159.465 27.6246Z" fill="#3D3D3D"/>
<path d="M162.592 26.6259H164.232L162.108 30H160.956L162.592 26.6259Z" fill="#3D3D3D"/>
<path d="M167.991 20.5598H169.748L168.668 26.6012H170.058L169.732 28.4218H166.585L167.991 20.5598Z" fill="#3D3D3D"/>
<path d="M170.45 20.5598H174.641L174.319 22.3557H173.106L172.022 28.4218H170.241L171.325 22.3557H170.124L170.45 20.5598Z" fill="#3D3D3D"/>
<path d="M175.653 20.5598H177.293C178.429 20.5598 179.235 20.8885 179.707 21.5461C180.178 22.2037 180.303 23.1654 180.077 24.4271C179.908 25.3847 179.622 26.1573 179.227 26.745C178.828 27.3327 178.345 27.7602 177.776 28.0232C177.208 28.2862 176.604 28.4177 175.971 28.4177H174.25L175.653 20.5598ZM177.111 22.2325L176.306 26.7409C176.846 26.6957 177.257 26.5026 177.539 26.1656C177.821 25.8285 178.026 25.2778 178.167 24.5093C178.248 24.0531 178.28 23.6668 178.26 23.3544C178.24 23.038 178.167 22.7955 178.046 22.6229C177.925 22.4503 177.792 22.3475 177.655 22.3064C177.51 22.2694 177.333 22.2448 177.111 22.2325Z" fill="#3D3D3D"/>
<path d="M180.045 27.6246C180.093 27.3575 180.226 27.1273 180.448 26.9341C180.669 26.741 180.915 26.6465 181.181 26.6465C181.447 26.6465 181.661 26.741 181.818 26.93C181.975 27.1191 182.031 27.3492 181.983 27.6123C181.935 27.8753 181.798 28.1054 181.568 28.3027C181.338 28.5 181.092 28.5986 180.834 28.5986C180.569 28.5986 180.359 28.5041 180.206 28.315C180.049 28.126 179.996 27.8958 180.045 27.6246Z" fill="white"/>
</svg>
