<svg xmlns="http://www.w3.org/2000/svg" width="286.546" height="286.823" viewBox="0 0 286.546 286.823">
  <g id="circle_txt" transform="translate(-138.935 -197.876)">
    <g id="그룹_1" data-name="그룹 1">
      <path id="패스_2" data-name="패스 2" d="M167.229,268.511a10.435,10.435,0,0,0-1.948-5.47c-.148-.1-.747.113-1.082.3-.08.032-.2.081-.25.047s-.042-.13.1-.338a4,4,0,0,1,1.407-.926.212.212,0,0,1,.242.007,10.29,10.29,0,0,1,.894,1.516c.62-.1,1.2-.18,1.678-.3.48-.106.573-.537,1.681-.329a1.206,1.206,0,0,1,.454.166c.158.108.193.249.118.357a.783.783,0,0,1-.675.221c-.426.027-2.2.149-3.121.243a10.333,10.333,0,0,1,.639,4.833c-.013.019-.03.022-.04.015C167.287,268.828,167.249,268.714,167.229,268.511Zm-.673-10.124c-.2-.109-.642.025-1.277.419-.144.1-.258.142-.307.109s-.041-.174.1-.415a7.619,7.619,0,0,1,1.145-.989c.161-.108.251-.09.34-.029s.137.139.246.213l5.817,4.01c1.82,1.249,2.026,1.478,2.28,1.914.071.151.083.26.042.32-.054.079-.214.057-.52-.154Z" fill="#1a1818"/>
      <path id="패스_3" data-name="패스 3" d="M171.056,254.853a1.547,1.547,0,0,0-.767.346c-.1.07-.218.132-.273.086-.037-.03-.023-.142.114-.4a7.055,7.055,0,0,1,1.033-.952c.587-.713,1.066-1.314,1.692-2.167.2-.258.011-.146.438-.665.26-.315.382-.369.447-.316.093.077.064.4.188.528l1.873,2.18c.286-.215.508-.3.582-.235.111.091-.155.415-.316.61-.473.574-1.525,1.946-1.9,2.426.079.112.392.525.247.7-.076.092-.324-.08-.9-.493Zm.495-.884c-.023.122-.121.165.048.32l2.336,1.769a8.735,8.735,0,0,0,1.617-2.228c-.425-.428-1.521-1.362-2.3-2.037Zm2.808-5.429a2.052,2.052,0,0,0-1.178.336c-.185.111-.3.14-.348.1s.008-.18.182-.41a4.889,4.889,0,0,1,1.008-.771c.305-.2.423-.212.516-.135.064.053.117.159.237.258l3.883,3.214a6.557,6.557,0,0,1,1.174,1.216c.145.259.172.452.1.536s-.252.041-.549-.2Zm2.676,8.019c-.2-.134-.459.01-1,.36-.1.087-.193.122-.24.083s-.031-.15.107-.394a9.688,9.688,0,0,1,.889-.946c.166-.127.244-.126.327-.058.055.046.116.143.227.234.407.336.908.748,1.258,1.021.2.168.386.116.672-.193l1.576-1.951c.526-.733.038-.575.725-1.408.244-.3.592-.663.879-.426a.284.284,0,0,1,0,.417l-2.968,3.6c-.512.6-.951.834-1.446.473Z" fill="#1a1818"/>
      <path id="패스_4" data-name="패스 4" d="M180.071,242.966c.2-.205.107-.382.065-.424a.388.388,0,0,0-.188-.084.446.446,0,0,1-.255-.049c-.034-.034-.017-.085.05-.153.278-.282.676-.327.779-.226.085.084.1.228.155.355a2.052,2.052,0,0,1,2.707.023,2.158,2.158,0,0,1-.233,3.073,2.186,2.186,0,0,1-3.145.336A2.1,2.1,0,0,1,180.071,242.966Zm.475,2.339a1.691,1.691,0,1,0,.119-2.258A1.537,1.537,0,0,0,180.546,245.3Zm2.417-5.957c-.23-.193-.764-.045-1.314.171-.219.12-.372.155-.415.113s0-.17.176-.366c.076-.077,1.468-1.114,1.716-.87a2.639,2.639,0,0,0,.2.262l5.281,5.223c1.188,1.17,1.924,2.132,1.706,2.354-.093.1-.263.045-.793-.426l-2.23-2.2a32.581,32.581,0,0,1-3.011,4.9c-.175.315-.089.45-.25.613-.185.188-1.666.8-1.845.624-.034-.034-.009-.076.058-.144a1.42,1.42,0,0,1,.211-.164,5.161,5.161,0,0,0,.819-.692,29.721,29.721,0,0,0,3.856-5.3Z" fill="#1a1818"/>
      <path id="패스_5" data-name="패스 5" d="M193.235,231.9c.377-.394-.007-.393.742-.994.337-.27.585-.268.683-.147.082.1.043.3-.165.486-.65.552-1.119.927-1.55,1.349a.609.609,0,0,1,.39.18c.068.084.049.176.107.268,1.1-.6,1.984-.4,2.434.158a1.83,1.83,0,0,1-.613,2.537,1.858,1.858,0,0,1-2.664,0,1.732,1.732,0,0,1,.375-2.315.283.283,0,0,0-.017-.31.763.763,0,0,0-.364-.185c-.313.281-.463.4-.834.745-.168.212-.136.31-.23.384s-.96.339-1.08.189c-.022-.028,0-.06.064-.113.037-.03.1-.065.183-.116a6.748,6.748,0,0,0,.8-.561c.393-.316.849-.727,1.639-1.468Zm-1.432.287a2.09,2.09,0,0,1-1.2.089c-.023-.028,0-.06.054-.1a1.571,1.571,0,0,1,.238-.145,7.142,7.142,0,0,0,.989-.685c.141-.112.309-.248.508-.422.278-.192.508-.192.591-.089s.013.343-.326.63Zm1.313,3.117a1.437,1.437,0,0,0,2.2-1.764,1.434,1.434,0,0,0-2.2,1.764Zm1.466-5.467c-.184-.191-.552-.112-1.024-.01-.114.029-.255.066-.292.019s.007-.145.219-.361c1.089-.58,1.3-.608,1.4-.477.045.056.069.144.137.229l1.719,2.145,1.141-.976-1.892-2.361a1.776,1.776,0,0,0-1.2.039c-.14.036-.287.045-.332-.011s.019-.169.263-.364c1.227-.6,1.493-.613,1.613-.463.06.075.083.18.158.274l2.962,3.811c.438.6.531,1.067.4,1.172-.093.075-.289-.015-.559-.352l-1.21-1.492-1.141.976.593.817c.306.478.333.857.2.962-.094.075-.275.021-.486-.242Zm3.56,4.424a.292.292,0,0,0,.043-.388.245.245,0,0,0-.169-.1.272.272,0,0,1-.223-.067c-.022-.028-.019-.062.028-.1s.65-.32.778-.161c.06.074.044.227.113.371a1.85,1.85,0,1,1,2.037,3.06,2.043,2.043,0,0,1-2.965.006A1.989,1.989,0,0,1,198.142,234.259Zm.129,2.158a1.474,1.474,0,0,0,2.164.051,1.406,1.406,0,1,0-1.749-2.183A1.481,1.481,0,0,0,198.271,236.417Z" fill="#1a1818"/>
      <path id="패스_6" data-name="패스 6" d="M201.4,224.292c-.142-.193-.535-.09-1.012.04-.156.046-.263.059-.3.009s.023-.159.226-.353a5.81,5.81,0,0,1,1.093-.525c.25-.08.346-.043.4.037s.063.16.116.24l.366.55,3.222-2.2-.473-.709c-.126-.147-.539-.117-1,0-.174.043-.287.046-.32,0s.03-.15.227-.31a4.692,4.692,0,0,1,1.255-.519c.174-.043.244,0,.29.067s.077.18.146.306c1.381,2.14,1.587,2.449,1.66,3.036a.4.4,0,0,1-.107.316c-.08.053-.217,0-.452-.291l-1.356.932a8.29,8.29,0,0,1,.741,1.309,24.29,24.29,0,0,0,2.216-1.59c.409-.359.263-.449.733-.762.25-.166,1.059-.705,1.272-.385.086.13.017.35-.213.5-.031.02-.067.03-.1.05-.513.313-1.466.918-2.525,1.624-1.359.9-2.9,1.972-3.9,2.811-.284.289-.287.436-.467.555-.2.133-1.555.459-1.675.279-.027-.04,0-.087.09-.147a.973.973,0,0,1,.146-.083,14.138,14.138,0,0,0,2.219-1.26c.56-.373,1.146-.792,1.709-1.225-.289-.369-.572-.773-.894-1.235l-1.25.875c.15.289.146.695.006.789s-.333-.11-.655-.574Zm1.073.268.884,1.372,3.229-2.236-.892-1.339Zm6.4,2.3c-.59.436-2.149,1.56-3.215,2.342-.357.266-.324.446-.534.586a2.567,2.567,0,0,1-1.348.205c-.02-.03.007-.076.107-.143a.991.991,0,0,1,.146-.083,11.976,11.976,0,0,0,1.532-.9c.93-.618,1.966-1.38,2.759-1.965.243-.177.147-.257.466-.47l.13-.086c.393-.233.534-.239.587-.16s.026.257.113.387a12.566,12.566,0,0,1,1.5,2.605c.106.333.08.6-.031.669-.09.06-.233,0-.4-.253Z" fill="#1a1818"/>
      <path id="패스_7" data-name="패스 7" d="M220.767,217.884c-.571.257-1.289.62-2,1-.822.447-1.633.916-2.149,1.224-.647.393-2.534,1.571-2.976,1.839-.315.2-.246.352-.436.455a3.419,3.419,0,0,1-1.667.1c-.017-.032.008-.086.1-.138a.924.924,0,0,1,.218-.077,11.932,11.932,0,0,0,1.934-.916c1.465-.8,3.433-1.978,5.079-3,.521-.324.328-.451.9-.761.507-.275,1.046-.514,1.219-.2a.347.347,0,0,1-.195.447Zm-6.468-2.193c1.4-.532,2.4-.115,2.8.634.43.791.108,2.032-1.252,2.772-1.381.752-2.642.344-3.112-.52a1.955,1.955,0,0,1,.843-2.495.254.254,0,0,0,.117-.337.314.314,0,0,0-.193-.155.326.326,0,0,1-.181-.106c-.023-.043.008-.087.081-.127.2-.109.713-.2.8-.038.046.084.008.214.071.33Zm-.9,2.594a1.789,1.789,0,0,0,3.069-1.67,1.558,1.558,0,0,0-2.227-.4A1.523,1.523,0,0,0,213.4,218.285Zm2.5,6.208c-.079-.12-.324-.069-.724.026-.107.03-.219.05-.242.008s.131-.262.321-.366a5,5,0,0,1,1.181-.465c.981-.534,1.491-.852,2.476-1.429.251-.164.276-.219.528-.41-.089-.239-.3-.656-.568-1.194-.685.4-2.038,1.177-3.022,1.78-.271.23-.266.364-.445.461-.211.115-1.207.22-1.276.093-.017-.032.014-.076.119-.133a1.042,1.042,0,0,1,.164-.075,16.371,16.371,0,0,0,1.494-.745c.833-.454,1.786-1.013,2.574-1.523.14-.145.134-.183.313-.28.675-.367.738-.251.761-.209.046.084.014.252.029.38.062.39.151.957.207,1.186.314-.1.519-.077.565.007s-.052.206-.295.337c-.79.458-2.316,1.343-3.385,1.966-.077.11-.167.145-.1.261l.5.917c.109.2.238.186.4.1.211-.115.522-.271.891-.472.517-.281,1.144-.635,1.76-.985.592-.417.273-.5.926-.859.3-.161.823-.448.989-.141.069.126,0,.316-.237.442l-4.165,2.267c-.769.418-1.087.236-1.254-.069Z" fill="#1a1818"/>
      <path id="패스_8" data-name="패스 8" d="M232.2,207.935c-.122-.21-.8-.25-1.323-.272-.163.013-.3-.009-.323-.065s.06-.14.3-.261c1.593-.314,1.845-.233,1.921-.044.026.066.031.143.062.22l2.923,7.437c.379.946.693,2.152.426,2.258-.134.054-.237-.073-.56-.719l-1.615-4.006c-.584.479-1.864,1.444-3.1,2.262a10.959,10.959,0,0,1,.936,2.921c.009.345-.051.55-.141.585s-.222-.105-.372-.445l-1.085-2.681c-.341.214-.7.438-1.1.685-.276.213-.256.36-.434.432-.2.08-1.849.093-1.929-.107-.018-.045.028-.089.14-.134a1.21,1.21,0,0,1,.182-.06,5.442,5.442,0,0,0,1.045-.328,27.86,27.86,0,0,0,5.777-3.357Zm-4.09,1.984c.134-.053.245-.162.2-.273a.4.4,0,0,0-.206-.19c-.093-.04-.133-.076-.151-.121s.018-.084.1-.115c.167-.067.713-.092.8.12.035.089-.012.2,0,.3a1.839,1.839,0,1,1,.993,3.518c-1.37.548-2.448.049-2.791-.809A2.026,2.026,0,0,1,228.11,209.919Zm-.468,2.125a1.624,1.624,0,1,0,.987-1.893A1.445,1.445,0,0,0,227.642,212.044Z" fill="#1a1818"/>
      <path id="패스_9" data-name="패스 9" d="M241.581,206.541c.606-.319.248-.425,1.187-.719.406-.11.649-.008.694.142s-.089.328-.4.421c-.974.3-1.871.611-2.478.844.261.159.338.249.359.317s-.012.129.008.236c1.315-.207,2.122.353,2.346,1.1.265.885-.289,1.916-1.633,2.319-1.436.431-2.449-.229-2.687-1.022-.224-.747.152-1.661,1.4-2.223a.329.329,0,0,0,.058-.268.542.542,0,0,0-.288-.29,11.479,11.479,0,0,0-1.4.546c-.216.115-.246.224-.384.265a2.529,2.529,0,0,1-1.275-.281c-.01-.034.029-.071.133-.1a2.276,2.276,0,0,1,.237-.046,10.4,10.4,0,0,0,1.654-.371C239.846,207.187,240.479,206.959,241.581,206.541Zm-2.182-.385a1.941,1.941,0,0,1-1.15-.368c-.01-.035.009-.053.089-.077a1.462,1.462,0,0,1,.275-.045,13.56,13.56,0,0,0,2.1-.555c.318-.07.528,0,.566.131s-.112.334-.546.476Zm.254,3.769a1.567,1.567,0,1,0,1.1-1.709A1.383,1.383,0,0,0,239.653,209.925Zm2.1,2.815c-.088-.211-.387-.247-.956-.264-.183.017-.318-.018-.336-.075s.069-.146.327-.248a9.389,9.389,0,0,1,1.253-.289c.224,0,.288.039.318.143.021.069.018.182.056.309l.389,1.3c.083.276.267.346.657.229l2.464-.764c.774-.258.325-.461,1.325-.761.287-.087.9-.269,1,.087.045.149-.083.35-.381.44l-4.344,1.3c-.77.231-1.31.143-1.472-.4ZM243.7,204.2c-.037-.127-.4-.244-1.177-.336-.19-.006-.3-.047-.316-.093-.021-.069.1-.156.375-.251.046-.013,1.679-.29,1.793.089.024.08.005.186.04.3l1.071,3.611c.158-.06.345-.1.511-.178.5-.262.19-.408,1.075-.674.23-.068.655-.2.748.114a.317.317,0,0,1-.247.387l-2.008.653a10.847,10.847,0,0,1,.68,2.977c-.038.25-.112.46-.216.491s-.213-.086-.339-.462Z" fill="#1a1818"/>
      <path id="패스_10" data-name="패스 10" d="M255.36,203.769c-.238.1-.253.227-.418.255a2.685,2.685,0,0,1-1.327-.341c-.006-.036.049-.07.179-.093.083-.014.191-.021.323-.031.277-.024.872-.1,1.522-.217.757-.132,1.581-.3,2.1-.451.208-.061.08-.1.494-.172.13-.022.65-.113.679.052.012.072-.068.171-.2.267a14.433,14.433,0,0,1-1.125,1.938c1.209.922,1.4.475,2.089,1.427a.723.723,0,0,1,.138.3c.031.177-.033.3-.163.321a.482.482,0,0,1-.4-.175,19.876,19.876,0,0,0-1.893-1.632A12.091,12.091,0,0,1,254,208.209a.849.849,0,0,1-.247.116c-.047.008-.073,0-.077-.023s.052-.119.205-.219a12.313,12.313,0,0,0,3.922-4.837C257.07,203.373,255.975,203.588,255.36,203.769Zm.644-1.758a2.887,2.887,0,0,1-1.272-.521c-.006-.035.027-.053.1-.066a.827.827,0,0,1,.219,0,14.237,14.237,0,0,0,2.41-.224c.276-.024.417.085.439.216a.265.265,0,0,1-.181.287c-.116.032-.4.082-.707.135Zm1.465,6.447c-.065-.232-.356-.291-.992-.376-.134,0-.225-.034-.235-.093s.074-.135.338-.229a9.726,9.726,0,0,1,1.291-.14c.209.012.267.063.285.17.013.071,0,.183.021.325.09.521.2,1.159.289,1.594.046.261.218.34.636.292l2.467-.454c.877-.214.4-.412,1.468-.6.379-.066.881-.117.945.25.023.13-.061.278-.274.315l-4.6.8c-.782.125-1.265.014-1.4-.583Zm3.237-7.79c-.059-.331-.577-.508-1.089-.65-.166-.045-.358-.1-.37-.167s.088-.125.4-.205a4.727,4.727,0,0,1,1.274.107c.337.051.427.145.448.264.016.094,0,.207.01.339l.909,5.288a4.744,4.744,0,0,1,.057,2.427.185.185,0,0,1-.116.1c-.142.025-.272-.3-.371-.873l-.5-2.862-.878.2c-.357.123-.385.237-.551.266s-.911-.121-.941-.3c-.007-.035.047-.081.188-.106.071-.012.452-.066.547-.083.614-.107,1.166-.227,1.576-.323Z" fill="#1a1818"/>
      <path id="패스_11" data-name="패스 11" d="M267.746,200.5c.188-.053.338-.125.326-.269a.45.45,0,0,0-.127-.23c-.115-.075-.168-.13-.172-.178s.043-.064.15-.073c.359-.031.807.137.822.316.011.132-.122.263-.134.409,1.415.206,2.1,1.016,2.171,1.889a2.312,2.312,0,0,1-2.333,2.341c-1.651.139-2.7-.784-2.8-1.909C265.571,201.863,266.211,200.87,267.746,200.5Zm-1.342,2.233a1.661,1.661,0,0,0,1.966,1.461,1.635,1.635,0,1,0-.273-3.242A1.675,1.675,0,0,0,266.4,202.733Zm2.811,3.92c-.03-.227-.315-.311-.94-.439-.135-.025-.234-.065-.239-.125s.1-.129.368-.2a8.992,8.992,0,0,1,1.275-.023c.22.029.274.1.283.205.007.083-.009.181-.01.314.044.526.1,1.232.151,1.65.035.274.2.368.621.357l2.163-.206c.891-.147.437-.386,1.5-.476.395-.033.9-.027.931.331.012.144-.1.273-.3.291l-4.319.363c-.8.055-1.262-.1-1.36-.693Zm3.448-7.423c-.011-.131-.341-.32-1.084-.571-.185-.045-.287-.109-.291-.157-.006-.071.134-.131.42-.167.048,0,1.7.061,1.737.456.007.084-.033.183-.023.3l.3,3.758c.166-.027.358-.031.536-.07.541-.154.271-.36,1.192-.438.239-.02.682-.057.709.266a.318.318,0,0,1-.322.328l-2.1.226a10.833,10.833,0,0,1,.052,3.055c-.088.237-.2.427-.313.436s-.191-.129-.236-.522Z" fill="#1a1818"/>
      <path id="패스_12" data-name="패스 12" d="M285.843,199.057c-.019-.3-.494-.584-1.03-.833-.238-.076-.369-.162-.368-.222s.122-.118.386-.126c.108,0,1.818.294,1.813.643a2.87,2.87,0,0,0-.054.322l-.134,7.424c-.028,1.667-.216,2.864-.527,2.859-.132,0-.214-.16-.238-.868l.052-3.131a32.625,32.625,0,0,1-5.622,1.2c-.35.09-.389.246-.616.242-.264-.005-1.729-.653-1.725-.9,0-.048.049-.06.145-.058a1.391,1.391,0,0,1,.263.04,5.109,5.109,0,0,0,1.066.114,29.745,29.745,0,0,0,6.493-.864Zm-4.613.4c.288,0,.351-.186.352-.246a.383.383,0,0,0-.069-.193.437.437,0,0,1-.14-.218c0-.048.049-.071.145-.07.4.007.7.264.7.408,0,.12-.1.226-.15.358a2.051,2.051,0,0,1,1.851,1.974,2.158,2.158,0,0,1-2.384,1.951,2.185,2.185,0,0,1-2.413-2.043C279.137,200.505,279.8,199.653,281.23,199.46Zm-1.364,1.957a1.69,1.69,0,1,0,1.716-1.471A1.537,1.537,0,0,0,279.866,201.417Z" fill="#1a1818"/>
      <path id="패스_13" data-name="패스 13" d="M302.038,205.072c.615.014.541-.176,1.15-.1.511.062,1.174.179,1.128.561-.018.155-.179.28-.418.251l-.023,0c-.648-.139-1.42-.257-2.171-.348-1.823-.223-4.027-.394-5.941-.469-.353.017-.406.156-.62.13s-1.481-.652-1.453-.89c.008-.06.07-.077.165-.065a.687.687,0,0,1,.2.049,9.335,9.335,0,0,0,1.984.4c1.477.18,3.47.3,5.518.466Zm-.575-4.617c.627.016.279-.208,1.149-.1.656.08.8.314.782.434-.018.143-.223.238-.544.2-.286-.047-.63-.089-.989-.132-.857-.1-1.8-.2-2.161-.227a.367.367,0,0,1,.091.253c-.012.1-.1.145-.126.239,1.245.3,1.745,1.059,1.663,1.738s-.868,1.37-2.226,1.205c-1.335-.163-2.01-.982-1.917-1.745.078-.644.693-1.222,1.882-1.258a.229.229,0,0,0,.208-.217.413.413,0,0,0-.055-.237c-.644-.078-1.329-.113-1.927-.173-.377.026-.428.141-.6.121s-1.066-.481-1.04-.695c.005-.036.055-.054.151-.043.059.008.141.03.235.053a12.768,12.768,0,0,0,1.668.3C298.57,200.272,300.824,200.438,301.463,200.455Zm-2.756,5.76a.443.443,0,0,0-.107-.316.27.27,0,0,1-.1-.181c.005-.048.058-.077.165-.065.25.031.744.345.726.5-.014.107-.157.186-.209.325,1.195.315,1.654,1.108,1.564,1.847a1.956,1.956,0,0,1-2.382,1.488c-1.406-.17-2.066-1.109-1.958-1.991.091-.751.8-1.45,2.109-1.437A.185.185,0,0,0,298.707,206.215Zm-1.638,1.627c-.075.619.362,1.3,1.4,1.428a1.331,1.331,0,0,0,1.64-1.059c.073-.6-.352-1.276-1.341-1.4C297.729,206.688,297.142,207.246,297.069,207.842Zm.731-5.51c-.065.536.346,1.13,1.3,1.246,1,.122,1.579-.352,1.643-.889s-.382-1.134-1.383-1.256C298.407,201.317,297.865,201.795,297.8,202.332Zm1.22-2.864a2.017,2.017,0,0,1-1.156-.842c.006-.047.054-.053.138-.043a1.077,1.077,0,0,1,.259.056,11.242,11.242,0,0,0,2.3.5c.309.037.439.162.424.281s-.211.241-.593.206Z" fill="#1a1818"/>
      <path id="패스_14" data-name="패스 14" d="M309.746,207.953a10.429,10.429,0,0,0,4.424-3.764c.042-.175-.371-.658-.669-.9-.059-.063-.147-.159-.133-.217s.108-.085.353-.026a4.014,4.014,0,0,1,1.364.987.213.213,0,0,1,.08.23,10.23,10.23,0,0,1-1.1,1.374c.312.545.594,1.058.879,1.461s.706.345.906,1.456a1.2,1.2,0,0,1,.005.483c-.045.186-.164.268-.292.237-.152-.037-.331-.216-.446-.553-.177-.389-.92-2-1.336-2.832a10.34,10.34,0,0,1-4.292,2.314c-.023-.006-.032-.02-.029-.032C309.471,208.121,309.563,208.044,309.746,207.953Zm9.229-4.224c.03-.228-.251-.592-.845-1.045-.15-.1-.226-.191-.211-.249s.147-.1.421-.059a7.668,7.668,0,0,1,1.332.72c.157.112.173.2.147.307s-.081.179-.112.306l-1.683,6.864c-.522,2.145-.663,2.42-.981,2.812-.115.119-.214.17-.284.153-.093-.023-.129-.18-.041-.541Z" fill="#1a1818"/>
      <path id="패스_15" data-name="패스 15" d="M323.88,206.7c-.029-.137-.24-.335-.6-.6-.1-.073-.2-.157-.177-.225.016-.045.126-.071.418-.035a7.056,7.056,0,0,1,1.255.631c.874.3,1.6.536,2.622.82a3.849,3.849,0,0,1,.777.176c.386.132.48.228.453.307-.038.114-.347.2-.427.361l-1.381,2.52c.3.192.457.372.426.462-.047.137-.444,0-.683-.081-.7-.24-2.357-.741-2.94-.927-.077.113-.354.551-.569.477-.114-.038-.039-.33.144-1.015Zm.509,6.2c.055-.235-.171-.426-.688-.805-.117-.066-.181-.138-.162-.195s.13-.083.406-.039a9.938,9.938,0,0,1,1.2.5c.176.112.2.184.168.286-.024.068-.092.159-.139.295-.17.5-.38,1.112-.512,1.536-.085.25.027.4.417.561l2.381.787c.87.234.551-.166,1.572.182.364.124.829.321.709.673a.284.284,0,0,1-.391.145l-4.417-1.508c-.745-.267-1.115-.6-.952-1.186Zm.492-6.044c-.122.022-.2-.054-.282.158l-.832,2.809a8.667,8.667,0,0,0,2.654.728c.25-.548.738-1.9,1.094-2.871Zm6.068.716c.028-.155-.318-.628-.729-.984-.17-.134-.238-.233-.218-.29s.171-.055.447.026a4.886,4.886,0,0,1,1.076.672c.3.214.347.321.309.435-.027.079-.107.166-.158.313l-1.639,4.764a6.611,6.611,0,0,1-.724,1.528c-.192.226-.363.319-.465.285s-.127-.221,0-.585Z" fill="#1a1818"/>
      <path id="패스_16" data-name="패스 16" d="M342.617,212.372c.1-.284-.226-.731-.623-1.169-.19-.163-.277-.294-.253-.349s.159-.061.4.035c.1.044,1.561.982,1.419,1.3a2.762,2.762,0,0,0-.174.277l-3.025,6.786c-.677,1.526-1.317,2.555-1.6,2.428-.12-.054-.134-.23.12-.892l1.27-2.864a32.69,32.69,0,0,1-5.648-1.088c-.358-.053-.454.075-.662-.018-.241-.107-1.338-1.276-1.236-1.506.02-.044.069-.036.156,0a1.367,1.367,0,0,1,.227.14,5.1,5.1,0,0,0,.938.521,29.664,29.664,0,0,0,6.318,1.74Zm-4.407-1.43c.264.117.4-.035.42-.089a.4.4,0,0,0,.013-.205.445.445,0,0,1-.044-.256c.019-.044.073-.046.16-.007.362.16.546.517.487.649-.049.11-.181.169-.278.271a2.051,2.051,0,0,1,.934,2.541,2.158,2.158,0,0,1-2.959.867,2.186,2.186,0,0,1-1.424-2.825A2.1,2.1,0,0,1,338.21,210.942Zm-2.021,1.27a1.691,1.691,0,0,0,3.072,1.363,1.691,1.691,0,0,0-3.072-1.363Z" fill="#1a1818"/>
      <path id="패스_17" data-name="패스 17" d="M353.2,219.384c.5.214.366-.146,1.192.345.371.221.456.453.377.587-.068.114-.27.147-.513.017-.745-.415-1.261-.722-1.807-.977a.61.61,0,0,1-.031.428c-.056.093-.148.108-.214.2.952.817,1.075,1.714.707,2.333a1.831,1.831,0,0,1-2.59.316,1.858,1.858,0,0,1-.931-2.494,1.729,1.729,0,0,1,2.3-.462.285.285,0,0,0,.285-.125.785.785,0,0,0,.046-.4c-.374-.195-.54-.293-.991-.519-.258-.084-.338-.019-.441-.081s-.653-.779-.555-.944c.019-.032.056-.023.128.02a2.02,2.02,0,0,1,.173.131,6.77,6.77,0,0,0,.8.548c.433.258.977.539,1.949,1.019Zm-3.226,1.083a1.435,1.435,0,0,0,2.423,1.441,1.433,1.433,0,0,0-2.423-1.441Zm2.739,4.338a.294.294,0,0,0,.379-.1.243.243,0,0,0,.03-.192.275.275,0,0,1-.016-.232c.019-.031.052-.039.1-.009s.529.5.425.671c-.049.083-.2.12-.308.236a1.849,1.849,0,1,1-2.149,2.981,2.041,2.041,0,0,1-1.046-2.772A1.985,1.985,0,0,1,352.714,224.8Zm-1.974.878a1.473,1.473,0,0,0,.712,2.044,1.406,1.406,0,1,0,1.429-2.4A1.48,1.48,0,0,0,350.74,225.683Zm1.691-7.539a2.092,2.092,0,0,1-.506-1.1c.017-.031.054-.023.117.014a1.546,1.546,0,0,1,.219.171,7,7,0,0,0,.988.686c.155.092.341.2.573.327.278.193.359.408.291.522s-.317.133-.705-.084Zm3.174,1.776c.115-.239-.088-.556-.349-.962-.068-.1-.152-.215-.12-.267s.137-.044.414.079c.925.815,1.024,1,.938,1.145-.037.061-.11.115-.166.208l-1.4,2.362,1.313.725,1.546-2.6a1.77,1.77,0,0,0-.457-1.11c-.083-.119-.142-.252-.106-.314s.165-.042.432.118c.993.939,1.1,1.183,1,1.348-.049.082-.139.14-.2.243l-2.527,4.11c-.412.621-.812.872-.956.786-.1-.061-.088-.275.133-.646l.971-1.657-1.314-.725-.557.841c-.34.455-.684.612-.829.526-.1-.061-.116-.25.056-.539Z" fill="#1a1818"/>
      <path id="패스_18" data-name="패스 18" d="M363.187,224.358c.13-.2-.1-.533-.392-.933-.1-.131-.149-.225-.113-.274s.157-.034.409.088a5.789,5.789,0,0,1,.876.838c.162.206.161.309.1.387s-.128.116-.183.193l-.387.536,3.192,2.242.5-.691c.093-.17-.079-.546-.348-.932-.1-.147-.144-.252-.109-.3s.151-.024.369.1a4.638,4.638,0,0,1,.926.993c.1.147.089.226.039.295s-.141.134-.235.244c-1.518,2.043-1.734,2.345-2.258,2.619a.4.4,0,0,1-.333.011c-.078-.056-.076-.2.112-.526l-1.347-.942a8.178,8.178,0,0,1-.965,1.154,24.287,24.287,0,0,0,2.266,1.515c.48.258.512.089.97.419.243.175,1.033.744.808,1.056-.092.126-.322.137-.546-.024-.029-.021-.052-.052-.08-.073-.474-.37-1.374-1.049-2.406-1.793-1.325-.955-2.864-2.021-4-2.662-.371-.164-.509-.115-.685-.242-.194-.14-.975-1.295-.849-1.47.029-.039.082-.03.169.033a.8.8,0,0,1,.129.108,14.232,14.232,0,0,0,1.959,1.634c.545.393,1.144.795,1.746,1.17.245-.4.523-.807.843-1.271L362.11,227c-.218.242-.6.381-.736.283s-.014-.35.306-.815Zm.222,7.9c-.614-.4-2.214-1.464-3.32-2.188-.374-.24-.53-.146-.735-.293a2.578,2.578,0,0,1-.666-1.19c.021-.029.074-.021.171.049a.865.865,0,0,1,.129.109,12.24,12.24,0,0,0,1.385,1.116c.905.653,1.982,1.355,2.809,1.892.25.165.291.047.6.272l.127.091c.356.286.411.415.355.493s-.231.115-.322.241a12.479,12.479,0,0,1-1.911,2.321c-.274.217-.529.284-.637.207-.087-.063-.078-.219.1-.463Zm-.1-6.8-.974,1.31L365.564,229l.941-1.3Z" fill="#1a1818"/>
      <path id="패스_19" data-name="패스 19" d="M368.092,238c.085-.117-.05-.328-.279-.669-.066-.088-.124-.186-.092-.223s.291.03.454.171a4.989,4.989,0,0,1,.851.942c.845.729,1.323,1.094,2.208,1.812.244.178.3.182.571.35.191-.167.507-.514.917-.952-.616-.5-1.819-1.492-2.73-2.2-.31-.173-.434-.122-.589-.255-.181-.157-.63-1.051-.535-1.16.024-.027.075-.014.166.064a1.152,1.152,0,0,1,.129.127,16.123,16.123,0,0,0,1.223,1.136c.717.619,1.576,1.313,2.331,1.871a.969.969,0,0,1,.371.193c.581.5.495.6.464.639-.064.072-.232.1-.346.161-.343.195-.841.478-1.035.612.205.257.254.458.191.53s-.211.024-.42-.156c-.7-.578-2.071-1.695-3.03-2.475-.13-.034-.194-.105-.281-.005l-.682.789c-.149.173-.09.288.046.4.182.157.438.394.755.668.445.384,1,.846,1.541,1.3.6.406.567.077,1.13.564.255.219.708.611.48.875-.093.109-.3.106-.5-.066l-3.586-3.1c-.663-.573-.6-.934-.377-1.2Zm7.894,2.222c-.441-.444-1.033-.988-1.641-1.514-.708-.611-1.433-1.205-1.9-1.579-.6-.466-2.362-1.817-2.767-2.137-.3-.225-.416-.1-.58-.247a3.407,3.407,0,0,1-.681-1.523c.023-.028.083-.024.165.047a.973.973,0,0,1,.149.176,11.8,11.8,0,0,0,1.538,1.487c1.261,1.09,3.058,2.516,4.59,3.7.487.373.539.148,1.029.572.436.376.849.8.614,1.07a.347.347,0,0,1-.486-.024Zm-.226-6.823c.993,1.127.952,2.2.395,2.847-.589.681-1.863.816-3.034-.2-1.189-1.027-1.252-2.349-.608-3.094a1.955,1.955,0,0,1,2.63-.09.252.252,0,0,0,.356-.009.314.314,0,0,0,.076-.235.335.335,0,0,1,.036-.207c.032-.036.084-.023.148.032.172.149.434.6.317.734-.063.072-.2.082-.285.182Zm-2.742.073a1.787,1.787,0,0,0,2.642,2.282,1.557,1.557,0,0,0-.409-2.224A1.522,1.522,0,0,0,373.018,233.473Z" fill="#1a1818"/>
      <path id="패스_20" data-name="패스 20" d="M389.318,247.41c.153-.189-.047-.835-.213-1.335-.07-.147-.1-.284-.053-.325s.152.007.348.186c.857,1.379.871,1.643.72,1.781-.053.048-.122.079-.184.136l-5.927,5.361c-.752.688-1.769,1.408-1.963,1.2-.1-.107-.015-.247.475-.778l3.178-2.925c-.654-.377-2.009-1.236-3.211-2.1a10.978,10.978,0,0,1-2.4,1.907c-.32.13-.533.146-.6.075s.02-.245.285-.505l2.125-1.961c-.32-.244-.657-.505-1.027-.785-.3-.183-.428-.112-.558-.253-.145-.16-.74-1.7-.581-1.844.036-.032.094,0,.175.084a1.3,1.3,0,0,1,.121.15,5.4,5.4,0,0,0,.675.862,27.931,27.931,0,0,0,5.182,4.22Zm-3.3-3.127c.1.106.239.172.327.091a.4.4,0,0,0,.105-.259.245.245,0,0,1,.059-.184c.035-.033.086-.013.142.049.121.132.337.635.169.789-.071.064-.189.059-.276.106a1.839,1.839,0,1,1-2.941,2.172c-1-1.089-.911-2.274-.229-2.9A2.027,2.027,0,0,1,386.017,244.283Zm-2.154.313a1.625,1.625,0,1,0,2.12.255A1.445,1.445,0,0,0,383.863,244.6Z" fill="#1a1818"/>
      <path id="패스_21" data-name="패스 21" d="M388.211,258.076c.167-.158.1-.45-.09-.989-.08-.164-.1-.3-.048-.34s.16.013.347.218a9.088,9.088,0,0,1,.712,1.072c.084.208.065.282-.021.348-.057.043-.165.08-.269.16l-1.078.823c-.229.174-.23.371.017.695l1.584,2.036c.515.634.546.142,1.18.972.182.238.567.743.271.969-.124.1-.356.046-.545-.2l-2.752-3.605c-.488-.638-.6-1.175-.147-1.517Zm5.741-2.345c.513.454.486.082,1.092.857.245.341.235.6.112.7s-.339.031-.535-.226c-.628-.8-1.231-1.535-1.663-2.021-.058.3-.114.4-.171.448s-.125.034-.218.091a1.9,1.9,0,0,1-.2,2.583c-.734.56-1.894.4-2.747-.711-.909-1.192-.648-2.373.01-2.875.62-.473,1.609-.443,2.574.526a.336.336,0,0,0,.272-.041.547.547,0,0,0,.169-.371,11.345,11.345,0,0,0-1.005-1.119c-.184-.162-.3-.152-.384-.266a2.539,2.539,0,0,1-.187-1.291c.03-.022.077,0,.143.087.036.048.078.122.127.205a10.317,10.317,0,0,0,.931,1.418C392.736,254.335,393.173,254.847,393.952,255.731Zm-3.847-.611a1.567,1.567,0,1,0,1.989.43A1.383,1.383,0,0,0,390.105,255.12Zm6.782,1.767c.105-.08.088-.459-.1-1.22-.061-.18-.062-.3-.024-.329.056-.044.182.041.366.263.029.038.864,1.468.55,1.709-.067.051-.172.071-.268.144l-3,2.275c.112.126.219.287.347.415.421.373.449.035,1.01.769.145.191.415.544.157.74a.318.318,0,0,1-.449-.094l-1.32-1.65a10.87,10.87,0,0,1-2.546,1.687c-.247.052-.469.056-.535-.03s.005-.23.313-.48Zm-3.344-3.334a1.949,1.949,0,0,1-.061-1.206c.03-.022.053-.01.1.057a1.428,1.428,0,0,1,.139.241,13.422,13.422,0,0,0,1.26,1.77c.178.272.182.5.078.575s-.354.012-.639-.343Z" fill="#1a1818"/>
      <path id="패스_22" data-name="패스 22" d="M397.772,271.242c.2-.143.147-.436,0-1.061-.046-.126-.048-.223,0-.253s.153.021.335.235a9.54,9.54,0,0,1,.588,1.158c.063.2.036.272-.057.327-.062.037-.173.061-.3.134-.455.269-1.013.6-1.389.837-.227.134-.24.323-.047.7l1.3,2.147c.511.744.528.232,1.079,1.162.195.33.422.782.1.972a.285.285,0,0,1-.393-.144l-2.38-4.019c-.393-.688-.461-1.178.048-1.521Zm3.639-3.635c-.181-.186-.3-.156-.388-.3a2.693,2.693,0,0,1-.151-1.363c.031-.018.083.022.149.135.043.072.088.171.145.291.12.25.406.779.742,1.347.392.661.841,1.372,1.168,1.806.131.174.121.04.335.4.068.114.337.568.193.654-.063.036-.184,0-.32-.091a14.428,14.428,0,0,1-2.211-.364c-.434,1.457.052,1.476-.594,2.459a.72.72,0,0,1-.237.237c-.154.092-.29.075-.357-.039a.477.477,0,0,1,.022-.432,19.758,19.758,0,0,0,.856-2.349,12.054,12.054,0,0,1-3.987-2.09.891.891,0,0,1-.2-.19c-.024-.041-.026-.068-.006-.08s.13.006.278.114a12.308,12.308,0,0,0,5.915,1.953C402.387,269.066,401.8,268.118,401.411,267.607Zm4.794,3.9c.289-.171.272-.718.223-1.248-.018-.171-.037-.369.025-.4s.149.037.334.3a4.83,4.83,0,0,1,.352,1.229c.072.334.015.451-.088.512-.082.049-.194.074-.314.13l-4.624,2.725a4.739,4.739,0,0,1-2.249.914.183.183,0,0,1-.139-.071c-.074-.124.189-.363.684-.657l2.5-1.481-.5-.75c-.241-.29-.358-.276-.444-.42s-.209-.895-.054-.987c.03-.018.092.015.166.139.036.062.222.4.271.481.318.537.627,1.011.861,1.36Zm-2.923-3.92a2.907,2.907,0,0,1,.037-1.376c.032-.018.06.007.1.069a.834.834,0,0,1,.079.2,14.345,14.345,0,0,0,1.065,2.175c.12.25.067.42-.046.487a.266.266,0,0,1-.334-.067c-.072-.1-.218-.346-.377-.614Z" fill="#1a1818"/>
      <path id="패스_23" data-name="패스 23" d="M403.623,281.587c.2-.109.18-.4.078-1.035-.024-.135-.022-.242.031-.268s.156.046.318.274a8.993,8.993,0,0,1,.472,1.185c.05.215.006.29-.091.337-.077.036-.173.055-.3.1-.478.227-1.116.532-1.49.724-.245.13-.275.318-.116.707l.958,1.95c.453.782.516.273.977,1.237.171.358.345.833.019.989a.286.286,0,0,1-.378-.179l-1.867-3.911c-.336-.731-.354-1.215.167-1.517Zm5.236-3.551c.116.158.237.273.367.211a.456.456,0,0,0,.17-.2c.029-.134.063-.2.106-.224s.075.018.121.115c.155.325.157.8,0,.881-.119.057-.29-.022-.43.019a2.221,2.221,0,0,1-1,2.7,2.313,2.313,0,0,1-3.014-1.354c-.714-1.495-.223-2.807.8-3.294C406.814,276.484,407.97,276.731,408.859,278.036Zm2.926,4.151c.119-.058.18-.432.152-1.217-.024-.188,0-.306.042-.326.066-.032.171.078.306.333.021.043.545,1.615.188,1.786-.076.036-.183.034-.291.086l-3.408,1.613c.083.147.156.325.254.477.336.452.433.126.831.96.1.217.295.618,0,.758a.319.319,0,0,1-.421-.185l-.954-1.886a10.826,10.826,0,0,1-2.84,1.129c-.251,0-.471-.04-.517-.138s.052-.224.4-.406Zm-5.49-4.616a1.66,1.66,0,0,0-.671,2.355,1.636,1.636,0,1,0,2.937-1.4A1.676,1.676,0,0,0,406.3,277.571Z" fill="#1a1818"/>
      <path id="패스_24" data-name="패스 24" d="M416.633,294.373c.273-.128.364-.674.4-1.264-.016-.25.016-.4.072-.424s.155.07.258.314c.038.1.391,1.8.065,1.923a2.839,2.839,0,0,0-.321.068l-6.965,2.586c-1.563.584-2.746.846-2.856.553-.046-.123.07-.256.722-.538l2.935-1.1a32.72,32.72,0,0,1-3.174-4.8c-.211-.292-.371-.272-.451-.485-.091-.248-.023-1.849.213-1.937.045-.017.073.024.107.114a1.4,1.4,0,0,1,.058.26,5.2,5.2,0,0,0,.283,1.034,29.759,29.759,0,0,0,3.177,5.733Zm-2.061-4.151c.1.27.3.259.358.238a.386.386,0,0,0,.155-.134.457.457,0,0,1,.151-.211c.046-.017.085.02.118.11.139.371.012.752-.123.8a1.242,1.242,0,0,1-.387-.009,2.053,2.053,0,0,1-1.163,2.445,2.159,2.159,0,0,1-2.69-1.507,2.188,2.188,0,0,1,1.022-3A2.1,2.1,0,0,1,414.572,290.222Zm-2.321-.556a1.691,1.691,0,1,0,2,1.061A1.539,1.539,0,0,0,412.251,289.666Z" fill="#1a1818"/>
      <path id="패스_25" data-name="패스 25" d="M414.431,309.027a.439.439,0,0,0,.257-.21c.041-.084.088-.145.135-.156s.093.027.118.131c.06.246-.061.817-.212.854-.106.026-.23-.08-.378-.081a1.763,1.763,0,0,1-1.179,2.112,1.955,1.955,0,0,1-2.228-1.707,1.918,1.918,0,0,1,1.177-2.531c.734-.178,1.639.245,2.083,1.47A.185.185,0,0,0,414.431,309.027Zm-2.1-.961a1.361,1.361,0,0,0-.846,1.809,1.259,1.259,0,1,0,2.4-.581C413.645,308.28,412.917,307.925,412.334,308.066Zm4.334,3.678c.2.58.354.444.5,1.039.122.5.245,1.163-.128,1.253-.151.037-.325-.069-.382-.3l-.006-.023c-.1-.655-.256-1.418-.434-2.153-.433-1.784-1.045-3.906-1.646-5.723-.139-.324-.288-.325-.339-.535s.09-1.614.324-1.67c.058-.014.1.038.118.132a.624.624,0,0,1,.024.2,9.321,9.321,0,0,0,.324,2c.349,1.446.935,3.353,1.5,5.327Zm4.118-2.158c.2.593.292.189.5,1.04.155.641-.014.855-.132.883-.139.034-.3-.124-.378-.439-.055-.282-.137-.621-.222-.97-.2-.84-.449-1.755-.546-2.1a.364.364,0,0,1-.2.173c-.094.023-.172-.045-.268-.034.159,1.27-.379,2.005-1.043,2.166s-1.586-.332-1.908-1.661c-.316-1.306.215-2.224.961-2.4.629-.152,1.386.22,1.837,1.32a.228.228,0,0,0,.275.118.393.393,0,0,0,.2-.135c-.152-.629-.36-1.283-.512-1.863-.158-.344-.283-.351-.323-.514s.077-1.166.286-1.217c.035-.008.07.033.092.126a2.3,2.3,0,0,1,.034.239,12.568,12.568,0,0,0,.3,1.666C419.942,306.816,420.578,308.983,420.786,309.586Zm-3.04-2.768c-.524.127-.936.72-.711,1.653.237.979.884,1.353,1.408,1.226s.928-.755.691-1.735C418.908,307.03,418.271,306.69,417.746,306.818Zm3.106.136a2.031,2.031,0,0,1,.382-1.376c.047-.011.07.032.09.114a1.127,1.127,0,0,1,.038.262,11.273,11.273,0,0,0,.341,2.324c.073.3,0,.469-.114.5s-.3-.113-.4-.483Z" fill="#1a1818"/>
      <path id="패스_26" data-name="패스 26" d="M423.862,327.157c.224-.051.467-.442.684-1.157.04-.174.1-.277.159-.285s.146.1.2.375a7.636,7.636,0,0,1-.208,1.5c-.051.188-.13.233-.237.246s-.194-.013-.325,0l-7.022.824c-2.192.261-2.5.225-2.977.064-.153-.066-.235-.141-.242-.213-.012-.1.123-.183.492-.227Zm-7.187-7.169a10.44,10.44,0,0,0,5.075,2.828c.179-.021.486-.578.612-.943.039-.077.1-.193.158-.2s.117.071.147.321a4.006,4.006,0,0,1-.447,1.624.213.213,0,0,1-.187.155,10.387,10.387,0,0,1-1.674-.55c-.4.483-.783.927-1.061,1.336s-.076.782-1.047,1.357a1.211,1.211,0,0,1-.45.174c-.191.023-.31-.06-.325-.191a.783.783,0,0,1,.362-.611c.3-.3,1.555-1.563,2.186-2.242a10.363,10.363,0,0,1-3.67-3.213c0-.024.008-.038.02-.039C416.422,319.789,416.525,319.849,416.675,319.988Z" fill="#1a1818"/>
      <path id="패스_27" data-name="패스 27" d="M417.188,335.427c.239-.031.337-.311.51-.928.02-.133.066-.219.125-.221s.123.093.18.367a9.688,9.688,0,0,1-.043,1.3c-.041.205-.1.255-.208.259-.071,0-.181-.031-.324-.026-.529.016-1.176.037-1.619.063-.264.009-.368.168-.378.589l.1,2.505c.088.9.351.458.385,1.537.012.384-.008.888-.38.9-.132,0-.267-.1-.273-.316l-.149-4.665c-.014-.792.164-1.254.775-1.31Zm7.3,4.258c.156-.029.476-.519.663-1.03.066-.206.135-.3.195-.306s.113.14.133.428a4.894,4.894,0,0,1-.248,1.244c-.1.352-.178.438-.3.442-.084,0-.2-.042-.35-.037l-5.038.148a6.547,6.547,0,0,1-1.685-.138c-.279-.1-.427-.227-.431-.334s.162-.2.546-.21Zm-1.684-6.922a1.56,1.56,0,0,0,.347-.767c.033-.121.076-.243.149-.245.048,0,.11.093.179.378a7.091,7.091,0,0,1-.147,1.4c.029.923.065,1.69.159,2.744a3.86,3.86,0,0,1,.11.789c.012.408-.044.529-.127.532-.121,0-.309-.254-.49-.273l-2.845-.4c-.074.351-.187.558-.284.561-.143.005-.157-.415-.165-.667-.023-.744-.138-2.469-.17-3.08-.132-.032-.64-.136-.647-.363,0-.12.3-.154,1-.224Zm.211.99c-.064-.106-.019-.2-.246-.208l-2.923.213a8.7,8.7,0,0,0,.255,2.741c.6.041,2.042.019,3.074.01Z" fill="#1a1818"/>
      <path id="패스_28" data-name="패스 28" d="M424.105,352.287c.3-.008.6-.471.874-1,.084-.235.175-.362.236-.359s.112.127.11.391c-.007.108-.366,1.805-.714,1.786a2.793,2.793,0,0,0-.32-.066l-7.414-.428c-1.665-.093-2.854-.328-2.836-.639.008-.132.168-.207.877-.2l3.126.176a32.8,32.8,0,0,1-.98-5.666c-.077-.353-.23-.4-.217-.625.014-.264.72-1.7.971-1.688.048,0,.058.051.052.147a1.241,1.241,0,0,1-.051.261,5.173,5.173,0,0,0-.155,1.061,29.763,29.763,0,0,0,.607,6.522Zm-.221-4.627c-.016.288.172.359.232.361a.38.38,0,0,0,.2-.061.448.448,0,0,1,.223-.131c.048,0,.069.052.064.148-.022.4-.291.692-.435.684-.12-.007-.222-.108-.351-.163a2.052,2.052,0,0,1-2.046,1.771,2.158,2.158,0,0,1-1.857-2.459,2.186,2.186,0,0,1,2.138-2.331C422.922,345.527,423.748,346.223,423.884,347.66Zm-1.9-1.44a1.69,1.69,0,1,0,1.4,1.773A1.538,1.538,0,0,0,421.982,346.22Z" fill="#1a1818"/>
      <path id="패스_29" data-name="패스 29" d="M416.068,366.14a.293.293,0,0,0,.224.32.242.242,0,0,0,.19-.04.275.275,0,0,1,.212-.1c.035.007.055.034.045.094s-.276.67-.477.635c-.1-.017-.183-.142-.33-.2a1.85,1.85,0,1,1-3.551-.952c.26-1.479,1.3-2.125,2.222-1.963A1.989,1.989,0,0,1,416.068,366.14Zm-1.522-1.535A1.472,1.472,0,0,0,412.888,366a1.406,1.406,0,1,0,2.755.483A1.482,1.482,0,0,0,414.546,364.605Zm7.118,2.5c.264.022.487-.28.775-.668.066-.1.148-.218.207-.208s.09.114.074.415c-.435,1.155-.573,1.314-.738,1.285-.071-.013-.147-.062-.253-.081l-2.708-.476-.212,1.487,2.979.523c.209-.012.575-.362.876-.822.082-.119.186-.223.256-.211s.1.14.044.447c-.526,1.261-.717,1.447-.906,1.413-.1-.016-.181-.08-.3-.1l-4.741-.9c-.727-.164-1.1-.45-1.075-.615.021-.118.227-.18.653-.1l1.894.32.212-1.486-.985-.222c-.545-.157-.816-.424-.786-.589.02-.118.193-.2.524-.14Zm-.352-2.439c-.023.545.265.291.1,1.237-.074.425-.262.588-.415.561-.13-.023-.233-.2-.2-.474.124-.844.227-1.434.272-2.037a.616.616,0,0,1-.412.124c-.106-.019-.153-.1-.258-.131-.425,1.181-1.221,1.614-1.93,1.489a1.83,1.83,0,0,1-1.216-2.31,1.858,1.858,0,0,1,2-1.757c.686.121,1.278.773,1.249,1.987.048.142.122.2.217.221a.769.769,0,0,0,.4-.1c.049-.417.082-.607.134-1.11-.014-.27-.1-.322-.081-.441s.5-.887.686-.854c.036.006.041.043.027.126a2.036,2.036,0,0,1-.061.209,6.772,6.772,0,0,0-.227.947c-.087.5-.158,1.106-.262,2.185Zm-2.159-2.633c-.58-.1-1.228.259-1.39,1.182a1.19,1.19,0,1,0,1.39-1.182Zm3.045,1.472c.033-.189.693-.89.846-.863.035.006.041.044.028.115a1.4,1.4,0,0,1-.083.266,7.276,7.276,0,0,0-.29,1.168c-.031.177-.068.39-.1.652-.081.327-.255.48-.385.457s-.236-.249-.172-.689Z" fill="#1a1818"/>
      <path id="패스_30" data-name="패스 30" d="M412.883,378.789c.155-.716.584-2.588.868-3.877.092-.435-.052-.548.014-.791a2.568,2.568,0,0,1,.877-1.044c.034.009.045.062.013.178a.925.925,0,0,1-.054.159,11.979,11.979,0,0,0-.554,1.689c-.289,1.077-.565,2.332-.774,3.294-.066.292.059.289-.041.66l-.04.15c-.141.434-.242.531-.335.506s-.188-.175-.338-.215a12.5,12.5,0,0,1-2.846-.964c-.3-.18-.453-.394-.419-.522.028-.1.178-.151.467-.073Zm7.3-3.005c.235.051.461-.285.734-.7.087-.138.157-.218.216-.2s.088.136.062.415a5.766,5.766,0,0,1-.473,1.114c-.135.225-.232.261-.325.236s-.152-.078-.245-.1l-.636-.171-.966,3.776.822.221c.191.026.481-.268.747-.656.1-.147.185-.224.242-.208s.077.132.034.382a4.662,4.662,0,0,1-.6,1.216c-.1.147-.181.163-.262.142s-.176-.085-.311-.134c-2.447-.7-2.806-.791-3.246-1.183a.394.394,0,0,1-.129-.307c.025-.093.163-.143.531-.082l.4-1.592a8.161,8.161,0,0,1-1.42-.494,24.127,24.127,0,0,0-.614,2.654c-.07.54.1.511-.047,1.056-.078.289-.33,1.227-.7,1.127-.15-.04-.242-.251-.171-.518.009-.034.03-.066.039-.1.179-.572.495-1.655.825-2.882.423-1.576.874-3.392,1.072-4.68.021-.4-.073-.516-.017-.724.063-.232.865-1.37,1.073-1.314.047.012.058.065.03.169a.87.87,0,0,1-.056.159,14.179,14.179,0,0,0-.833,2.409c-.175.648-.338,1.35-.476,2.045.461.087.94.2,1.487.338l.36-1.481c-.3-.118-.568-.425-.524-.588s.322-.136.87,0Zm-.981.507-1.568-.447-.948,3.806,1.551.417Z" fill="#1a1818"/>
      <path id="패스_31" data-name="패스 31" d="M409.162,385.2c.139.038.289-.162.527-.5.06-.093.131-.181.176-.165s.075.283,0,.485a4.9,4.9,0,0,1-.58,1.129c-.385,1.048-.557,1.623-.917,2.705-.08.29-.063.348-.126.657.225.12.659.293,1.214.522.251-.751.755-2.227,1.1-3.329.053-.351-.039-.449.031-.641.082-.225.762-.96.9-.91.034.012.04.066,0,.178a1.086,1.086,0,0,1-.074.165,16.568,16.568,0,0,0-.631,1.545c-.327.889-.672,1.937-.928,2.841a.978.978,0,0,1-.05.416c-.265.721-.389.675-.434.659-.09-.034-.176-.181-.273-.267-.3-.252-.744-.618-.938-.753-.168.283-.337.4-.427.367s-.1-.189,0-.449c.292-.863.854-2.535,1.247-3.708-.016-.133.029-.219-.1-.264l-.979-.36c-.215-.079-.3.018-.364.186-.082.226-.214.548-.358.942-.2.552-.44,1.232-.672,1.9-.169.7.127.558-.129,1.256-.116.316-.322.879-.649.759-.135-.05-.205-.242-.115-.489l1.634-4.449c.3-.822.66-.894.988-.775Zm.706,8.17c.26-.57.56-1.316.837-2.07.322-.879.622-1.765.807-2.337.226-.721.867-2.85,1.023-3.343.106-.357-.048-.426.027-.629.1-.27,1.027-1.233,1.185-1.175.033.013.051.07.014.171a.961.961,0,0,1-.113.2,11.766,11.766,0,0,0-.848,1.963c-.575,1.565-1.275,3.749-1.839,5.6-.178.586.051.555-.172,1.163-.2.541-.446,1.076-.784.952a.347.347,0,0,1-.15-.464Zm6.3-2.618c-.7,1.325-1.724,1.667-2.524,1.373-.844-.31-1.42-1.455-.887-2.908.542-1.475,1.757-2,2.68-1.661a1.954,1.954,0,0,1,1.012,2.429.255.255,0,0,0,.135.331.316.316,0,0,0,.247-.012.336.336,0,0,1,.206-.039c.045.017.051.07.022.149-.079.214-.406.618-.575.556-.09-.033-.147-.156-.27-.2Zm-1.035-2.541c-.664-.244-1.52.068-1.921,1.161a1.517,1.517,0,0,0,.718,2.116,1.556,1.556,0,0,0,1.936-1.167A1.521,1.521,0,0,0,415.136,388.209Z" fill="#1a1818"/>
      <path id="패스_32" data-name="패스 32" d="M407.821,408.387c.23.077.765-.338,1.175-.668.113-.117.233-.192.286-.164s.047.145-.052.391c-.991,1.287-1.234,1.392-1.416,1.3-.064-.033-.117-.087-.192-.125l-7.1-3.671c-.91-.463-1.941-1.163-1.81-1.42.065-.128.227-.1.895.173l3.856,1.951c.124-.746.452-2.316.844-3.747a10.951,10.951,0,0,1-2.629-1.581c-.235-.254-.324-.448-.281-.534s.237-.068.574.09l2.583,1.3c.115-.386.242-.793.374-1.238.067-.343-.045-.44.042-.612.1-.192,1.33-1.289,1.523-1.191.042.022.036.086-.017.193a1.256,1.256,0,0,1-.1.166,5.457,5.457,0,0,0-.57.935,27.907,27.907,0,0,0-2.135,6.335Zm1.77-4.191c-.065.129-.077.284.03.339a.4.4,0,0,0,.279.007.248.248,0,0,1,.194-.009c.042.022.042.075,0,.151-.082.16-.477.538-.68.435-.086-.044-.122-.157-.2-.222a1.84,1.84,0,1,1-3.067-1.993c.67-1.316,1.811-1.651,2.634-1.231A2.026,2.026,0,0,1,409.591,404.2Zm-1.049-1.907a1.625,1.625,0,1,0,.506,2.075A1.445,1.445,0,0,0,408.542,402.289Z" fill="#1a1818"/>
      <path id="패스_33" data-name="패스 33" d="M397.47,411.068c.206.1.454-.069.892-.431.126-.134.25-.2.3-.165s.045.155-.081.4a9.387,9.387,0,0,1-.752,1.043c-.166.15-.242.159-.333.1-.061-.038-.134-.126-.245-.2L396.1,411.1c-.245-.152-.429-.084-.645.261l-1.348,2.2c-.413.7.059.561-.494,1.445-.159.254-.5.792-.811.6-.133-.082-.169-.318,0-.582l2.4-3.841c.427-.681.891-.971,1.368-.672Zm4.162,7.7c.112.07.46-.079,1.106-.524.147-.12.258-.163.3-.138.061.038.026.186-.117.436-.025.041-1.07,1.325-1.4,1.115-.072-.045-.127-.136-.229-.2l-3.184-2.008c-.08.148-.192.3-.267.47-.2.524.126.432-.364,1.214-.127.2-.363.58-.637.408a.317.317,0,0,1-.07-.454l1.08-1.814a10.871,10.871,0,0,1-2.474-1.789c-.136-.212-.218-.42-.161-.511s.218-.076.56.124Zm.05-3.152c-.244.639.093.484-.418,1.323-.233.35-.484.433-.616.351s-.148-.306.024-.58c.53-.87,1-1.692,1.306-2.267-.3.053-.418.036-.48,0s-.076-.1-.161-.171a1.9,1.9,0,0,1-2.487.72c-.784-.49-1.045-1.631-.3-2.82.8-1.27,1.991-1.44,2.692-1,.661.414.981,1.349.414,2.593a.331.331,0,0,0,.133.239.538.538,0,0,0,.407.028,11.261,11.261,0,0,0,.694-1.334c.087-.229.037-.33.113-.452a2.523,2.523,0,0,1,1.144-.628c.03.019.025.072-.033.163a1.964,1.964,0,0,1-.147.191,10.494,10.494,0,0,0-1,1.369C402.56,413.987,402.234,414.575,401.682,415.615ZM400.9,411.8a1.566,1.566,0,1,0,.3,2.011A1.381,1.381,0,0,0,400.9,411.8Zm2.675,2.665a1.953,1.953,0,0,1,1.108-.481c.03.019.027.046-.017.117a1.518,1.518,0,0,1-.177.214,13.363,13.363,0,0,0-1.213,1.8c-.192.261-.4.344-.511.274s-.136-.326.1-.718Z" fill="#1a1818"/>
      <path id="패스_34" data-name="패스 34" d="M388.487,424.653c.2.132.46-.015.993-.372.1-.088.192-.123.239-.086s.033.151-.1.4a9.482,9.482,0,0,1-.878.957c-.165.129-.242.129-.326.061-.056-.045-.117-.14-.229-.231-.412-.331-.917-.737-1.271-1.006-.206-.166-.388-.111-.67.2l-1.554,1.971c-.517.738-.031.575-.708,1.417-.241.3-.584.67-.875.436a.285.285,0,0,1,0-.417l2.926-3.639c.506-.611.942-.845,1.441-.489Zm2.711,7.988c.262.211.769,0,1.247-.23.155-.076.333-.164.389-.119s.017.152-.168.42a4.787,4.787,0,0,1-1.027.761c-.287.184-.417.173-.51.1-.075-.06-.137-.156-.233-.248l-4.172-3.372c-.8-.673-1.518-1.235-1.646-1.785a.185.185,0,0,1,.018-.155c.09-.113.406.05.855.411l2.264,1.82.526-.731c.187-.328.133-.434.238-.565s.764-.509.9-.4c.028.022.018.092-.072.2-.045.056-.3.348-.356.423-.391.486-.726.94-.97,1.283Zm1.969-5.857c.111-.234.04-.338.146-.469.158-.2,1.109-.709,1.221-.619.029.023.01.084-.073.188-.053.065-.13.141-.222.237-.192.2-.587.652-1,1.167-.481.6-.989,1.269-1.28,1.728-.117.182.005.127-.259.454-.082.1-.413.514-.544.409-.056-.045-.061-.172-.027-.33a14.446,14.446,0,0,1-.436-2.2c-1.516.1-1.364.566-2.51.306a.714.714,0,0,1-.3-.137c-.141-.113-.172-.246-.089-.349a.478.478,0,0,1,.412-.13,20.078,20.078,0,0,0,2.5-.023,12.1,12.1,0,0,1,.557-4.466.9.9,0,0,1,.109-.251c.031-.037.055-.049.073-.033s.04.123-.009.3a12.3,12.3,0,0,0,.248,6.222C392.144,428.21,392.824,427.324,393.167,426.784Zm.676,1.745a2.914,2.914,0,0,1,1.3-.449c.027.024.014.059-.031.114a.816.816,0,0,1-.164.147,14.3,14.3,0,0,0-1.661,1.76c-.192.2-.37.211-.473.128a.263.263,0,0,1-.053-.336c.065-.1.246-.326.441-.569Z" fill="#1a1818"/>
      <path id="패스_35" data-name="패스 35" d="M380.858,433.768c.173.149.442.025,1-.291.118-.071.218-.107.262-.065s.012.161-.145.394a9.208,9.208,0,0,1-.943.858c-.183.123-.268.107-.346.032-.061-.057-.114-.141-.2-.242-.38-.365-.891-.856-1.2-1.139-.207-.182-.393-.144-.7.142l-1.487,1.582c-.572.7-.073.579-.814,1.349-.274.286-.658.616-.918.366a.284.284,0,0,1,.035-.416l3-3.124c.565-.571,1.011-.758,1.477-.377Zm2.311,7.847c.1.092.468.017,1.191-.286.168-.089.286-.107.322-.074.051.05-.014.186-.2.4-.035.035-1.321,1.079-1.606.8-.06-.059-.1-.16-.184-.243l-2.708-2.62c-.107.13-.249.259-.356.406-.3.473.034.449-.606,1.115-.166.173-.474.493-.707.269a.316.316,0,0,1,.024-.458l1.429-1.557a10.827,10.827,0,0,1-2.056-2.259c-.09-.236-.128-.456-.053-.534s.229-.03.522.236Zm2.853-4.2c-.106.163-.171.317-.067.417a.445.445,0,0,0,.247.089c.136-.02.212-.013.247.02s.01.077-.065.155c-.249.259-.7.429-.825.3-.1-.091-.082-.278-.169-.4a2.22,2.22,0,0,1-2.877.014,2.309,2.309,0,0,1,.206-3.3c1.147-1.2,2.548-1.2,3.361-.415C386.755,434.958,386.931,436.126,386.022,437.417Zm-.465-2.563a1.661,1.661,0,0,0-2.441.2,1.641,1.641,0,0,0-.08,2.421,1.658,1.658,0,0,0,2.425-.167A1.677,1.677,0,0,0,385.557,434.854Z" fill="#1a1818"/>
      <path id="패스_36" data-name="패스 36" d="M373.47,450.447c.216.21.759.1,1.324-.071.227-.1.383-.127.422-.082s-.012.17-.2.352c-.082.071-1.549,1-1.779.738a2.86,2.86,0,0,0-.176-.277l-4.874-5.608c-1.1-1.258-1.759-2.273-1.524-2.478.1-.087.266-.025.758.486l2.06,2.361a32.66,32.66,0,0,1,3.373-4.661c.2-.3.124-.442.3-.593.2-.173,1.723-.673,1.888-.483.032.037,0,.077-.068.14a1.358,1.358,0,0,1-.223.147,5.143,5.143,0,0,0-.869.63,29.654,29.654,0,0,0-4.247,4.992Zm3.159-3.391c-.217.189-.136.373-.1.419a.384.384,0,0,0,.181.1.446.446,0,0,1,.25.068c.032.036.012.086-.061.149-.3.261-.7.275-.8.167-.078-.091-.077-.235-.128-.366a2.052,2.052,0,0,1-2.7-.228,2.159,2.159,0,0,1,.464-3.048,2.187,2.187,0,0,1,3.163-.1A2.1,2.1,0,0,1,376.629,447.056Zm-.3-2.369A1.692,1.692,0,0,0,373.8,446.9a1.692,1.692,0,0,0,2.534-2.209Z" fill="#1a1818"/>
      <path id="패스_37" data-name="패스 37" d="M357.251,456.625c-.471.4-.29.489-.8.835-.426.291-1,.642-1.218.324a.339.339,0,0,1,.148-.464l.019-.013c.579-.324,1.237-.744,1.861-1.171,1.514-1.036,3.283-2.363,4.769-3.569.253-.246.2-.384.38-.506s1.542-.489,1.677-.29c.034.049,0,.1-.081.157a.653.653,0,0,1-.182.1,9.337,9.337,0,0,0-1.752,1.01c-1.227.84-2.8,2.064-4.45,3.291ZM359,453.569a.442.442,0,0,0,.289.166.273.273,0,0,1,.193.072c.028.039.008.1-.081.157-.208.141-.786.232-.874.1-.061-.088-.006-.243-.057-.381a1.766,1.766,0,0,1-2.395-.355,1.956,1.956,0,0,1,.807-2.688,1.917,1.917,0,0,1,2.785.2,1.861,1.861,0,0,1-.637,2.469A.186.186,0,0,0,359,453.569Zm.156-2.3a1.361,1.361,0,0,0-1.992-.15,1.259,1.259,0,1,0,1.4,2.04A1.359,1.359,0,0,0,359.154,451.268Zm1.575,8.444c-.481.4-.072.34-.8.835-.544.372-.8.289-.872.19-.083-.119.008-.326.276-.509.244-.153.531-.349.829-.552.713-.488,1.481-1.043,1.771-1.257a.361.361,0,0,1-.234-.13c-.054-.079-.018-.176-.063-.262-1.131.6-2.009.357-2.395-.208s-.253-1.6.876-2.373c1.109-.758,2.156-.589,2.59.045.366.535.286,1.375-.582,2.188a.229.229,0,0,0-.014.3.414.414,0,0,0,.2.141c.536-.366,1.073-.792,1.561-1.14.267-.27.229-.389.367-.484s1.117-.343,1.239-.165c.021.03,0,.077-.085.131a2.328,2.328,0,0,1-.211.116,12.551,12.551,0,0,0-1.451.876C363.021,457.94,361.221,459.3,360.729,459.712Zm1.512-3.825c-.3-.447-1.006-.62-1.8-.078-.832.568-.953,1.305-.648,1.751s1.036.6,1.867.031C362.455,457.049,362.546,456.332,362.241,455.887Zm.974,2.953a2.025,2.025,0,0,1,1.423-.13c.027.039-.006.076-.075.124a1.066,1.066,0,0,1-.232.129,11.189,11.189,0,0,0-2.053,1.143c-.257.176-.437.168-.505.07s0-.321.31-.547Z" fill="#1a1818"/>
      <path id="패스_38" data-name="패스 38" d="M345.393,468.81c.127.191.579.28,1.324.229.177-.024.295-.006.323.048s-.046.173-.279.321a7.661,7.661,0,0,1-1.475.338c-.193.019-.264-.039-.314-.135s-.057-.186-.118-.3l-3.261-6.27c-1.022-1.957-1.1-2.256-1.116-2.761.007-.166.048-.268.112-.3.086-.045.216.049.388.378Zm4.151-9.261a10.44,10.44,0,0,0-.843,5.747c.083.159.713.25,1.1.237.086.01.215.024.243.077s-.024.134-.248.251a4.03,4.03,0,0,1-1.677.159.216.216,0,0,1-.212-.121,10.436,10.436,0,0,1-.079-1.758c-.594-.2-1.144-.4-1.624-.519-.474-.131-.759.207-1.64-.5a1.217,1.217,0,0,1-.324-.359c-.089-.17-.053-.31.064-.371a.779.779,0,0,1,.7.122c.389.175,2.012.9,2.871,1.248a10.349,10.349,0,0,1,1.7-4.571c.022-.01.038-.006.043.005C349.641,459.241,349.621,459.359,349.544,459.549Z" fill="#1a1818"/>
      <path id="패스_39" data-name="패스 39" d="M335.275,465.5c.115.213.412.207,1.05.15.132-.028.228-.016.251.039s-.043.148-.28.3a9.619,9.619,0,0,1-1.23.418c-.207.034-.274,0-.316-.1-.027-.067-.035-.181-.091-.314-.2-.488-.449-1.087-.631-1.493-.1-.244-.286-.284-.683-.145l-2.31.982c-.808.4-.3.489-1.3.9-.354.148-.834.307-.976-.037a.285.285,0,0,1,.2-.368l4.316-1.786c.736-.292,1.231-.289,1.5.263Zm-1.406,8.341a2.055,2.055,0,0,0,1.2.257c.216-.011.332.018.356.074s-.092.155-.354.276a4.974,4.974,0,0,1-1.253.207c-.363.033-.472-.012-.518-.123-.032-.078-.029-.2-.089-.341l-1.918-4.663a6.629,6.629,0,0,1-.466-1.627c-.006-.3.062-.479.161-.521s.242.082.389.437Zm5.885-4.023a1.543,1.543,0,0,0,.841.055c.125-.013.254-.014.282.053.018.044-.048.136-.291.3a7.021,7.021,0,0,1-1.36.356c-.855.353-1.56.659-2.513,1.118a3.837,3.837,0,0,1-.7.381c-.377.156-.511.146-.543.069-.046-.111.129-.379.082-.553l-.629-2.807c-.354.056-.588.022-.625-.066-.055-.133.333-.294.566-.39.688-.285,2.262-1,2.824-1.247-.018-.136-.1-.648.111-.736.111-.045.248.223.563.859Zm-.852.548c.077-.1.184-.089.108-.305l-1.232-2.66a8.7,8.7,0,0,0-2.476,1.207c.175.578.7,1.918,1.076,2.881Z" fill="#1a1818"/>
      <path id="패스_40" data-name="패스 40" d="M321.949,477.922c.114.279.654.4,1.241.467.251,0,.4.038.42.1s-.079.151-.327.241c-.1.032-1.821.293-1.925-.039a2.773,2.773,0,0,0-.05-.325l-2.209-7.1c-.5-1.593-.7-2.789-.4-2.882.126-.04.253.084.5.749l.936,2.991a32.808,32.808,0,0,1,4.965-2.912c.3-.2.291-.356.508-.424.252-.078,1.849.076,1.924.317.014.045-.028.072-.12.1a1.3,1.3,0,0,1-.263.045,5.168,5.168,0,0,0-1.048.228,29.666,29.666,0,0,0-5.9,2.864Zm4.257-1.836c-.274.086-.274.288-.257.345a.394.394,0,0,0,.126.162.437.437,0,0,1,.2.163c.015.046-.024.083-.115.112-.379.118-.752-.029-.795-.167-.036-.114.024-.246.03-.387a2.051,2.051,0,0,1-2.379-1.293,2.158,2.158,0,0,1,1.65-2.605A2.188,2.188,0,0,1,327.6,473.6,2.1,2.1,0,0,1,326.206,476.086Zm.681-2.288a1.692,1.692,0,1,0-1.167,1.937A1.54,1.54,0,0,0,326.887,473.8Z" fill="#1a1818"/>
      <path id="패스_41" data-name="패스 41" d="M306.139,475.247a.292.292,0,0,0-.221.321.246.246,0,0,0,.1.164c.108.053.157.118.166.164s-.013.064-.072.076-.724-.025-.761-.225c-.018-.1.068-.221.075-.38a1.849,1.849,0,1,1-.352-3.657,2.041,2.041,0,0,1,2.615,1.393A1.987,1.987,0,0,1,306.139,475.247Zm1.05,5.576c.073.256.434.36.9.492.115.028.256.063.267.122s-.075.124-.363.213c-1.233,0-1.43-.075-1.461-.24-.013-.07.007-.16-.012-.265l-.5-2.7-1.465.322.554,2.972a1.775,1.775,0,0,0,1.075.533c.14.034.274.094.287.166s-.1.139-.4.2c-1.365-.052-1.606-.165-1.641-.354-.018-.094.012-.2-.01-.315l-.812-4.755c-.1-.738.034-1.19.2-1.222.118-.021.248.15.327.575l.363,1.884,1.466-.321-.138-1c-.044-.565.112-.911.277-.942.117-.022.252.111.313.442Zm-.147-7.539a1.471,1.471,0,0,0-1.882-1.064,1.4,1.4,0,1,0,.512,2.748A1.479,1.479,0,0,0,307.042,473.284Zm2.308,6.357c-.518.169-.179.35-1.123.526-.425.079-.642-.039-.67-.192-.025-.13.1-.288.374-.351.833-.18,1.423-.29,2-.458a.607.607,0,0,1-.259-.343c-.02-.106.04-.178.032-.286-1.255.014-1.938-.579-2.07-1.287-.139-.743.415-1.7,1.736-1.946a1.858,1.858,0,0,1,2.346,1.259c.128.684-.276,1.467-1.422,1.864a.279.279,0,0,0-.131.28.765.765,0,0,0,.233.335c.409-.1.6-.136,1.086-.263.248-.107.267-.209.384-.23s1.006.154,1.041.343c.006.036-.027.053-.109.069a2.024,2.024,0,0,1-.217.016,6.572,6.572,0,0,0-.967.119c-.495.092-1.09.24-2.136.52Zm1.709-2.943a1.238,1.238,0,0,0-1.593-.887c-.92.171-1.286.826-1.179,1.4a1.433,1.433,0,0,0,2.772-.516Zm-.313,3.365a2.092,2.092,0,0,1,1.105.491c.006.035-.027.053-.1.066a1.5,1.5,0,0,1-.277.016,7.1,7.1,0,0,0-1.2.136c-.176.034-.389.074-.646.133-.335.038-.538-.07-.563-.2s.151-.309.585-.4Z" fill="#1a1818"/>
      <path id="패스_42" data-name="패스 42" d="M298.554,482.491c.035.238.43.332.911.444.16.032.26.071.265.13s-.1.13-.366.2a5.818,5.818,0,0,1-1.211-.053c-.257-.048-.325-.126-.334-.222s.02-.171.011-.266l-.063-.657-3.879.42.081.848c.043.189.421.357.878.471.173.043.274.094.279.154s-.1.117-.345.166a4.65,4.65,0,0,1-1.352-.137c-.173-.043-.216-.111-.223-.195s.017-.2.015-.339c-.206-2.536-.242-2.907-.03-3.458.073-.127.161-.22.244-.228s.19.1.262.469l1.635-.18a8.076,8.076,0,0,1-.036-1.5,24.206,24.206,0,0,0-2.7.355c-.531.123-.444.272-1.006.325-.3.03-1.266.122-1.3-.26-.014-.156.151-.316.425-.342.037,0,.073.005.109,0,.6-.034,1.725-.117,2.992-.239,1.625-.155,3.485-.37,4.762-.636.386-.121.458-.249.673-.27.239-.022,1.587.33,1.608.546,0,.047-.041.076-.149.086a.765.765,0,0,1-.168,0,14.28,14.28,0,0,0-2.55.063c-.669.065-1.384.158-2.084.273.08.462.139.951.2,1.512l1.514-.182c.005-.326.2-.683.367-.7s.241.254.307.814Zm-5.377-5.791c.725-.105,2.63-.36,3.938-.546.44-.066.5-.24.747-.264a2.564,2.564,0,0,1,1.285.455c0,.036-.042.064-.161.076a.941.941,0,0,1-.169,0,12.237,12.237,0,0,0-1.777.074c-1.111.106-2.384.288-3.359.43-.3.041-.25.157-.633.193l-.155.015c-.456.019-.582-.04-.592-.136s.1-.238.083-.394a12.526,12.526,0,0,1-.1-3.005c.064-.344.211-.563.343-.576.107-.009.2.114.232.412Zm4.559,5.049-.132-1.627-3.9.446.153,1.6Z" fill="#1a1818"/>
      <path id="패스_43" data-name="패스 43" d="M278.486,479.054c.625.037,1.429.048,2.232.035.936-.016,1.871-.056,2.47-.089.755-.049,2.972-.218,3.487-.25.371-.03.381-.2.6-.2a3.427,3.427,0,0,1,1.523.682c0,.037-.046.074-.154.076a.947.947,0,0,1-.229-.033,11.814,11.814,0,0,0-2.137-.085c-1.667.028-3.956.162-5.885.3-.611.046-.5.248-1.148.259-.575.009-1.164-.029-1.17-.389a.347.347,0,0,1,.379-.306Zm7.367-3.6c.014.145.255.212.652.314.109.022.218.056.218.1s-.237.172-.453.176a4.962,4.962,0,0,1-1.262-.136c-1.115.019-1.714.065-2.853.119-.3.03-.347.067-.658.119-.032.253-.036.721-.05,1.321.791-.037,2.35-.1,3.5-.178.347-.078.4-.2.609-.2.239,0,1.17.364,1.172.509,0,.036-.047.06-.167.062a1,1,0,0,1-.18-.009,16.221,16.221,0,0,0-1.668-.032c-.948.016-2.05.069-2.985.157a.965.965,0,0,1-.406.1c-.768.013-.77-.119-.771-.167,0-.1.105-.23.151-.351.125-.374.308-.917.364-1.145-.324-.055-.494-.172-.5-.268s.141-.159.417-.163c.911-.039,2.674-.116,3.909-.173.119-.061.214-.051.212-.183l-.017-1.043c0-.229-.124-.275-.3-.272-.24,0-.588,0-1.008,0-.588.01-1.307.034-2.014.058-.719.1-.475.319-1.219.332-.336.006-.935.015-.941-.332,0-.145.151-.28.416-.283l4.737-.079c.875-.014,1.073.294,1.078.642ZM283.2,483.99c-1.491-.179-2.177-1.008-2.191-1.859-.014-.9.846-1.85,2.393-1.875,1.571-.027,2.5.918,2.515,1.9.013.8-.6,1.594-1.9,1.82a.252.252,0,0,0-.26.244.318.318,0,0,0,.1.226.333.333,0,0,1,.111.178c0,.048-.047.073-.131.074-.228,0-.722-.156-.725-.336,0-.1.093-.193.09-.325Zm2-1.881c-.012-.707-.611-1.393-1.775-1.374s-1.727.725-1.715,1.432a1.557,1.557,0,0,0,1.786,1.387C284.643,483.534,285.207,482.817,285.2,482.109Z" fill="#1a1818"/>
      <path id="패스_44" data-name="패스 44" d="M263.094,475.438c.343.074.771.132,1.224.182.644.069,1.339.121,1.831.151-.146-.1-.177-.153-.17-.212s.084-.112.121-.228c-1.094-.265-1.541-.929-1.474-1.549.071-.644.783-1.315,2-1.183,1.146.125,1.758.939,1.68,1.655-.061.561-.55,1.063-1.56,1.135-.147.02-.212.061-.22.132s.032.149.14.27c.456.025,1.094.046,1.575.063.356-.059.463-.156.666-.133.239.025,1.318.541,1.3.719,0,.037-.054.055-.138.046a.763.763,0,0,1-.153-.029,10.325,10.325,0,0,0-1.706-.306c-1.157-.126-3.249-.208-3.709-.2-.542-.011-.419.2-.968.137-.108-.012-.907-.1-.868-.457.014-.131.157-.224.372-.2Zm.6,7.02c0,.121.4.43.867.7.183.092.258.173.253.221-.008.071-.12.107-.361.1-1.408-.382-1.578-.593-1.555-.808.008-.072.041-.153.05-.236l.451-3.815c.127-1.06.438-1.582.641-1.56.143.015.22.193.172.743l-.14,1.289a26.983,26.983,0,0,1,3.65-.473c.142-1.312.652-1.45.724-1.442.1.009.142.135.138.388l-.108,1c.425-.026.91-.046,1.493-.079.364-.021.4-.138.593-.117s1.532.674,1.508.889c-.006.059-.056.078-.152.068a.588.588,0,0,1-.188-.045,5.681,5.681,0,0,0-.982-.18,29.948,29.948,0,0,0-6.711.2Zm3.125-5.757a1.993,1.993,0,0,1,.982.746c0,.036-.041.044-.1.037a1.1,1.1,0,0,1-.235-.061,16.087,16.087,0,0,0-2.124-.448c-.262-.029-.382-.151-.37-.258s.217-.23.6-.164Zm.84-2.5c.052-.477-.288-1.009-1.088-1.1-.823-.089-1.294.354-1.346.832s.313,1.011,1.136,1.1A1.054,1.054,0,0,0,267.66,474.2Zm.276,8.9c-.158.006-.31.074-.326.217a.169.169,0,0,0,.035.124c.052.079.083.13.078.178s-.043.056-.115.048c-.262-.028-.565-.242-.549-.386.009-.083.113-.156.161-.26a1.863,1.863,0,0,1-1.547-1.871c.088-.81.9-1.471,2.257-1.324,1.431.156,2.12,1.04,2.033,1.839C269.887,482.37,269.224,483.022,267.936,483.1Zm1.333-1.486c.064-.6-.373-1.236-1.388-1.345a1.272,1.272,0,0,0-1.572,1.023c-.063.585.361,1.235,1.316,1.339C268.639,482.742,269.2,482.2,269.269,481.615Z" fill="#1a1818"/>
      <path id="패스_45" data-name="패스 45" d="M251.775,480.418c-.028.2.551.612,1,.935.121.072.191.147.182.2-.014.07-.167.1-.522.042a10.275,10.275,0,0,1-1.29-.588c-.228-.144-.27-.237-.247-.356.019-.093.075-.192.11-.369l.856-4.282-.589-.117c-.569-.028-.425.232-1.178.082-.224-.044-.718-.143-.645-.508.033-.165.2-.277.461-.225l2.035.406.694-3.409a4.577,4.577,0,0,1,.642-1.683c.122-.122.23-.174.312-.158.106.021.146.188.069.577l-.9,4.518a18.734,18.734,0,0,1,6.024-.388l.011,0c.294.059.4.642.353.928l-.681,3.533c0,.245.393.482.906.793.113.047.186.11.176.158s-.119.11-.388.105c-1.412-.4-1.614-.554-1.579-.731.017-.082.083-.167.106-.284l.752-3.521c.038-.249,0-.344-.322-.407a17.976,17.976,0,0,0-5.407.059Z" fill="#1a1818"/>
      <path id="패스_46" data-name="패스 46" d="M235.15,475.45c-.1.32.269.72.654,1.086.125.117.27.253.248.321s-.136.069-.452-.009a4.746,4.746,0,0,1-1.073-.693c-.274-.2-.309-.329-.271-.442.03-.092.1-.183.15-.305l1.682-5.091a4.754,4.754,0,0,1,1.09-2.168.186.186,0,0,1,.152-.038c.136.044.1.4-.083.945l-.9,2.758.87.235c.372.059.452-.028.611.023s.746.535.69.706c-.011.035-.079.05-.216,0-.068-.022-.43-.153-.521-.182-.592-.2-1.136-.348-1.542-.456Zm6.514-5.349c-.052.235.176.423.7.8.117.065.182.136.164.193s-.129.084-.406.044a9.483,9.483,0,0,1-1.2-.484c-.18-.109-.207-.18-.173-.284.023-.068.09-.159.135-.3.165-.5.367-1.117.494-1.543.082-.25-.033-.4-.424-.555l-2.39-.758c-.873-.224-.549.173-1.575-.163-.365-.12-.832-.312-.716-.665a.285.285,0,0,1,.39-.15l4.434,1.454c.748.259,1.121.583.965,1.175Zm-.344,5.126c.259.022.33-.081.49-.029.239.078,1.054.788,1.009.925-.011.034-.075.038-.2,0-.079-.026-.178-.071-.3-.124-.255-.108-.817-.318-1.444-.524-.729-.24-1.535-.478-2.066-.589-.213-.045-.118.05-.516-.081-.126-.041-.627-.206-.575-.365.022-.069.139-.119.3-.142a14.14,14.14,0,0,1,1.9-1.182c-.632-1.382-1.01-1.076-1.171-2.24a.716.716,0,0,1,.021-.334c.056-.171.169-.247.295-.206a.485.485,0,0,1,.267.34,20.1,20.1,0,0,0,.9,2.329,12.08,12.08,0,0,1,4.373-1.053.813.813,0,0,1,.273.014c.046.015.065.033.058.057s-.1.08-.285.1a12.3,12.3,0,0,0-5.731,2.426C239.626,474.772,240.694,475.1,241.32,475.227Zm-1.393,1.248c.243.142.922.921.877,1.057-.011.034-.049.034-.117.012a.815.815,0,0,1-.194-.1,14.383,14.383,0,0,0-2.231-.933c-.255-.109-.328-.272-.287-.4a.269.269,0,0,1,.3-.169c.117.027.391.117.687.213Z" fill="#1a1818"/>
      <path id="패스_47" data-name="패스 47" d="M223.894,471.111c-.052.122.15.444.689,1.014.142.126.2.23.183.274-.029.067-.18.054-.45-.048-.044-.019-1.475-.855-1.318-1.219.032-.077.114-.147.162-.257l1.5-3.459c-.159-.056-.331-.143-.506-.191-.55-.119-.408.191-1.257-.173-.221-.1-.629-.271-.5-.569a.318.318,0,0,1,.438-.137l1.96.788a10.9,10.9,0,0,1,1.389-2.722c.189-.167.382-.28.481-.238s.109.2-.036.572Zm6.529-4.931c-.078.214.133.422.624.829.107.085.177.167.153.221s-.146.069-.419,0a8.959,8.959,0,0,1-1.136-.579c-.18-.129-.2-.215-.153-.313.033-.077.093-.156.156-.273.208-.485.487-1.136.642-1.527.1-.259,0-.419-.38-.607L227.9,463.1c-.856-.288-.568.135-1.55-.286-.364-.156-.808-.4-.666-.73a.285.285,0,0,1,.4-.114l3.982,1.707c.735.328,1.067.679.875,1.25Zm-1.592,6.121c-.191-.043-.358-.049-.415.084a.444.444,0,0,0,0,.262c.067.121.087.2.068.239s-.068.036-.167-.007c-.331-.142-.648-.5-.576-.665.051-.121.231-.175.31-.3a2.22,2.22,0,0,1-1.029-2.687,2.312,2.312,0,0,1,3.159-.971c1.523.653,2.019,1.963,1.574,3C231.39,472.118,230.359,472.7,228.831,472.3Zm2.233-1.341a1.66,1.66,0,0,0-1.049-2.213,1.635,1.635,0,1,0-1.282,2.989A1.674,1.674,0,0,0,231.064,470.96Z" fill="#1a1818"/>
      <path id="패스_48" data-name="패스 48" d="M212.237,465.136c-.121.275.171.746.532,1.213.177.176.253.313.225.366s-.163.049-.4-.066c-.1-.051-1.48-1.1-1.315-1.4a2.635,2.635,0,0,0,.2-.262l3.533-6.53c.791-1.468,1.508-2.444,1.783-2.3.116.063.116.239-.188.88l-1.486,2.756a32.624,32.624,0,0,1,5.546,1.518c.352.08.458-.04.658.068.232.125,1.235,1.374,1.116,1.6-.023.042-.071.03-.156-.016a1.373,1.373,0,0,1-.215-.156,5.124,5.124,0,0,0-.894-.592,29.672,29.672,0,0,0-6.163-2.218Zm4.283,1.762c-.254-.136-.4,0-.426.057a.382.382,0,0,0-.028.2.451.451,0,0,1,.024.259c-.022.042-.076.04-.16-.005-.349-.188-.5-.558-.435-.684.056-.106.192-.156.3-.249a2.052,2.052,0,0,1-.736-2.6,2.157,2.157,0,0,1,3.014-.638,2.187,2.187,0,0,1,1.2,2.925A2.1,2.1,0,0,1,216.52,466.9Zm2.111-1.11a1.69,1.69,0,1,0-2.2.518A1.538,1.538,0,0,0,218.631,465.788Z" fill="#1a1818"/>
      <path id="패스_49" data-name="패스 49" d="M199.072,456.444c-.545-.309-.344.052-1.06-.452-.54-.379-.553-.652-.484-.75.082-.118.308-.106.574.08.228.176.512.376.807.582.706.5,1.5,1.023,1.8,1.22a.367.367,0,0,1,.039-.266c.055-.078.158-.079.224-.15-.958-.85-1.038-1.756-.645-2.315s1.41-.8,2.529-.011c1.1.772,1.306,1.812.864,2.44-.372.53-1.186.749-2.251.221a.227.227,0,0,0-.285.093.405.405,0,0,0-.062.234c.529.372,1.116.727,1.613,1.062.346.154.445.077.582.173s.712.926.588,1.1c-.021.029-.073.021-.152-.033-.049-.035-.111-.093-.183-.158a12.468,12.468,0,0,0-1.328-1.051C201.533,457.969,199.626,456.761,199.072,456.444Zm1.671-4.337c-.535-.3-.56-.1-1.06-.452-.422-.3-.951-.713-.73-1.026a.338.338,0,0,1,.486-.025l.019.014c.506.428,1.13.9,1.748,1.331,1.5,1.055,3.361,2.245,5.011,3.215.319.15.431.054.608.178s1,1.272.859,1.469c-.035.048-.1.034-.176-.022a.635.635,0,0,1-.153-.137,9.315,9.315,0,0,0-1.559-1.286c-1.216-.855-2.914-1.9-4.64-3.012Zm.016,6.359a2.018,2.018,0,0,1,.62,1.286c-.027.039-.074.021-.142-.026a1.124,1.124,0,0,1-.2-.172,11.315,11.315,0,0,0-1.789-1.522c-.256-.178-.311-.35-.242-.448s.3-.112.62.1Zm2.424-1.946c.31-.442.228-1.16-.557-1.711-.824-.58-1.557-.435-1.867.006s-.2,1.18.625,1.76C202.169,457.127,202.872,456.961,203.183,456.52Zm1.033-3.848a.44.44,0,0,0-.055.328.275.275,0,0,1,0,.206c-.028.039-.088.041-.176-.02-.206-.146-.493-.655-.4-.783.063-.088.226-.09.338-.187a1.762,1.762,0,0,1-.507-2.365,1.954,1.954,0,0,1,2.8-.188,1.919,1.919,0,0,1,.786,2.679,1.863,1.863,0,0,1-2.536.269A.185.185,0,0,0,204.216,452.672Zm2.209-.661a1.36,1.36,0,0,0-.558-1.917,1.259,1.259,0,1,0-1.421,2.021A1.358,1.358,0,0,0,206.425,452.011Z" fill="#1a1818"/>
      <path id="패스_50" data-name="패스 50" d="M185.168,445.3c-.134.185-.058.64.252,1.319.085.157.109.275.069.319s-.177.019-.4-.147a7.522,7.522,0,0,1-.835-1.262c-.087-.174-.057-.26.015-.341s.154-.119.242-.217l4.718-5.259c1.472-1.645,1.726-1.82,2.19-2.017.159-.05.269-.049.323,0,.071.065.029.22-.219.5Zm10.127.624a10.425,10.425,0,0,0-5.674,1.234c-.12.134.017.755.164,1.112.022.084.054.209.014.254s-.134.025-.322-.143a4.014,4.014,0,0,1-.739-1.514.215.215,0,0,1,.038-.24,10.355,10.355,0,0,1,1.618-.693c-.019-.628-.026-1.213-.087-1.7-.044-.49-.46-.637-.113-1.71a1.215,1.215,0,0,1,.223-.428c.128-.144.271-.159.37-.072a.784.784,0,0,1,.132.7c-.027.426-.132,2.2-.156,3.126a10.338,10.338,0,0,1,4.875-.017c.018.016.019.032.01.041C195.617,445.9,195.5,445.929,195.295,445.924Z" fill="#1a1818"/>
      <path id="패스_51" data-name="패스 51" d="M176.4,436.283a2.04,2.04,0,0,0,.182,1.212c.087.2.1.318.056.359s-.177-.032-.384-.234a4.918,4.918,0,0,1-.635-1.1c-.159-.328-.155-.447-.068-.529.062-.057.174-.1.287-.2l3.687-3.438a6.52,6.52,0,0,1,1.358-1.01c.275-.11.471-.112.544-.033s.009.255-.271.517Zm5.838,4.087a1.57,1.57,0,0,0,.245.807c.057.112.1.232.051.281-.035.033-.145,0-.385-.165a7.127,7.127,0,0,1-.813-1.147c-.632-.674-1.166-1.227-1.932-1.957-.231-.228-.143-.03-.6-.52-.279-.3-.318-.427-.256-.484.087-.082.4-.013.547-.119l2.4-1.578c-.177-.311-.229-.542-.159-.608.1-.1.393.208.565.392.509.543,1.735,1.763,2.162,2.2.121-.064.571-.322.727-.155.082.087-.121.31-.6.829Zm-.813-.6c.118.037.148.14.323-.007l2.055-2.091c-1.338-1.428-1.486-1.585-2-1.891-.479.368-1.547,1.334-2.317,2.023Zm3.274-5.109c-.159.182-.049.457.23,1.035.073.113.1.206.051.247s-.153.013-.377-.156a9.907,9.907,0,0,1-.825-1c-.1-.181-.094-.258-.015-.332.053-.049.156-.1.261-.2.385-.361.858-.8,1.174-1.117.193-.181.165-.368-.105-.692l-1.733-1.814c-.659-.615-.565-.111-1.3-.9-.263-.28-.581-.672-.31-.927a.285.285,0,0,1,.414.056l3.194,3.407c.533.587.705,1.05.283,1.5Z" fill="#1a1818"/>
      <path id="패스_52" data-name="패스 52" d="M168.385,426.577c-.221.2-.142.752,0,1.324.091.234.106.39.059.427s-.169-.02-.341-.221c-.066-.085-.917-1.6-.643-1.813a2.746,2.746,0,0,0,.285-.162l5.854-4.571c1.313-1.029,2.361-1.637,2.553-1.392.081.1.011.267-.525.732l-2.465,1.931a32.82,32.82,0,0,1,4.477,3.611c.29.215.435.148.575.328.163.207.582,1.753.384,1.909-.038.03-.077,0-.136-.076a1.342,1.342,0,0,1-.135-.23,5.056,5.056,0,0,0-.583-.9,29.707,29.707,0,0,0-4.761-4.5Zm3.219,3.331c-.177-.227-.365-.156-.413-.119a.39.39,0,0,0-.106.176.458.458,0,0,1-.081.246c-.038.029-.087.007-.146-.069-.244-.312-.238-.712-.125-.8.1-.074.239-.066.372-.11a2.051,2.051,0,0,1,.369-2.681,2.158,2.158,0,0,1,3.018.623,2.187,2.187,0,0,1-.068,3.163A2.1,2.1,0,0,1,171.6,429.908Zm2.38-.173a1.69,1.69,0,1,0-2.224-.407A1.538,1.538,0,0,0,173.984,429.735Z" fill="#1a1818"/>
      <path id="패스_53" data-name="패스 53" d="M160.448,413.828c-.213.158-.181.532-.141,1.014.015.117.032.261-.019.292s-.142-.026-.329-.263c-.436-1.154-.437-1.364-.293-1.452.061-.037.151-.05.244-.106l2.348-1.429-.821-1.257-2.584,1.572a1.776,1.776,0,0,0-.116,1.2c.017.144.008.291-.053.328s-.165-.04-.328-.307c-.436-1.294-.415-1.56-.251-1.66.082-.049.189-.058.291-.121l4.16-2.447c.654-.356,1.126-.39,1.213-.247.063.1-.052.285-.421.51l-1.634,1.008.821,1.257.886-.483c.513-.242.892-.22.979-.076.063.1-.014.276-.3.45Zm1.973,3.057a2.094,2.094,0,0,1-.066,1.207c-.031.019-.06-.006-.1-.068a1.57,1.57,0,0,1-.113-.254,7.288,7.288,0,0,0-.552-1.069c-.094-.154-.206-.339-.354-.558-.154-.3-.125-.528-.012-.6s.342.031.583.4Zm-.1-1.457c-.343-.424-.392-.043-.891-.863-.225-.369-.191-.614-.058-.7.113-.069.307,0,.46.225.464.716.776,1.228,1.14,1.71a.607.607,0,0,1,.228-.364c.092-.056.181-.025.279-.072-.458-1.168-.147-2.018.469-2.393a1.831,1.831,0,0,1,2.437.934,1.859,1.859,0,0,1-.345,2.641c-.6.362-1.471.263-2.249-.669a.285.285,0,0,0-.309-.023.777.777,0,0,0-.23.337c.239.347.339.511.631.923.189.194.29.175.352.277s.212,1,.048,1.1c-.031.019-.059-.005-.1-.077-.025-.041-.052-.109-.092-.2a6.7,6.7,0,0,0-.454-.862c-.262-.431-.612-.935-1.245-1.814Zm3.359.555a1.436,1.436,0,0,0-1.467-2.409,1.433,1.433,0,0,0,1.467,2.409Zm-.389-5.117a.293.293,0,0,0-.379-.093.253.253,0,0,0-.117.156.276.276,0,0,1-.1.213c-.031.018-.064.01-.1-.041s-.235-.686-.061-.792c.082-.05.231-.014.383-.064a1.85,1.85,0,1,1,3.3-1.627,2.042,2.042,0,0,1-.375,2.94A1.989,1.989,0,0,1,165.292,410.866Zm2.157.149a1.473,1.473,0,0,0,.328-2.139,1.406,1.406,0,1,0-2.389,1.454A1.481,1.481,0,0,0,167.449,411.015Z" fill="#1a1818"/>
      <path id="패스_54" data-name="패스 54" d="M155.828,406.336c-.209.118-.158.52-.091,1.009.026.161.026.268-.028.3s-.155-.044-.32-.27a5.725,5.725,0,0,1-.381-1.15c-.047-.258,0-.349.088-.391s.167-.042.253-.085l.591-.292-1.769-3.475-.763.377c-.162.106-.185.52-.129.987.021.177.01.289-.045.316s-.144-.049-.277-.264a4.7,4.7,0,0,1-.353-1.311c-.021-.178.028-.242.1-.279s.188-.053.322-.105c2.3-1.094,2.63-1.259,3.22-1.256a.4.4,0,0,1,.3.147c.042.086-.028.214-.345.411l.749,1.463a8.133,8.133,0,0,1,1.392-.567,24.537,24.537,0,0,0-1.292-2.4c-.3-.452-.411-.319-.66-.824-.133-.269-.563-1.14-.219-1.31.139-.07.348.028.471.276.016.032.021.069.037.1.243.548.721,1.57,1.284,2.71.722,1.464,1.583,3.126,2.285,4.224.251.318.4.34.491.533.107.215.255,1.6.061,1.7-.043.021-.085-.011-.133-.108a.815.815,0,0,1-.064-.156,14.175,14.175,0,0,0-.964-2.36c-.3-.6-.638-1.238-.994-1.851-.4.239-.839.468-1.34.728l.707,1.351c.306-.112.709-.056.783.1s-.152.315-.653.576Zm.4-1.027,1.474-.7-1.8-3.486-1.441.711Zm3.1-6.053c.356.641,1.27,2.33,1.908,3.487.218.387.4.378.511.6a2.574,2.574,0,0,1,.031,1.363c-.032.016-.075-.016-.128-.124a1.037,1.037,0,0,1-.064-.156,12.068,12.068,0,0,0-.7-1.634c-.494-1-1.116-2.125-1.6-2.986-.143-.264-.234-.178-.4-.522l-.07-.141c-.18-.419-.169-.558-.082-.6s.257.007.4-.062a12.487,12.487,0,0,1,2.774-1.155c.344-.063.6,0,.659.115.048.1-.033.231-.3.364Z" fill="#1a1818"/>
      <path id="패스_55" data-name="패스 55" d="M148.952,392.436c-.347-1.462.194-2.393.99-2.7.84-.325,2.03.155,2.589,1.6.567,1.468,0,2.666-.918,3.021a1.956,1.956,0,0,1-2.366-1.157.254.254,0,0,0-.32-.16.317.317,0,0,0-.177.172.324.324,0,0,1-.13.165c-.044.018-.084-.018-.115-.1-.082-.213-.1-.732.065-.8.09-.034.214.021.337-.027Zm2.457,1.226a1.789,1.789,0,0,0-1.261-3.26,1.559,1.559,0,0,0-.684,2.158A1.524,1.524,0,0,0,151.409,393.662Zm.552-7.361c.181.6.449,1.359.739,2.11.338.873.7,1.738.937,2.289.307.693,1.232,2.717,1.441,3.19.156.339.318.289.4.491a3.4,3.4,0,0,1-.116,1.667c-.033.013-.084-.019-.123-.12a.94.94,0,0,1-.048-.225,11.748,11.748,0,0,0-.66-2.037c-.6-1.557-1.52-3.662-2.318-5.426-.255-.558-.406-.384-.64-.989-.208-.537-.376-1.1-.04-1.233a.346.346,0,0,1,.419.25Zm5.931,5.677c-.131.063-.111.313-.069.721.017.11.022.223-.023.241s-.243-.164-.321-.365a4.949,4.949,0,0,1-.31-1.232c-.4-1.042-.653-1.589-1.1-2.64-.131-.271-.182-.3-.34-.577-.248.058-.689.215-1.257.41.308.73.9,2.173,1.377,3.227.193.3.327.311.4.5.087.223.062,1.224-.072,1.277-.034.013-.074-.023-.117-.136a1.075,1.075,0,0,1-.054-.172,16.291,16.291,0,0,0-.546-1.578c-.342-.885-.774-1.9-1.18-2.75a.986.986,0,0,1-.237-.346c-.277-.717-.154-.765-.109-.782.089-.035.252.018.381.02.4-.011.968-.027,1.2-.053-.062-.325-.01-.525.08-.559s.2.078.3.335c.352.843,1.033,2.472,1.513,3.612.1.091.123.185.246.137l.975-.377c.213-.082.214-.212.149-.38-.087-.223-.2-.553-.353-.945-.212-.548-.484-1.216-.75-1.873-.339-.641-.465-.335-.734-1.029-.121-.314-.338-.874-.013-1,.134-.053.314.045.409.291l1.712,4.425c.317.817.1,1.109-.23,1.235Z" fill="#1a1818"/>
      <path id="패스_56" data-name="패스 56" d="M152,376.262c-.2.076-.252.374-.275,1.011-.012.151-.031.268-.089.283s-.14-.064-.246-.285a9.725,9.725,0,0,1-.238-1.227,1.582,1.582,0,0,1-.326.133l-1.325.337c.255.567.382.869.594,1.36.161.293.3.318.351.5a3.952,3.952,0,0,1-.4,1.835c-.046.013-.078-.017-.1-.1a.862.862,0,0,1-.018-.218,5.758,5.758,0,0,0-.216-1.332,23.887,23.887,0,0,0-2.425-5.833l-3.767.959c-.158.065-.306.648-.377,1.148,0,.175-.04.283-.1.3s-.149-.1-.26-.392a6.879,6.879,0,0,1,0-1.362c.022-.253.091-.32.208-.35.069-.018.168-.018.273-.045l5.581-1.371c1.035-.263,1.989-.308,2.057-.041.033.128-.118.265-.653.4l-2.729.707a23.539,23.539,0,0,1,1.69,3.135c1.069-.272,1.806-.2,1.923.018a.21.21,0,0,1,.168-.216c.07-.018.18-.021.3-.039.535-.136.918-.234,1.438-.379.253-.077.322-.243.233-.641l-.683-2.636c-.289-.843-.453-.368-.719-1.414-.054-.21-.216-.849.179-.95a.281.281,0,0,1,.333.237l1.2,4.721c.187.782.108,1.248-.459,1.454Zm-7.121,1.454c-.062-.146-.181-.276-.321-.24a.245.245,0,0,0-.125.093c-.04.085-.089.135-.136.146s-.067-.02-.085-.09c-.077-.3.085-.64.213-.672.093-.024.2.048.3.071A1.91,1.91,0,0,1,146,374.818c.825-.21,1.8.3,2.148,1.682.368,1.441-.277,2.411-1.114,2.624C146.3,379.31,145.408,378.918,144.879,377.716Zm1.982.733a1.376,1.376,0,0,0,.859-1.828,1.307,1.307,0,1,0-2.5.636A1.377,1.377,0,0,0,146.861,378.449Z" fill="#1a1818"/>
      <path id="패스_57" data-name="패스 57" d="M141.386,361.757c-.13.021-.293.363-.486,1.124-.03.187-.086.293-.133.3-.071.011-.142-.123-.2-.4-.007-.048-.069-1.7.322-1.766.083-.013.185.019.3,0l3.72-.592c-.038-.163-.058-.355-.11-.528-.2-.528-.38-.243-.528-1.155-.038-.236-.109-.674.21-.726a.317.317,0,0,1,.352.295l.386,2.076a10.887,10.887,0,0,1,3.04-.287c.242.07.441.172.459.278s-.114.2-.5.276Zm1.378,4.515a1.953,1.953,0,0,1-.515,1.093c-.036.006-.052-.016-.065-.1a1.473,1.473,0,0,1-.009-.278,13.3,13.3,0,0,0-.277-2.155c-.028-.323.073-.522.2-.543s.316.155.4.6Zm.665-2.113c-.238-.641-.389-.3-.558-1.27-.056-.416.077-.645.231-.67s.313.132.365.451c.176,1,.363,1.934.514,2.566.192-.237.291-.3.362-.314s.126.029.235.023c-.034-1.331.626-2.058,1.4-2.183.912-.148,1.862.536,2.087,1.922.24,1.48-.547,2.4-1.364,2.53-.769.125-1.627-.368-2.022-1.677a.332.332,0,0,0-.258-.092.539.539,0,0,0-.325.247,11.451,11.451,0,0,0,.359,1.461c.086.229.19.273.214.415a2.545,2.545,0,0,1-.445,1.227c-.036.006-.068-.038-.085-.144a2.341,2.341,0,0,1-.014-.241,10.408,10.408,0,0,0-.153-1.689C143.844,365.963,143.7,365.306,143.429,364.159Zm3.1,2.352a1.567,1.567,0,1,0-1.551-1.316A1.383,1.383,0,0,0,146.534,366.511ZM149.6,364.8c-.222.061-.3.352-.387.914-.007.184-.059.313-.118.323s-.135-.088-.2-.356a9.091,9.091,0,0,1-.123-1.281c.025-.222.076-.279.183-.3.071-.012.183.006.313-.015l1.338-.217c.284-.046.378-.22.313-.622l-.437-2.542c-.155-.8-.415-.382-.582-1.413-.048-.3-.15-.923.217-.982.154-.026.336.127.387.435l.726,4.476c.129.793-.029,1.317-.585,1.407Z" fill="#1a1818"/>
      <path id="패스_58" data-name="패스 58" d="M140.084,344.48c-.335.014-.578.5-.786.995-.065.159-.141.342-.213.346s-.112-.1-.15-.426a4.718,4.718,0,0,1,.27-1.249c.094-.329.2-.406.318-.411.1,0,.206.027.338.034l5.362-.221a4.734,4.734,0,0,1,2.414.257.184.184,0,0,1,.09.128c.006.144-.338.231-.914.255l-2.9.126.087.9c.075.369.186.412.192.58s-.237.888-.417.9c-.036,0-.075-.058-.081-.2,0-.071-.008-.456-.012-.551-.027-.624-.075-1.187-.117-1.606Zm.727,4.835a2.922,2.922,0,0,1-.682,1.2c-.036,0-.049-.034-.052-.106a.794.794,0,0,1,.026-.217,14.375,14.375,0,0,0,.088-2.419c.012-.277.139-.4.27-.409a.266.266,0,0,1,.262.217c.017.12.03.407.043.719Zm1.659.865c.071.25.192.28.2.448.012.252-.365,1.266-.509,1.272-.036,0-.063-.057-.068-.19,0-.084,0-.192.01-.324.012-.277.01-.878-.019-1.537-.033-.768-.093-1.607-.177-2.144-.033-.215-.088-.092-.106-.512-.006-.131-.029-.659.139-.667.072,0,.161.09.239.23a14.232,14.232,0,0,1,1.777,1.366c1.071-1.08.651-1.327,1.685-1.888a.721.721,0,0,1,.32-.1c.18-.008.291.072.3.2a.482.482,0,0,1-.224.371,19.916,19.916,0,0,0-1.863,1.666A12.081,12.081,0,0,1,146.7,352.1a.883.883,0,0,1,.084.261c0,.048-.009.072-.033.074s-.111-.068-.19-.233a12.3,12.3,0,0,0-4.293-4.512C142.3,348.434,142.371,349.548,142.47,350.18Zm4.922-1.486c-.239.034-.334.314-.5.934-.018.133-.063.22-.122.222s-.124-.091-.185-.365a9.956,9.956,0,0,1,.028-1.3c.039-.207.1-.257.2-.262.072,0,.182.029.326.022.527-.022,1.175-.051,1.618-.082.264-.011.365-.172.371-.593L149,344.767c-.1-.9-.356-.453-.4-1.533-.016-.383,0-.889.369-.9.132-.006.269.1.278.313l.2,4.665c.022.792-.15,1.256-.76,1.318Z" fill="#1a1818"/>
      <path id="패스_59" data-name="패스 59" d="M140.188,332.435c-.131-.006-.361.3-.705,1-.068.177-.144.27-.192.267-.072,0-.114-.149-.113-.437,0-.048.28-1.683.675-1.664.084,0,.178.055.3.061l3.766.179c-.005-.168.015-.36,0-.54-.084-.557-.323-.315-.282-1.239.011-.24.031-.683.354-.669a.318.318,0,0,1,.284.361l-.045,2.113a10.929,10.929,0,0,1,3.037.339c.223.119.4.259.392.367s-.152.173-.548.168Zm.629,5.039c-.027-.194-.08-.352-.224-.359a.45.45,0,0,0-.244.1c-.089.1-.151.15-.2.148s-.057-.051-.052-.159c.016-.36.239-.783.419-.774.131.006.245.155.388.185.386-1.377,1.277-1.95,2.152-1.911a2.313,2.313,0,0,1,2.023,2.614c-.074,1.655-1.125,2.581-2.252,2.531C141.892,339.8,140.988,339.043,140.817,337.474Zm2.043,1.617a1.662,1.662,0,0,0,1.7-1.763,1.635,1.635,0,1,0-3.251-.145A1.676,1.676,0,0,0,142.86,339.091Zm4.248-2.287c-.228,0-.348.273-.555.877-.042.13-.1.224-.155.221s-.115-.113-.15-.391a9.067,9.067,0,0,1,.14-1.267c.058-.214.132-.259.24-.254.084,0,.179.032.31.05.528.023,1.235.055,1.656.062.276,0,.391-.151.433-.57l.073-2.172c-.032-.9-.327-.483-.279-1.55.017-.4.088-.9.448-.882.144.007.258.132.249.336l-.193,4.329c-.048.8-.259,1.239-.861,1.26Z" fill="#1a1818"/>
      <path id="패스_60" data-name="패스 60" d="M141.638,319.391c-.3-.016-.638.423-.948.927-.1.229-.2.349-.263.341s-.1-.135-.08-.4c.014-.107.5-1.774.848-1.728a2.715,2.715,0,0,0,.315.091l7.365.994c1.655.22,2.823.546,2.781.855-.017.131-.183.194-.89.136l-3.106-.414a32.752,32.752,0,0,1,.544,5.729c.049.358.2.414.169.64-.035.263-.849,1.644-1.1,1.611-.047-.007-.053-.056-.04-.151a1.338,1.338,0,0,1,.07-.257,5.231,5.231,0,0,0,.237-1.047,29.777,29.777,0,0,0-.107-6.555Zm-.134,4.633c.038-.285-.144-.37-.2-.378a.388.388,0,0,0-.2.046.464.464,0,0,1-.233.115c-.048-.007-.065-.058-.053-.153.053-.393.344-.669.487-.65.119.016.214.125.338.191a2.055,2.055,0,0,1,2.177-1.612,2.159,2.159,0,0,1,1.665,2.6,2.189,2.189,0,0,1-2.312,2.163C142.3,326.227,141.529,325.47,141.5,324.024Zm1.788,1.583a1.692,1.692,0,1,0-1.264-1.876A1.538,1.538,0,0,0,143.292,325.607Z" fill="#1a1818"/>
      <path id="패스_61" data-name="패스 61" d="M143.8,306.322a2.026,2.026,0,0,1-.984,1.037c-.046-.012-.046-.062-.025-.143a1.081,1.081,0,0,1,.088-.25,11.091,11.091,0,0,0,.789-2.214c.078-.3.218-.415.334-.385s.212.24.128.615Zm1.293-2.295c.1-.62-.17-.3.047-1.152.164-.64.415-.749.531-.719.14.035.208.251.128.565-.083.276-.169.613-.258.962-.215.837-.427,1.762-.5,2.113a.363.363,0,0,1,.262-.056c.093.024.13.12.221.155.455-1.2,1.274-1.594,1.938-1.424s1.245,1.037.906,2.363c-.333,1.3-1.233,1.865-1.977,1.674-.628-.16-1.122-.844-1.005-2.029a.228.228,0,0,0-.188-.233.4.4,0,0,0-.241.025c-.161.627-.284,1.3-.421,1.886-.023.379.085.443.043.606s-.614.995-.823.942c-.035-.009-.046-.062-.022-.155a2.153,2.153,0,0,1,.082-.226,12.714,12.714,0,0,0,.513-1.616C144.538,306.871,144.993,304.658,145.092,304.027Zm1.387,3.873c.524.134,1.166-.2,1.4-1.127.25-.977-.145-1.611-.669-1.745s-1.174.233-1.424,1.209C145.552,307.167,145.957,307.767,146.479,307.9Zm3.265-3.847c.093-.608-.1-.56.047-1.153.128-.5.329-1.142.7-1.046a.337.337,0,0,1,.2.446l-.006.023c-.222.625-.438,1.374-.626,2.107-.455,1.779-.91,3.942-1.232,5.83-.028.352.1.422.049.632s-.837,1.383-1.07,1.324c-.058-.015-.066-.079-.042-.172a.676.676,0,0,1,.073-.192,9.226,9.226,0,0,0,.651-1.914c.369-1.442.747-3.4,1.175-5.411Zm.7,3.45a.439.439,0,0,0-.326.065.276.276,0,0,1-.192.075c-.047-.012-.07-.067-.043-.172.062-.244.437-.693.589-.655.1.027.165.179.295.249.466-1.144,1.313-1.5,2.033-1.313a1.957,1.957,0,0,1,1.168,2.554c-.351,1.372-1.367,1.9-2.227,1.685a1.864,1.864,0,0,1-1.152-2.278A.184.184,0,0,0,150.446,307.5Zm1.4,1.833c.6.155,1.338-.19,1.6-1.2a1.259,1.259,0,1,0-2.4-.613A1.359,1.359,0,0,0,151.848,309.336Z" fill="#1a1818"/>
      <path id="패스_62" data-name="패스 62" d="M150.627,287.072c-.221-.06-.619.172-1.146.7-.117.136-.218.2-.274.177s-.08-.159,0-.425a7.548,7.548,0,0,1,.886-1.226c.132-.142.223-.145.324-.106s.166.1.289.151l6.584,2.563c2.058.8,2.311.973,2.658,1.339.1.13.141.234.115.3-.035.089-.2.1-.542-.03Zm2.984,9.7a10.435,10.435,0,0,0-3.154-4.876c-.168-.065-.7.282-.983.545-.071.05-.177.125-.233.1s-.07-.117.021-.352a4.01,4.01,0,0,1,1.156-1.224.214.214,0,0,1,.238-.049,10.31,10.31,0,0,1,1.219,1.269c.581-.238,1.126-.451,1.563-.681.443-.214.434-.655,1.56-.707a1.22,1.22,0,0,1,.48.057c.179.069.245.2.2.321a.783.783,0,0,1-.607.369c-.408.125-2.1.652-2.981.955a10.336,10.336,0,0,1,1.734,4.557c-.008.022-.024.029-.035.025C153.741,297.064,153.677,296.962,153.611,296.77Z" fill="#1a1818"/>
      <path id="패스_63" data-name="패스 63" d="M154.206,282.6c-.14.011-.364.194-.668.513-.085.091-.182.178-.246.146-.043-.021-.055-.134.019-.419a7.142,7.142,0,0,1,.788-1.163c.409-.828.738-1.522,1.151-2.495a3.972,3.972,0,0,1,.276-.747c.181-.366.287-.447.363-.41.107.053.152.37.3.471l2.322,1.694c.229-.275.426-.4.513-.362.129.064-.057.44-.169.666-.329.667-1.04,2.243-1.3,2.8.1.09.5.421.4.626-.054.107-.333,0-.989-.274Zm.279-.973c.006.124-.079.188.12.3l2.678,1.188a8.7,8.7,0,0,0,1.065-2.538c-.511-.319-1.791-.978-2.706-1.456Zm1.494-5.925c-.151-.048-.665.234-1.07.6-.155.151-.262.205-.316.179s-.033-.177.084-.44a4.907,4.907,0,0,1,.8-.981c.25-.264.363-.3.471-.249.075.037.151.128.29.2l4.513,2.241a6.56,6.56,0,0,1,1.421.915c.2.219.271.4.223.5s-.236.1-.58-.072Zm4.436,7.193c-.226-.084-.445.115-.888.579-.08.108-.16.161-.214.135s-.065-.139.014-.408a9.832,9.832,0,0,1,.649-1.124c.133-.162.209-.179.305-.131.065.032.146.112.275.176.473.233,1.054.52,1.457.706.237.117.4.025.61-.341l1.088-2.259c.345-.833-.094-.568.384-1.537.17-.344.426-.78.759-.615a.284.284,0,0,1,.093.407l-2.065,4.185c-.361.705-.736,1.028-1.3.79Z" fill="#1a1818"/>
    </g>
  </g>
</svg>
