<svg width="15" height="15" viewBox="0 0 15 15" fill="none" xmlns="http://www.w3.org/2000/svg">
<path d="M4.17763 0.541741C3.43198 0.573471 2.9243 0.692451 2.48008 0.866971C2.02793 1.04941 1.63924 1.28739 1.25055 1.67608C0.861862 2.06477 0.623883 2.45346 0.449373 2.91355C0.274853 3.35777 0.163803 3.86544 0.124143 4.6111C0.0924126 5.35675 0.0844727 5.59472 0.0844727 7.4906C0.0924127 9.3864 0.100343 9.6244 0.132073 10.3701C0.163803 11.1157 0.282783 11.6234 0.457303 12.0597C0.639753 12.5198 0.877723 12.9085 1.26641 13.2972C1.6551 13.6859 2.04379 13.9238 2.50388 14.0983C2.9481 14.2729 3.45578 14.3839 4.20143 14.4236C4.94708 14.4553 5.18506 14.4632 7.0809 14.4632C8.9768 14.4553 9.2148 14.4553 9.9604 14.4156C10.7061 14.3839 11.2137 14.2649 11.658 14.0904C12.118 13.908 12.5067 13.67 12.8954 13.2813C13.2841 12.8926 13.5221 12.5039 13.6966 12.0438C13.8711 11.5996 13.9822 11.0919 14.0218 10.3463C14.0536 9.6006 14.0615 9.3627 14.0615 7.4668C14.0536 5.57093 14.0536 5.33295 14.0139 4.5873C13.9822 3.84165 13.8632 3.33397 13.6887 2.88975C13.5062 2.42967 13.2683 2.04097 12.8796 1.65228C12.4909 1.26359 12.1022 1.02562 11.6421 0.851101C11.1979 0.676591 10.6902 0.565531 9.9445 0.525871C9.191 0.502071 8.953 0.494141 7.0571 0.494141C5.16126 0.502071 4.92328 0.510011 4.17763 0.541741ZM4.25696 13.1623C3.57476 13.1306 3.20987 13.0195 2.96396 12.9243C2.63873 12.7974 2.40869 12.6467 2.16278 12.4008C1.91688 12.1549 1.76616 11.9248 1.63924 11.5996C1.54405 11.3537 1.42506 10.9809 1.39333 10.3066C1.3616 9.5689 1.35367 9.3468 1.34574 7.4827C1.34574 5.61852 1.34574 5.39641 1.37747 4.65869C1.4092 3.9765 1.52025 3.6116 1.61544 3.3657C1.74236 3.04047 1.89308 2.81042 2.13898 2.56452C2.38489 2.31861 2.61493 2.16789 2.94016 2.04097C3.18607 1.94578 3.5589 1.83473 4.23316 1.79507C4.97088 1.76334 5.19299 1.7554 7.0492 1.74747C8.9133 1.74747 9.1354 1.74747 9.8732 1.7792C10.5553 1.81093 10.9202 1.92199 11.1661 2.01718C11.4914 2.1441 11.7294 2.29481 11.9673 2.54072C12.2132 2.78663 12.3639 3.01667 12.4909 3.3419C12.5861 3.58781 12.6971 3.96063 12.7368 4.63489C12.7685 5.37261 12.7764 5.59472 12.7844 7.4509C12.7923 9.3151 12.7844 9.5372 12.7526 10.2749C12.7209 10.9571 12.6099 11.322 12.5147 11.5758C12.3877 11.901 12.237 12.1311 11.9911 12.377C11.7452 12.6229 11.5152 12.7736 11.1899 12.9005C10.944 12.9957 10.5712 13.1068 9.8969 13.1464C9.1592 13.1782 8.9371 13.1861 7.073 13.194C5.21679 13.202 4.99468 13.194 4.25696 13.1623ZM9.9525 3.74646C9.9525 4.20654 10.3332 4.57937 10.7933 4.57937C11.2534 4.57937 11.6342 4.19861 11.6262 3.73852C11.6262 3.27844 11.2455 2.90561 10.7854 2.90561C10.3253 2.90561 9.9525 3.28637 9.9525 3.74646ZM3.48751 7.4827C3.48751 9.4658 5.0978 11.0602 7.0809 11.0602C9.0561 11.0523 10.6585 9.4499 10.6585 7.4668C10.6505 5.4916 9.0482 3.88131 7.0651 3.88924C5.08193 3.89717 3.47957 5.50747 3.48751 7.4827ZM4.74084 7.4827C4.74084 6.19759 5.77999 5.15844 7.0651 5.15051C8.3501 5.15051 9.3972 6.18966 9.3972 7.4747C9.3972 8.7598 8.358 9.8069 7.073 9.8069C5.78792 9.8069 4.74877 8.7677 4.74084 7.4827Z" fill="white"/>
</svg>
