<svg width="298" height="62" viewBox="0 0 298 62" fill="none" xmlns="http://www.w3.org/2000/svg">
<path d="M31.0254 16.8921C31.0954 15.5857 30.7754 14.3924 30.3154 13.2618C29.9854 12.4328 29.5154 11.7167 28.9454 11.1263C28.5454 10.7118 28.0854 10.3852 27.6154 10.0963C26.9654 9.70688 26.2754 9.58127 25.5654 9.5059C24.8054 9.41797 24.0554 9.54358 23.3454 9.84506C22.7854 10.0712 22.2554 10.3978 21.7854 10.8751C21.5154 11.1515 21.2454 11.4404 20.9954 11.7419C20.8554 11.9177 20.7154 12.1062 20.5954 12.3071C20.2654 12.885 19.9654 13.5005 19.7154 14.1411C19.4054 14.9325 19.2854 15.7741 19.0954 16.6032C19.0554 16.7791 18.9954 16.9424 18.9354 17.0931C18.7154 17.6458 18.3054 17.4951 18.0554 17.1936C17.9954 17.1182 17.9354 17.0303 17.8854 16.9549C17.6754 16.6032 17.3954 16.5781 17.0854 16.6911C16.8454 16.7791 16.6154 16.8796 16.3854 16.9926C15.8954 17.2439 15.6554 17.0554 15.4054 16.6158C15.3054 16.4274 15.2054 16.2389 15.0854 16.0631C14.8654 15.749 14.5154 15.5857 14.1554 15.8244C13.9454 15.9626 13.6854 16.0128 13.4454 16.0631C13.0754 16.1384 12.6854 16.1761 12.3154 16.2515C12.0354 16.3017 11.7654 16.2515 11.5154 16.0882C11.0654 15.7993 11.0554 15.1209 11.4654 14.7567C11.9954 14.2919 12.5754 13.9653 13.1354 13.5884C13.7854 13.1613 14.3954 12.684 14.8254 11.9177C14.9554 11.6916 15.0454 11.4404 15.1454 11.2017C15.2854 10.8751 15.4054 10.5359 15.5554 10.2219C15.7954 9.74457 16.0454 9.27979 16.3054 8.82757C16.6154 8.28742 16.9954 7.81008 17.4054 7.37042C17.8554 6.88052 18.3654 6.46598 18.8554 6.03889C19.5254 5.46105 20.2754 5.07164 21.0154 4.65711C21.4254 4.431 21.8454 4.24258 22.2654 4.04159C22.7554 3.80292 23.0854 3.36326 23.3054 2.77287C23.4054 2.50907 23.5554 2.25784 23.6654 2.00661C23.8654 1.54183 24.1254 1.12729 24.3754 0.71276C24.5354 0.448966 24.7254 0.222857 24.9554 0.0972409C25.3154 -0.0911835 25.5854 -0.0283754 25.6754 0.486651C25.7754 1.06449 25.8954 1.62976 25.9454 2.20759C26.0054 2.82311 26.2954 3.17484 26.6754 3.45119C26.8154 3.55169 26.9754 3.6145 27.1254 3.66474C27.5554 3.81548 27.9854 3.95366 28.4054 4.16721C28.9754 4.46869 29.5454 4.74504 30.0954 5.12189C30.8554 5.63692 31.5654 6.22731 32.2454 6.89308C32.8354 7.47091 33.3654 8.12412 33.8554 8.82757C34.4954 9.75713 35.0354 10.7872 35.4354 11.9303C35.8354 13.0608 36.0954 14.2291 36.2054 15.4475C36.2654 16.1761 36.2954 16.9047 36.2654 17.6333C36.2254 18.5628 36.0954 19.4798 35.9054 20.3843C35.7254 21.2133 35.4554 21.9922 35.1754 22.7584C34.9354 23.3991 34.6054 24.002 34.2854 24.5924C33.9554 25.1828 33.6054 25.7481 33.2354 26.2882C32.9454 26.7153 32.6154 27.0922 32.2954 27.4816C31.9854 27.8584 31.6754 28.2353 31.3454 28.5619C30.8954 29.0141 30.4054 29.4161 29.9554 29.8683C29.7254 30.0944 29.5054 30.3456 29.3154 30.6345C29.0454 31.0365 29.0454 31.5139 29.2154 31.9786C29.5054 32.8077 29.8654 33.5865 30.2754 34.3151C30.5754 34.8427 30.9254 35.3452 31.2954 35.8099C31.7654 36.4129 32.2954 36.9154 32.8754 37.3425C33.6154 37.8952 34.4154 38.1841 35.2554 38.3976C36.1354 38.6112 36.9754 38.4479 37.8154 38.159C38.4854 37.9329 39.0754 37.5183 39.6054 36.9907C40.3654 36.2496 40.9854 35.3452 41.4254 34.2649C41.6554 33.6996 41.8454 33.1218 41.9854 32.5062C42.1554 31.7651 42.2154 31.0114 42.2154 30.2326C42.2154 29.4789 42.1154 28.7629 41.9754 28.0343C41.8054 27.1801 41.4754 26.4264 41.0854 25.723C40.8054 25.2205 40.4554 24.7683 40.0854 24.3537C39.7454 23.9643 39.3454 23.688 38.9554 23.3865C38.7154 23.1981 38.4354 23.085 38.1654 22.972C37.9354 22.8715 37.6954 22.7835 37.4454 22.7207C37.1954 22.6579 37.0554 22.4695 37.0054 22.1806C36.9554 21.9042 37.0454 21.6907 37.2154 21.5148C37.5054 21.2385 37.5154 20.8742 37.4154 20.4848C37.3954 20.4219 37.3654 20.3591 37.3554 20.2838C37.3154 20.1079 37.2754 19.932 37.2554 19.7562C37.2154 19.3416 37.2554 18.9648 37.5254 18.6382C37.6654 18.4623 37.7554 18.1985 37.8454 17.9599C37.9554 17.6584 37.9754 17.3318 37.8954 17.0177C37.8854 16.9549 37.8654 16.9047 37.8554 16.8419C37.7654 16.4399 37.6454 16.0631 37.5854 15.636C37.5154 15.0707 37.4054 14.518 37.4254 13.9401C37.4254 13.8397 37.3954 13.7266 37.3954 13.6261C37.3854 13.4628 37.3854 13.3121 37.5154 13.2116C37.6354 13.1236 37.7754 13.1362 37.9054 13.2995C38.0854 13.5131 38.2754 13.7266 38.4154 13.9778C38.7554 14.5682 39.0654 15.1838 39.3954 15.7993C39.4854 15.9626 39.5954 16.1259 39.6954 16.2766C39.7254 16.3269 39.7654 16.352 39.7954 16.4022C40.1354 17.0806 40.6754 17.4448 41.1754 17.8719C41.7254 18.3493 42.2654 18.8392 42.8054 19.3291C43.4254 19.8944 44.0054 20.535 44.5354 21.2385C45.2054 22.1303 45.7854 23.0976 46.2254 24.203C46.5754 25.0823 46.8954 25.9742 47.1554 26.9037C47.2354 27.2052 47.3554 27.4941 47.4554 27.7956C47.6454 28.3358 47.9754 28.6624 48.3854 28.9136C48.7554 29.1272 49.1154 29.3658 49.4854 29.6045C49.5854 29.6673 49.6754 29.7678 49.7554 29.8683C49.7854 29.906 49.8254 29.9562 49.8354 30.0065C49.9654 30.5089 49.7854 30.9235 49.3854 31.0742C49.0254 31.1998 48.6754 31.3506 48.3054 31.4385C47.9154 31.539 47.6754 31.853 47.5354 32.2676C47.3254 32.9082 47.1654 33.574 46.9854 34.2272C46.8654 34.6543 46.7154 35.0688 46.5954 35.4959C46.3954 36.2245 46.0854 36.8777 45.7854 37.5434C45.4554 38.272 45.0554 38.9503 44.6254 39.591C43.6754 40.9979 42.5354 42.1033 41.2354 42.9449C41.0054 43.0957 40.7654 43.2087 40.5254 43.3218C40.1754 43.4851 39.8354 43.661 39.4754 43.7866C38.7754 44.0252 38.0554 44.1509 37.3354 44.2262C37.0154 44.2513 36.6854 44.2765 36.3654 44.2765C35.6354 44.2765 34.9254 44.1634 34.2054 44.0001C33.2654 43.7991 32.3854 43.3846 31.5354 42.857C31.0554 42.5555 30.5654 42.2289 30.1154 41.8646C29.7354 41.5506 29.3954 41.1612 29.0454 40.7969C28.7054 40.4326 28.3554 40.0809 28.0554 39.6789C27.6654 39.1639 27.3154 38.6112 26.9654 38.0585C26.7554 37.7319 26.5854 37.3676 26.3754 37.0535C26.1054 36.639 25.8154 36.2622 25.3754 36.1491C25.0954 36.0863 24.8454 36.1491 24.6154 36.325C24.4654 36.438 24.3254 36.5511 24.1854 36.6767C23.4554 37.3299 22.7254 37.9831 22.0854 38.7745C21.4054 39.6035 20.8254 40.5457 20.4454 41.6511C20.0654 42.7565 19.8454 43.9122 19.8354 45.1307C19.8254 45.8592 19.8454 46.5627 20.0054 47.2661C20.1554 47.9193 20.3954 48.5349 20.6554 49.1378C20.8754 49.6528 21.1854 50.0799 21.4954 50.4945C22.0554 51.2482 22.7354 51.8134 23.5054 52.1652C24.5354 52.6425 25.6154 52.8309 26.7154 52.5546C27.3354 52.4038 27.9154 52.1149 28.4554 51.6878C29.0554 51.2105 29.5754 50.6327 30.0454 49.9669C30.4054 49.4519 30.7154 48.8866 30.9854 48.2962C31.3254 47.5551 31.6154 46.7637 31.7854 45.922C31.8254 45.7085 31.8754 45.5075 31.9354 45.3065C32.0654 44.8417 32.4754 44.7412 32.7254 45.1181C32.8954 45.3693 33.0554 45.6457 33.2054 45.922C33.4454 46.3491 33.7154 46.4496 34.0954 46.1984C34.2954 46.0728 34.4954 45.9472 34.7354 45.9472C34.9954 45.9346 35.1954 46.0477 35.3754 46.2612C35.5354 46.4496 35.6854 46.6506 35.8354 46.8516C35.9854 47.0652 36.1554 47.128 36.3754 47.0903C36.8654 47.0149 37.2954 46.7009 37.7554 46.5124C38.0654 46.3868 38.3654 46.2361 38.7054 46.2612C38.7554 46.2612 38.8054 46.2612 38.8454 46.2738C39.1154 46.3491 39.1954 46.6004 39.0154 46.8516C38.8254 47.1154 38.6054 47.3415 38.3854 47.5802C38.0354 47.957 37.6754 48.3339 37.3254 48.7107C37.2254 48.8238 37.1154 48.9117 37.0254 49.0373C36.8754 49.2258 36.7254 49.4393 36.5754 49.6403C36.2454 50.0799 35.9754 50.5824 35.7254 51.1226C35.4954 51.6125 35.2154 52.0772 34.9454 52.542C34.6654 53.0194 34.3854 53.4841 34.0954 53.9364C33.5754 54.7152 32.9654 55.3935 32.3154 56.009C31.7654 56.5241 31.1554 56.926 30.5554 57.3154C30.4354 57.3908 30.3054 57.4411 30.1854 57.4913C29.5854 57.7425 28.9754 57.9812 28.3754 58.2576C27.8854 58.4837 27.4854 58.8354 27.2954 59.4886C27.1054 60.1292 26.8154 60.7071 26.5054 61.2723C26.3754 61.5236 26.1654 61.7246 25.9554 61.9004C25.7254 62.1014 25.4454 61.9884 25.3554 61.6492C25.2754 61.3603 25.2254 61.0462 25.1954 60.7448C25.1654 60.3177 25.1054 59.9157 24.9454 59.5388C24.7954 59.1746 24.5554 58.9233 24.2954 58.6972C23.9254 58.3832 23.4954 58.2576 23.0654 58.1571C22.6554 58.0691 22.2554 57.931 21.8654 57.7048C21.5454 57.5164 21.2054 57.3782 20.8854 57.1898C20.5454 56.9763 20.2054 56.7502 19.8854 56.4989C19.1554 55.9462 18.5154 55.2553 17.8854 54.5268C17.6254 54.2253 17.4054 53.8484 17.1754 53.5093C16.9554 53.1827 16.7354 52.8561 16.5454 52.5043C16.2154 51.8888 15.9254 51.2482 15.6554 50.5824C15.3854 49.9041 15.1954 49.2006 15.0254 48.4721C14.9354 48.0575 14.8154 47.643 14.7554 47.2285C14.6854 46.7637 14.6454 46.2863 14.6254 45.809C14.5954 45.2186 14.5654 44.6282 14.5854 44.0504C14.6254 43.171 14.6354 42.2792 14.8754 41.425C15.0654 40.7592 15.1854 40.0683 15.4654 39.4403C15.7654 38.7368 16.0854 38.0459 16.4854 37.4053C17.1354 36.3501 17.8954 35.4331 18.6954 34.5538C19.0054 34.2146 19.3354 33.9006 19.6354 33.5614C20.1054 33.0338 20.5754 32.5062 21.0154 31.9535C21.2354 31.6772 21.3754 31.338 21.3454 30.9235C21.3354 30.8104 21.3354 30.7099 21.3454 30.5969C21.4054 30.0316 21.1954 29.5919 20.9254 29.19C20.6054 28.7001 20.2554 28.2353 19.9554 27.7328C19.4754 26.9163 18.8954 26.2254 18.2954 25.5848C17.8654 25.1326 17.3954 24.7557 16.8854 24.4291C15.9754 23.8513 15.0054 23.7131 14.0154 23.7885C13.3354 23.8387 12.6854 24.0397 12.0654 24.4165C11.3454 24.8436 10.7254 25.4089 10.1954 26.1375C9.69536 26.8284 9.30536 27.6198 9.03536 28.5116C8.85536 29.1397 8.67536 29.7552 8.62536 30.4084C8.56536 31.024 8.53536 31.6395 8.56536 32.2676C8.60536 32.9082 8.62536 33.5614 8.74536 34.1895C8.98536 35.4582 9.37536 36.6139 10.1454 37.5434C10.4054 37.8575 10.6954 38.0962 10.9954 38.3348C11.5754 38.7996 12.2354 38.988 12.8854 39.2141C12.9354 39.2267 12.9754 39.2393 13.0254 39.2644C13.4754 39.4151 13.5854 39.8422 13.2954 40.2944C12.9654 40.8095 12.9554 41.0356 13.2054 41.626C13.4454 42.1787 13.4854 42.7314 13.2354 43.3092C13.1454 43.5102 13.0654 43.7112 12.9954 43.9247C12.8254 44.4272 12.9054 44.9046 13.0554 45.3819C13.1354 45.6331 13.1754 45.9095 13.2254 46.1733C13.2554 46.3115 13.2554 46.4622 13.3054 46.5878C13.5154 47.1908 13.5154 47.8188 13.5254 48.4595C13.5254 48.56 13.4854 48.7358 13.4354 48.761C13.3354 48.7987 13.1954 48.7987 13.1154 48.7233C12.9454 48.56 12.7754 48.359 12.6654 48.1329C12.2854 47.3666 11.8554 46.6506 11.3654 46.01C11.0254 45.5578 10.6354 45.1683 10.2554 44.7789C9.82536 44.3393 9.37536 43.9373 8.94536 43.5102C8.47536 43.0454 8.00536 42.5681 7.56536 42.0656C7.16536 41.6134 6.79536 41.1109 6.42536 40.6085C5.81536 39.792 5.33536 38.8624 4.92536 37.87C4.78536 37.5434 4.65536 37.2043 4.52536 36.8777C4.39536 36.5511 4.29536 36.1994 4.14536 35.8727C3.93536 35.3954 3.80536 34.8804 3.65536 34.3779C3.55536 34.0387 3.43536 33.7121 3.28536 33.3981C3.22536 33.2599 3.10536 33.1469 2.98536 33.0841C2.48536 32.77 1.95536 32.5062 1.46536 32.1796C0.985357 31.8656 0.505358 31.539 0.205358 30.9235C0.0753579 30.6471 -0.0246429 30.3708 0.00535714 30.0442C0.0153571 29.8557 0.00535714 29.6547 0.00535714 29.4663C0.0153571 29.2653 0.0753576 29.1774 0.235358 29.1774C0.355358 29.1774 0.495358 29.1648 0.605358 29.2276C1.27536 29.5919 1.98536 29.5794 2.68536 29.5542C2.95536 29.5417 3.17536 29.3658 3.35536 29.1272C3.59536 28.8006 3.72536 28.4111 3.82536 27.9966C3.92536 27.5695 4.02536 27.1424 4.17536 26.7404C4.45536 25.9491 4.76536 25.1828 5.17536 24.4919C5.43536 24.0523 5.67536 23.5875 5.96536 23.1855C6.25536 22.7584 6.60536 22.4067 6.90536 21.9922C7.18536 21.6027 7.50536 21.3013 7.84536 20.9998C8.15536 20.7234 8.46536 20.4471 8.78536 20.1833C9.34536 19.7311 9.96536 19.417 10.5854 19.0904C11.1254 18.8141 11.6954 18.6759 12.2654 18.5377C12.6554 18.4372 13.0554 18.3493 13.4454 18.3116C14.2154 18.2237 14.9854 18.2111 15.7554 18.3744C16.5154 18.5377 17.2754 18.6759 18.0054 19.015C18.8154 19.3919 19.6054 19.8064 20.3154 20.4094C20.7954 20.8239 21.2854 21.2133 21.7354 21.6656C22.1154 22.0424 22.4554 22.4821 22.7954 22.9092C23.2654 23.4995 23.6954 24.1402 24.0854 24.8311C24.2754 25.1702 24.4754 25.5094 24.6754 25.836C25.1354 26.6023 26.0454 26.6776 26.5754 25.9616C26.9454 25.4592 27.3754 25.0446 27.7654 24.5673C28.0454 24.2281 28.3154 23.8764 28.5754 23.5121C28.8754 23.1101 29.1654 22.6956 29.4354 22.2685C29.6754 21.8917 29.8754 21.4897 30.0854 21.1003C30.1954 20.8867 30.3154 20.6857 30.4054 20.4596C30.8054 19.304 31.0754 18.1357 31.0254 16.8921Z" fill="white"/>
<path d="M121.255 17.5956C120.975 17.4574 120.695 17.2062 120.405 17.1936C118.525 17.0931 116.645 17.0177 114.855 18.0227C113.605 18.7261 112.275 18.9648 110.925 18.902C108.505 18.7889 106.975 15.3345 108.185 12.6965C108.995 10.9254 110.225 9.99579 111.875 9.97067C114.135 9.94554 116.405 10.1088 118.645 9.7948C122.565 9.24209 126.475 9.71943 130.385 9.55613C131.615 9.50589 132.845 9.21697 134.065 9.22953C135.665 9.24209 137.275 9.36771 138.875 9.58126C141.055 9.87017 143.195 10.4229 145.265 11.4655C146.585 12.1313 147.295 13.802 145.895 15.5857C144.575 17.2438 143.025 17.9473 141.215 17.6333C139.845 17.3946 138.485 16.9424 137.115 16.6535C135.695 16.3645 134.255 16.151 132.825 15.9374C132.565 15.8998 132.225 15.8746 132.045 16.0505C131.775 16.3017 131.495 16.7037 131.445 17.0805C131.415 17.3067 131.795 17.7589 132.055 17.8468C132.455 17.9975 132.905 17.9096 133.335 17.9599C134.135 18.0604 134.945 18.0855 135.715 18.3241C137.235 18.7889 137.875 19.7939 138.025 21.7158C138.085 22.4569 138.115 23.1981 138.135 23.9392C138.215 29.0643 138.295 34.1895 138.355 39.3146C138.395 42.2792 137.505 45.005 136.725 47.7058C136.085 49.9166 133.885 50.8588 132.455 49.5147C130.465 47.6304 128.315 48.0449 126.135 48.2459C125.545 48.2962 124.965 48.5349 124.385 48.5097C123.225 48.4595 122.155 48.7861 121.105 49.3514C120.465 49.6905 119.795 49.9669 119.125 50.2056C117.455 50.8085 116.585 50.3437 115.905 48.3339C115.075 45.8843 114.775 43.2715 114.825 40.621C114.885 37.4555 115.065 34.3025 115.105 31.137C115.125 29.5291 114.995 27.9087 114.865 26.3133C114.645 23.5247 116.145 20.4722 118.275 19.5426C118.885 19.2788 119.505 19.0904 120.115 18.8266C120.535 18.6382 120.935 18.3744 121.345 18.1483C121.295 17.9599 121.275 17.7714 121.255 17.5956ZM126.685 32.9836C127.695 33.6996 128.795 34.2648 129.665 35.1567C131.115 36.6516 130.695 38.0333 129.385 39.076C127.195 40.8095 124.785 40.5457 122.385 39.8171C122.335 39.8045 122.285 39.7668 122.245 39.7292C121.555 39.0006 120.665 38.3599 120.655 37.1038C120.645 35.8351 121.375 35.0688 122.245 34.5286C122.535 34.3402 122.805 34.089 123.085 33.8629C122.695 33.6619 122.385 33.7373 122.085 33.7624C121.705 33.7875 121.335 33.7498 120.955 33.8001C119.935 33.9131 119.375 34.6919 119.465 35.9355C119.565 37.2671 119.715 38.5986 119.915 39.9176C120.195 41.8144 120.285 41.94 121.805 41.8772C123.625 41.8144 125.445 41.5883 127.265 41.5003C128.175 41.4627 129.085 41.6008 130.005 41.6134C131.295 41.626 131.625 41.4878 131.865 39.9804C132.145 38.2218 132.145 36.3878 132.245 34.5915C132.305 33.4735 131.785 32.9961 130.955 32.9836C129.495 32.971 128.065 32.9836 126.685 32.9836ZM132.285 25.2707C132.055 25.0572 131.685 24.4417 131.295 24.4291C130.735 24.404 130.365 25.0195 130.395 25.8109C130.425 26.5646 130.705 27.1173 131.325 27.2178C131.805 27.2931 132.325 26.4013 132.285 25.2707ZM121.135 25.9239C120.465 25.7858 119.835 25.5722 119.765 26.6651C119.745 26.9791 120.055 27.5946 120.265 27.6197C121.175 27.7831 121.285 27.0294 121.135 25.9239ZM126.345 25.2707C126.245 25.1451 126.015 24.5924 125.725 24.5422C125.135 24.4417 125.045 25.1325 125.125 25.6601C125.195 26.1124 125.415 26.8409 125.645 26.8786C126.295 27.0168 126.365 26.3259 126.345 25.2707ZM127.135 17.068C126.615 16.6283 126.235 16.1259 126.095 16.2138C125.735 16.4525 125.475 16.9549 125.175 17.3443C125.445 17.583 125.745 18.0352 125.985 17.9975C126.315 17.9473 126.605 17.5202 127.135 17.068Z" fill="white"/>
<path d="M269.425 37.4555C268.485 37.2922 267.765 37.1666 266.845 37.0033C266.755 38.6991 266.645 40.2191 266.615 41.739C266.595 43.3595 266.685 44.9799 266.675 46.6004C266.665 47.4043 266.615 48.2208 266.455 48.9996C266.145 50.4568 265.595 50.9592 264.525 50.9592C263.655 50.9592 262.735 50.1679 262.485 49.0499C262.315 48.2836 262.255 47.4546 262.205 46.6506C262.075 44.6407 261.985 42.6183 261.845 40.6085C261.815 40.2442 261.645 39.8925 261.505 39.4151C260.385 40.2316 259.845 41.4752 259.315 42.6811C258.485 44.5779 257.265 45.9472 255.865 47.1154C255.645 47.3038 255.405 47.5425 255.155 47.5676C254.755 47.6179 254.195 47.6932 253.965 47.4169C253.735 47.1405 253.645 46.3491 253.795 45.9597C254.345 44.5026 254.895 43.0077 255.675 41.7516C257.645 38.5986 259.245 35.1693 260.775 31.6897C260.925 31.338 261.055 30.9611 261.145 30.5717C261.195 30.3331 261.155 30.0567 261.155 29.617C260.335 29.617 259.555 29.617 258.785 29.617C258.095 29.617 257.385 29.6924 256.715 29.5668C255.845 29.3909 254.975 28.989 254.825 27.7077C254.655 26.2631 254.765 24.8311 255.825 23.8764C257.085 22.7458 258.505 22.1931 260.045 22.168C260.905 22.1554 261.775 22.2182 262.625 22.1554C263.795 22.0675 264.965 21.9042 266.135 21.766C267.475 21.6027 268.805 21.4143 270.105 22.1178C271.235 22.7333 271.605 23.6377 271.005 24.9818C270.535 26.0244 269.885 26.954 269.245 27.8584C268.325 29.1523 268.355 29.7678 269.475 30.7476C269.915 31.137 270.305 31.6018 270.755 31.9661C271.715 32.7575 272.275 33.8378 272.285 35.3451C274.005 35.8979 275.535 35.2949 277.055 34.6417C277.655 34.3779 278.025 32.8328 277.815 32.0038C277.595 31.1244 277.075 30.7727 276.165 30.8983C275.685 30.9611 275.205 31.0742 274.725 31.0868C273.445 31.1119 272.815 30.5089 272.495 29.0267C272.155 27.4313 272.415 26.238 273.465 25.6099C274.565 24.9567 275.745 24.4417 276.915 24.0522C278.015 23.688 278.275 23.5247 278.325 22.0926C278.365 20.9495 278.395 19.7687 278.205 18.6633C277.915 16.9172 278.645 15.8495 279.535 14.832C279.805 14.518 280.155 14.2919 280.485 14.0783C282.025 13.0734 282.915 13.4754 283.485 15.5103C283.885 16.9675 284.145 18.4874 283.775 20.0451C283.655 20.5601 283.545 21.1003 283.525 21.6279C283.455 23.1729 283.915 23.7382 285.135 23.6503C285.615 23.6126 286.095 23.4995 286.565 23.3865C288.315 22.9594 290.385 25.4215 289.945 28.273C289.765 29.4412 289.095 30.0316 288.305 30.2703C287.115 30.622 285.885 30.7602 284.665 30.9611C284.245 31.0365 283.815 31.0616 283.305 31.1119C283.155 31.7023 282.955 32.255 282.895 32.8328C282.785 34.1015 283.215 34.6919 284.255 34.7422C287.205 34.8929 290.155 34.9934 293.105 35.1693C294.975 35.2698 296.325 36.5511 297.305 38.4353C297.915 39.6035 297.755 40.5582 296.975 41.5255C295.515 43.3469 293.725 43.4851 291.875 42.9072C289.205 42.0656 286.515 41.4627 283.755 41.6888C282.105 41.8269 280.475 42.3545 278.835 42.4299C276.565 42.5304 274.355 42.9952 272.185 43.7866C271.295 44.1132 270.405 44.49 269.645 43.4223C268.765 42.1787 268.355 40.7843 268.825 39.1388C268.955 38.674 269.135 38.2594 269.425 37.4555Z" fill="white"/>
<path d="M163.635 23.399C162.965 23.6503 162.525 23.8261 162.065 23.9769C160.735 24.4417 159.345 23.6 158.895 22.0675C158.365 20.221 158.935 18.3995 160.335 17.7212C162.095 16.8796 163.935 16.4022 165.825 16.4148C166.255 16.4148 166.685 16.4525 167.115 16.3771C168.895 16.0882 168.955 15.9123 169.055 13.6638C169.135 11.8675 169.865 10.3098 170.765 8.99086C171.605 7.77238 173.275 8.09898 173.945 9.56869C174.415 10.5987 174.735 11.7795 174.945 12.9352C175.445 15.6485 175.735 16.0002 177.995 15.8369C178.795 15.7741 179.595 15.6611 180.385 15.5355C181.745 15.3094 182.955 15.8746 184.065 16.7163C185.755 17.9975 185.695 20.4471 184.015 21.7283C182.945 22.5449 181.775 22.5951 180.585 22.5072C178.435 22.3439 178.265 22.4192 177.385 24.8688C175.925 28.9136 176.085 29.0895 178.425 31.8656C181.735 35.7597 185.455 38.9503 189.515 41.4878C190.575 42.1535 191.635 42.8193 192.605 43.6609C194.215 45.0553 193.965 47.5802 192.175 48.6353C192.025 48.7233 191.885 48.8363 191.735 48.874C189.175 49.4393 186.615 49.477 184.065 48.7986C183.645 48.6856 183.165 48.2334 182.925 47.7686C180.955 43.9499 178.135 41.0481 175.955 37.4681C175.605 36.8902 175.135 36.4003 174.685 35.9355C173.545 34.7673 172.955 34.8301 171.995 36.325C170.165 39.1764 168.105 41.7265 165.715 43.8242C163.445 45.8215 160.965 47.2284 158.115 47.3164C157.745 47.3289 157.345 47.3164 157.005 47.1656C156.145 46.7888 155.215 46.4496 155.145 44.9925C155.075 43.5228 155.185 42.1284 156.365 41.3119C157.505 40.5331 158.675 39.8799 160.035 40.0181C161.385 40.1563 162.575 39.6161 163.635 38.5735C165.125 37.1289 166.645 35.7471 168.105 34.2648C168.775 33.5865 169.355 32.6695 169.175 31.4887C168.995 30.3205 168.295 29.6924 167.365 29.4537C166.785 29.303 166.225 29.102 165.645 28.9262C163.835 28.4111 162.715 27.0545 163.495 24.7683C163.605 24.4668 163.575 24.1025 163.635 23.399ZM169.475 23.0096C170.055 24.6426 170.935 24.9944 171.815 25.1954C172.385 25.3335 172.955 24.5924 173.005 23.8387C173.075 22.9343 172.565 22.5825 172.015 22.5951C171.245 22.6077 170.475 22.8463 169.475 23.0096Z" fill="white"/>
<path d="M87.2854 38.8875C90.2554 38.586 92.7654 38.272 95.2754 38.1087C96.3254 38.0333 97.4254 38.0836 98.4554 38.3725C100.075 38.8373 100.725 40.5582 99.9554 42.4173C98.8154 45.1809 97.1354 47.3038 94.7954 48.4972C94.6454 48.5725 94.4654 48.5474 94.3354 48.6479C92.4354 50.1679 90.4554 49.8287 88.4454 49.0624C86.5554 48.3464 84.6354 47.7183 82.7454 47.0023C80.8054 46.2612 78.8754 45.4573 76.9454 44.7036C75.9754 44.3267 75.0054 43.9247 74.0154 43.6107C70.1354 42.3797 67.8054 37.958 68.6054 33.0715C69.0054 30.6471 69.6154 28.2604 70.1354 25.8611C70.2154 25.4717 70.3154 25.0823 70.3754 24.6803C70.5754 23.4619 70.1854 22.884 69.2154 22.9594C68.8954 22.9845 68.5954 23.1478 68.2754 23.2232C66.7154 23.5498 65.4154 22.8589 64.6554 21.3013C64.1054 20.1581 64.2554 18.0604 65.0854 16.7665C66.3154 14.8571 67.8354 13.601 69.8854 13.5256C72.2754 13.4377 74.5854 14.0029 76.8654 14.7315C79.0754 15.4475 79.7454 18.387 78.2554 20.6104C76.9654 22.5323 75.7754 24.517 75.1154 26.9163C74.7454 28.2478 74.4354 29.6045 74.1954 30.9863C73.8454 32.9961 75.4654 35.2195 76.9454 35.923C78.3454 36.5887 79.7954 37.1415 81.2554 37.5309C83.3854 38.1338 85.5554 38.5107 87.2854 38.8875Z" fill="white"/>
<path d="M235.835 44.5654C234.615 44.088 233.375 43.6861 232.185 43.1082C230.435 42.2666 228.715 41.337 227.005 40.3824C224.555 39.0257 222.385 37.2043 221.235 34.0136C220.995 33.3604 220.895 32.5942 220.855 31.8656C220.685 28.4363 220.695 24.9818 220.345 21.5776C220.145 19.618 220.685 18.1608 221.425 16.6911C222.545 14.4677 223.825 14.3421 225.285 16.2892C225.655 16.7791 225.955 17.3443 226.235 17.9222C226.675 18.8141 227.275 19.2035 228.115 19.1909C229.515 19.1658 230.905 19.2411 232.305 19.2537C234.025 19.2663 235.385 20.5099 235.635 22.3187C235.855 23.8764 235.415 24.9818 234.185 25.4466C232.965 25.9114 231.685 26.1375 230.425 26.4766C229.225 26.7907 227.965 26.9163 226.845 27.469C225.445 28.1599 225.305 29.4286 226.375 30.7853C227.055 31.6395 227.815 32.4309 228.635 33.0464C230.425 34.3905 232.195 35.6089 234.475 35.4833C236.535 35.3703 238.625 35.9607 240.705 36.2873C241.175 36.3626 241.645 36.6013 242.055 36.9028C243.345 37.8072 243.515 39.4151 242.475 40.7718C240.685 43.1208 238.535 44.4523 235.835 44.5654Z" fill="white"/>
<path d="M213.855 13.6889C215.215 13.8899 216.375 14.5305 217.045 16.0882C217.715 17.6584 217.225 19.0778 216.505 20.4219C216.445 20.535 216.375 20.6606 216.285 20.7109C213.525 22.4569 213.875 25.8486 213.775 28.8131C213.615 33.7121 213.735 38.6112 214.225 43.4976C214.365 44.8669 214.135 46.324 213.905 47.6932C213.795 48.359 213.345 48.9996 212.935 49.4895C212.255 50.306 211.535 50.2055 210.795 49.4142C210.075 48.6605 209.815 47.6681 209.765 46.5627C209.575 41.9902 209.425 37.4178 209.195 32.8579C209.085 30.7853 208.875 28.7126 208.595 26.6776C208.365 24.9944 208.255 25.0321 206.915 24.8436C206.235 24.7431 205.535 24.5673 204.905 24.2281C203.645 23.5498 202.845 21.9168 202.985 20.3717C203.145 18.6131 203.615 17.1685 205.215 16.6283C207.175 15.9751 209.085 15.0456 211.035 14.3296C211.955 13.9904 212.925 13.8899 213.855 13.6889Z" fill="white"/>
<path d="M264.875 13.2367C266.345 13.0985 267.595 13.5884 268.745 15.033C269.735 16.2766 269.515 18.5126 268.335 19.1155C266.015 20.2838 263.595 20.8867 261.115 20.0074C259.975 19.6054 259.435 18.3744 259.515 16.8544C259.595 15.3722 260.615 13.8773 261.795 13.5633C262.365 13.4126 262.955 13.3121 263.545 13.2367C263.975 13.199 264.405 13.2367 264.875 13.2367Z" fill="white"/>
</svg>
