<svg width="38" height="38" viewBox="0 0 38 38" fill="none" xmlns="http://www.w3.org/2000/svg">
<path d="M11.254 1C9.26459 1.08333 7.91009 1.39583 6.72491 1.85417C5.51856 2.33333 4.48152 2.95833 3.44449 3.97917C2.40745 5 1.77253 6.02083 1.30692 7.22917C0.84131 8.39583 0.545014 9.72917 0.439194 11.6875C0.354538 13.6458 0.333374 14.2708 0.333374 19.25C0.354538 24.2292 0.375702 24.8542 0.460358 26.8125C0.545014 28.7708 0.862474 30.1042 1.32808 31.25C1.81486 32.4583 2.44978 33.4792 3.48681 34.5C4.52385 35.5208 5.56089 36.1458 6.7884 36.6042C7.97359 37.0625 9.32808 37.3542 11.3175 37.4583C13.3069 37.5417 13.9418 37.5625 19 37.5625C24.0582 37.5417 24.6932 37.5417 26.6826 37.4375C28.672 37.3542 30.0265 37.0417 31.2117 36.5833C32.4392 36.1042 33.4762 35.4792 34.5133 34.4583C35.5503 33.4375 36.1852 32.4167 36.6508 31.2083C37.1164 30.0417 37.4127 28.7083 37.5186 26.75C37.6032 24.7917 37.6244 24.1667 37.6244 19.1875C37.6032 14.2083 37.6032 13.5833 37.4974 11.625C37.4127 9.66667 37.0953 8.33333 36.6297 7.16667C36.1429 5.95833 35.508 4.9375 34.4709 3.91667C33.4339 2.89583 32.3969 2.27083 31.1694 1.8125C29.9842 1.35417 28.6297 1.0625 26.6403 0.958333C24.6297 0.895833 23.9947 0.875 18.9365 0.875C13.8783 0.895833 13.2434 0.916667 11.254 1ZM11.4656 34.1458C9.64554 34.0625 8.672 33.7708 8.01591 33.5208C7.14819 33.1875 6.53443 32.7917 5.87835 32.1458C5.22226 31.5 4.82015 30.8958 4.48152 30.0417C4.22755 29.3958 3.91009 28.4167 3.82544 26.6458C3.74078 24.7083 3.71962 24.125 3.69845 19.2292C3.69845 14.3333 3.69845 13.75 3.78311 11.8125C3.86777 10.0208 4.16406 9.0625 4.41803 8.41667C4.75665 7.5625 5.15877 6.95833 5.81486 6.3125C6.47094 5.66667 7.0847 5.27083 7.95242 4.9375C8.60851 4.6875 9.60322 4.39583 11.4022 4.29167C13.3704 4.20833 13.963 4.1875 18.9154 4.16667C23.8889 4.16667 24.4815 4.16667 26.4498 4.25C28.2699 4.33333 29.2434 4.625 29.8995 4.875C30.7672 5.20833 31.4022 5.60417 32.0371 6.25C32.6932 6.89583 33.0953 7.5 33.4339 8.35417C33.6879 9 33.9842 9.97917 34.09 11.75C34.1746 13.6875 34.1958 14.2708 34.217 19.1458C34.2381 24.0417 34.217 24.625 34.1323 26.5625C34.0477 28.3542 33.7514 29.3125 33.4974 29.9792C33.1588 30.8333 32.7567 31.4375 32.1006 32.0833C31.4445 32.7292 30.8307 33.125 29.963 33.4583C29.3069 33.7083 28.3122 34 26.5133 34.1042C24.545 34.1875 23.9524 34.2083 18.9789 34.2292C14.0265 34.25 13.4339 34.2292 11.4656 34.1458ZM26.6614 9.41667C26.6614 10.625 27.6773 11.6042 28.9048 11.6042C30.1323 11.6042 31.1482 10.6042 31.127 9.39583C31.127 8.1875 30.1112 7.20833 28.8836 7.20833C27.6561 7.20833 26.6614 8.20833 26.6614 9.41667ZM9.41274 19.2292C9.41274 24.4375 13.709 28.625 19 28.625C24.2699 28.6042 28.545 24.3958 28.545 19.1875C28.5239 14 24.2487 9.77083 18.9577 9.79167C13.6667 9.8125 9.39158 14.0417 9.41274 19.2292ZM12.7567 19.2292C12.7567 15.8542 15.5291 13.125 18.9577 13.1042C22.3863 13.1042 25.1799 15.8333 25.1799 19.2083C25.1799 22.5833 22.4074 25.3333 18.9789 25.3333C15.5503 25.3333 12.7778 22.6042 12.7567 19.2292Z" fill="white"/>
</svg>
