<svg width="16" height="11" viewBox="0 0 16 11" fill="none" xmlns="http://www.w3.org/2000/svg">
<path d="M14.8148 1.7824C14.6419 1.16813 14.1339 0.683543 13.4889 0.519693C12.3187 0.220703 7.62834 0.220703 7.62834 0.220703C7.62834 0.220703 2.93712 0.220703 1.76778 0.519693C1.12277 0.683543 0.61393 1.16813 0.44106 1.7824C0.12793 2.89679 0.12793 5.2211 0.12793 5.2211C0.12793 5.2211 0.12793 7.5454 0.44106 8.6598C0.61393 9.2748 1.12195 9.7586 1.76778 9.9225C2.93793 10.2207 7.62834 10.2207 7.62834 10.2207C7.62834 10.2207 12.3187 10.2207 13.4889 9.9225C14.1339 9.7579 14.6427 9.2741 14.8148 8.6598C15.1279 7.5454 15.1279 5.2211 15.1279 5.2211C15.1279 5.2211 15.1279 2.89679 14.8148 1.7824ZM6.12793 7.3637V3.07774L10.0249 5.2211L6.12793 7.3637Z" fill="white"/>
</svg>
