<svg xmlns="http://www.w3.org/2000/svg" width="171.532" height="34.87" viewBox="0 0 171.532 34.87">
  <g id="logo_b" transform="translate(-313.003 -628.069)">
    <path id="path178" d="M410.189,671.69a8.936,8.936,0,0,0-3.652-1.031c-1.031,0-1.691.373-1.691.947,0,1.742,5.868,1.251,5.868,5.276,0,2.216-1.86,3.5-4.43,3.5a7.818,7.818,0,0,1-4.161-1.117V676.78a6.689,6.689,0,0,0,3.941,1.488c1.1,0,1.691-.388,1.691-1.065,0-1.895-5.869-1.2-5.869-5.344,0-2,1.725-3.314,4.4-3.314a9.429,9.429,0,0,1,3.906.9v2.248" transform="translate(-51.462 -23.435)"/>
    <path id="path180" d="M432.425,683.882c-.254,0-.406-.153-.406-.541V679.79c0-1.708-1.336-2.367-3.3-2.367a6.339,6.339,0,0,0-3.382.946v2a4.257,4.257,0,0,1,2.874-1.3c1.065,0,1.4.575,1.353,1.3-3.263,1.015-4.633,1.387-4.633,3.247a2.081,2.081,0,0,0,2.182,1.911,4.355,4.355,0,0,0,2.57-.88c.169.626.558.88,1.369.88a5.111,5.111,0,0,0,2.3-.711v-1.37C432.78,683.848,432.593,683.882,432.425,683.882Zm-2.859-.405a2.074,2.074,0,0,1-1.353.592.812.812,0,0,1-.795-.828c0-.778.694-1.117,2.147-1.641v1.878" transform="translate(-64.806 -28.575)"/>
    <path id="path182" d="M444.2,677.782h2.621l1.657,4.3,1.675-4.3h2.6l-3.585,7.949h-1.369l-3.6-7.949" transform="translate(-75.964 -28.783)"/>
    <path id="path184" d="M467.82,681.87h5.6a4.075,4.075,0,1,0-8.134-.372c0,2.435,1.776,4.025,4.515,4.025a5.649,5.649,0,0,0,3.484-1.031v-1.54a4.578,4.578,0,0,1-2.892,1.117A2.279,2.279,0,0,1,467.82,681.87Zm1.742-2.993a1.677,1.677,0,0,1,1.691,1.708H467.87a1.657,1.657,0,0,1,1.691-1.708" transform="translate(-88.168 -28.575)"/>
    <path id="path186" d="M502.4,676.084h-2.841V679.3a1.133,1.133,0,0,0,1.2,1.25,3.409,3.409,0,0,0,1.64-.456v1.776a5.552,5.552,0,0,1-2.266.49c-1.623,0-3.027-.744-3.027-2.926v-3.348H496v-.474l3.264-3.653h.3v2.452H502.4v1.675" transform="translate(-105.95 -25.411)"/>
    <path id="path188" d="M515.95,673.794h.034a3.013,3.013,0,0,1,2.469-1.3,2.732,2.732,0,0,1,2.858,2.977v4.971h-2.452v-4.448c0-1.166-.507-1.707-1.268-1.707-.575,0-1.065.355-1.64,1.184v4.971H513.5V668.907h2.452v4.887" transform="translate(-116.084 -23.645)"/>
    <path id="path190" d="M537.637,681.87h5.6a4.076,4.076,0,1,0-8.134-.372c0,2.435,1.776,4.025,4.514,4.025a5.646,5.646,0,0,0,3.484-1.031v-1.54a4.573,4.573,0,0,1-2.891,1.117A2.279,2.279,0,0,1,537.637,681.87Zm1.741-2.993a1.677,1.677,0,0,1,1.691,1.708h-3.382a1.656,1.656,0,0,1,1.69-1.708" transform="translate(-128.591 -28.575)"/>
    <path id="path192" d="M578.463,679.232a8.955,8.955,0,0,1-4.532,1.15c-4.481,0-6.713-2.909-6.713-5.886,0-3.078,2.52-5.952,6.933-5.952a8.132,8.132,0,0,1,4.178,1.015v2.57a8.048,8.048,0,0,0-3.974-1.184c-2.452,0-4.178,1.455-4.178,3.5,0,2.063,1.708,3.534,4.11,3.534a8.963,8.963,0,0,0,4.176-1.268v2.52" transform="translate(-147.187 -23.435)"/>
    <path id="path194" d="M600.437,673.794h.034a3.013,3.013,0,0,1,2.469-1.3,2.732,2.732,0,0,1,2.858,2.977v4.971h-2.452v-4.448c0-1.166-.507-1.707-1.268-1.707-.575,0-1.065.355-1.64,1.184v4.971h-2.452V668.907h2.452v4.887" transform="translate(-165 -23.645)"/>
    <path id="path196" d="M620.63,685.579h2.452v-7.8H620.63Z" transform="translate(-178.112 -28.783)"/>
    <path id="path198" d="M623.015,669.9a1.353,1.353,0,1,1-1.352-1.352,1.357,1.357,0,0,1,1.352,1.352" transform="translate(-177.926 -23.435)"/>
    <path id="path200" d="M630.713,680.44h2.452V668.907h-2.452Z" transform="translate(-183.949 -23.645)"/>
    <path id="path202" d="M645.488,668.907v4.075a4.531,4.531,0,0,0-2.029-.49,4.065,4.065,0,0,0-.136,8.1,3.2,3.2,0,0,0,2.165-.778v.625h2.452V668.907Zm0,9.4a2.057,2.057,0,0,1-1.455.642c-1.149,0-1.877-.947-1.877-2.367,0-1.556.727-2.452,1.961-2.452a2.652,2.652,0,0,1,1.37.457v3.721" transform="translate(-189.136 -23.644)"/>
    <path id="path204" d="M665.892,679.807h.034c.726-1.623,1.539-2.384,2.485-2.384a2.666,2.666,0,0,1,1.624.709l-.677,2.165a2.821,2.821,0,0,0-1.455-.575c-.9,0-1.47.845-2.011,2.283v3.365H663.44v-7.8h2.452v2.232" transform="translate(-202.898 -28.575)"/>
    <path id="path206" d="M682.085,681.87h5.6a4.076,4.076,0,1,0-8.134-.372c0,2.435,1.776,4.025,4.515,4.025a5.645,5.645,0,0,0,3.483-1.031v-1.54a4.573,4.573,0,0,1-2.891,1.117A2.279,2.279,0,0,1,682.085,681.87Zm1.742-2.993a1.677,1.677,0,0,1,1.69,1.708h-3.382a1.657,1.657,0,0,1,1.691-1.708" transform="translate(-212.224 -28.575)"/>
    <path id="path208" d="M704.282,678.689a3.14,3.14,0,0,1,2.537-1.267,2.729,2.729,0,0,1,2.841,2.993v4.954h-2.452v-4.752c0-1.1-.524-1.556-1.217-1.556-.609,0-1.066.321-1.708,1.285v5.023H701.83v-7.8h2.452v1.116" transform="translate(-225.125 -28.574)"/>
    <path id="path210" d="M344.006,637.578c1.555-1.6,2.245-2.339,2.137-2.777a1.469,1.469,0,0,0-.888-.86,2.271,2.271,0,0,0-1.651-.195,5.6,5.6,0,0,0-.871.8l-.491.481h0c-.269-.315-.557-.63-.841-.915a15.5,15.5,0,0,0-7.546-4.151,4.752,4.752,0,0,0-4.086-1.871,4.6,4.6,0,0,0-3.277,1.905,17.383,17.383,0,0,0-8.071,4.369v0a3.588,3.588,0,0,0-2.186.249,1.1,1.1,0,0,0-.681.664c-.051.2.011.52.755,1.5v0a17.123,17.123,0,0,0-3.286,10.855,15.641,15.641,0,0,0,4.531,10.332,15.42,15.42,0,0,0,3.222,2.469h0a19.07,19.07,0,0,0,17.776.591l.01,0a.966.966,0,0,0,.465-1.244l-.056-.154c-.755-2.062-3.053-8.339-1.159-13.792.794-2.282,2.789-4.633,4.5-6.468h0a15.211,15.211,0,0,1,1.81,8.921,13.9,13.9,0,0,1-3.3,7.638h0a.326.326,0,0,0-.089.225.548.548,0,0,0,.017.105l.145.413a.329.329,0,0,0,.548.108h.011a16.729,16.729,0,0,0,2.563-19.189h0Zm-20.613,11.786a31.489,31.489,0,0,0-1.04,9.238v0a15.742,15.742,0,0,1-3.065-2.381,15.465,15.465,0,0,1-4.457-9.239,14.335,14.335,0,0,1,2.182-9.337h0c.555.664,1.228,1.432,1.934,2.234a48.1,48.1,0,0,1,4.6,5.741c.533.9.274,1.969-.156,3.746Zm17.053-12.674c-3.649,3.2-7,4.836-9.939,4.856a11.951,11.951,0,0,1-6.956-2.484,27.335,27.335,0,0,1-4.282-3.906l-.089-.1h0a13.948,13.948,0,0,1,6.427-3.4v0h0s0,0,0,0a7,7,0,0,0-.341,2.9,6.6,6.6,0,0,0,2.218,4.483,4.423,4.423,0,0,0,6.437-.563,6.589,6.589,0,0,0,1.405-4.8,7.279,7.279,0,0,0-.153-.98h0a15.574,15.574,0,0,1,4.489,3.141c.266.267.53.551.785.846h0" transform="translate(0 0)" fill="#ed1b2d"/>
  </g>
</svg>
