<svg width="90" height="30" viewBox="0 0 90 30" fill="none" xmlns="http://www.w3.org/2000/svg">
<path d="M31.2486 5.37865L31.2486 5.37866L31.2507 5.37315C31.6016 4.44774 32.0748 3.67395 32.8565 2.89178C33.6379 2.10994 34.4132 1.63436 35.3269 1.26518C36.2224 0.913448 37.2562 0.667779 38.8067 0.601762C40.3975 0.534031 40.9009 0.517025 44.967 0.5C48.9994 0.500003 49.529 0.516741 51.1088 0.566665L51.1422 0.567722C52.6992 0.65099 53.7326 0.881493 54.6241 1.23195L54.6241 1.23198L54.6296 1.23408C55.5544 1.58506 56.3277 2.05851 57.1095 2.84068C57.8908 3.62247 58.3657 4.39769 58.7345 5.32799C59.0865 6.22442 59.3323 7.25924 59.3983 8.8117L59.3983 8.81171L59.3985 8.817C59.4808 10.3637 59.4829 10.876 59.4987 14.675L59.5 14.9744C59.5 14.9748 59.5 14.9752 59.5 14.9756C59.5 19.0413 59.483 19.5459 59.4154 21.1345C59.3323 22.694 59.1019 23.7287 58.7514 24.6214L58.7514 24.6213L58.7493 24.6269C58.3984 25.5523 57.9252 26.326 57.1435 27.1082C56.3621 27.8901 55.5872 28.3653 54.6574 28.7343C53.7616 29.0863 52.7275 29.3322 51.1762 29.3982L51.1709 29.3985C49.6251 29.4808 49.1132 29.4829 45.3163 29.4987L45.017 29.5C45.0168 29.5 45.0165 29.5 45.0163 29.5C40.9524 29.5 40.4482 29.483 38.8603 29.4154C37.3019 29.3322 36.2679 29.1017 35.3759 28.751L35.3759 28.751L35.3704 28.7489C34.4456 28.3979 33.6723 27.9245 32.8905 27.1423C32.1089 26.3602 31.6339 25.5847 31.2651 24.6539L31.2645 24.6526C30.9138 23.7753 30.6678 22.7417 30.6017 21.1883C30.534 19.5966 30.517 19.0929 30.5 15.0245C30.5 10.9587 30.517 10.4541 30.5846 8.86548C30.6677 7.306 30.8981 6.27132 31.2486 5.37865ZM38.9325 27.7056L38.9342 27.7057C40.5292 27.7743 41.0149 27.7913 45.0021 27.7743C49.0056 27.7572 49.4898 27.7402 51.0828 27.6716L51.0828 27.6717L51.0907 27.6712C52.5877 27.5831 53.4391 27.3341 54.0171 27.1102L54.0184 27.1097C54.7811 26.8119 55.3333 26.4499 55.9098 25.873C56.4864 25.2962 56.8481 24.7437 57.1457 23.9807L57.1458 23.9807L57.1481 23.9745C57.3698 23.383 57.6195 22.5481 57.6902 21.0283L57.6902 21.0266C57.7588 19.4307 57.7758 18.9447 57.7588 14.9382C57.7418 10.9495 57.7247 10.465 57.6562 8.8712L57.6562 8.8712L57.6558 8.86333C57.5677 7.36555 57.3189 6.51374 57.0951 5.93543L57.0947 5.93416C56.7975 5.17236 56.4365 4.62045 55.8616 4.04464C55.2965 3.46117 54.7237 3.10045 53.9673 2.80511L53.9661 2.80462C53.3877 2.5806 52.5513 2.33097 51.0335 2.26033L51.0317 2.26026C49.4375 2.19165 48.9491 2.19165 44.9631 2.19165L44.9489 2.19165L44.9468 2.19166C40.9603 2.2087 40.4761 2.22578 38.8832 2.29433L38.8832 2.29427L38.8753 2.29473C37.3783 2.38284 36.5268 2.63184 35.9488 2.85572L35.9475 2.85622C35.1848 3.15404 34.6326 3.51604 34.0561 4.09288C33.4796 4.66973 33.1178 5.2222 32.8202 5.98527L32.8197 5.98654C32.5959 6.56518 32.3464 7.40193 32.2758 8.92056L32.2757 8.92231C32.2072 10.5174 32.2072 11.0061 32.2072 14.9943L32.2071 15.0085L32.2072 15.0106C32.2242 19.0164 32.2413 19.5009 32.3098 21.0947L32.3099 21.0967C32.3807 22.6034 32.6489 23.457 32.8708 24.0305L32.8713 24.0318C33.1689 24.7948 33.5307 25.3473 34.1072 25.9242C34.6837 26.501 35.2359 26.863 35.9986 27.1608L35.9999 27.1613C36.5783 27.3853 37.4146 27.635 38.9325 27.7056ZM54.273 6.96763H54.2729L54.2731 6.97625C54.2852 7.68004 53.6981 8.27342 52.9852 8.27342C52.268 8.27342 51.6805 7.69072 51.6805 6.98467C51.6805 6.26628 52.2633 5.67888 52.9682 5.67888C53.6855 5.67888 54.273 6.26158 54.273 6.96763ZM37.8042 15.0085L37.8042 15.0065C37.7883 11.0421 41.0032 7.80724 44.985 7.79131C48.9617 7.77539 52.1794 11.0068 52.1958 14.9755C52.1952 18.9581 48.9795 22.1752 45.016 22.1917C41.0335 22.1911 37.8042 18.9884 37.8042 15.0085ZM44.983 9.49999L44.9799 9.50001C41.9483 9.51873 39.4943 11.9723 39.4943 15.0085L39.4943 15.0116C39.513 18.0443 41.9648 20.5 45 20.5C48.0369 20.5 50.4886 18.0249 50.4886 14.9915C50.4886 11.9536 48.0154 9.5 44.983 9.49999Z" stroke="white"/>
<path d="M79.7804 16.902C79.6174 16.6529 77.1704 12.4837 74.7795 8.40372C73.5774 6.3523 72.3842 4.31449 71.4916 2.78955L70.4145 0.949168L70.1517 0.5H60.5V29.5H69.8947V20.2527C69.8947 17.5844 69.7235 16.7707 69.483 15.6282C69.4046 15.2557 69.3189 14.8482 69.2293 14.33L69.2178 14.2637L69.2243 14.1966L69.722 14.2449C69.2243 14.1966 69.2243 14.1964 69.2243 14.1962L69.2244 14.1958L69.2245 14.1951L69.2246 14.1933L69.2251 14.1893L69.2262 14.1792C69.2269 14.1741 69.2277 14.168 69.2286 14.1612C69.2291 14.158 69.2296 14.1546 69.2302 14.1511C69.2335 14.1295 69.2388 14.0996 69.2473 14.0655C69.2594 14.0164 69.2951 13.8817 69.3955 13.7631C69.4523 13.696 69.5486 13.6123 69.6917 13.5751C69.8406 13.5364 69.9785 13.5641 70.0837 13.613C70.2604 13.695 70.3788 13.8507 70.4566 13.9696C70.457 13.9702 70.4574 13.9708 70.4578 13.9714L70.1534 14.1703M79.7804 16.902L70.1504 14.1708L70.1534 14.1703M79.7804 16.902C79.859 17.0227 79.9774 17.1804 80.1531 17.2642C80.2584 17.3144 80.4002 17.345 80.5547 17.3032C80.7027 17.2632 80.7994 17.1735 80.8546 17.1045C80.9519 16.9827 80.984 16.8457 80.9947 16.797C81.0023 16.7626 81.0069 16.7325 81.0098 16.7108C81.0112 16.6997 81.0123 16.6902 81.013 16.6826L81.014 16.6726L81.0143 16.6686L81.0144 16.6669L81.0145 16.6662L81.0145 16.6658C81.0145 16.6656 81.0146 16.6654 80.516 16.6281L81.0146 16.6654L81.0192 16.6028L81.0083 16.541C80.9058 15.9615 80.8029 15.459 80.7051 14.9816C80.3745 13.3671 80.1026 12.0391 80.1026 8.99215V0.5M79.7804 16.902L80.1026 0.5M70.1534 14.1703L70.2147 14.1597C70.247 14.3467 70.2791 14.52 70.3108 14.6833L70.1534 14.1703ZM80.1026 0.5H89.5V29.5H79.8843L80.1026 0.5Z" stroke="white"/>
<path d="M30 15.0012L29.5 15.0011V15.0009V15.0001L29.5 14.9965L29.5 14.9818L29.4998 14.9235C29.4997 14.8721 29.4994 14.7962 29.4988 14.6981C29.4976 14.5021 29.4951 14.2179 29.4903 13.8663C29.4805 13.1631 29.461 12.1908 29.422 11.1149C29.3437 8.9522 29.1877 6.40763 28.8823 4.77716C28.5556 3.03635 27.6149 1.7723 26.5439 1.36418L26.543 1.36383C26.0272 1.16615 25.0639 1.00225 23.8513 0.8757C22.6572 0.75108 21.2766 0.667526 19.9625 0.611668C18.6495 0.555859 17.4086 0.527927 16.4955 0.513957C16.0391 0.506974 15.665 0.503484 15.4051 0.501741C15.2752 0.500869 15.1739 0.500434 15.1052 0.500216L15.027 0.500027L15.0072 0.500003L15.0023 0.5L15.0012 0.5L15.0009 0.5L15.0008 0L15.0008 0.5L15.0005 0.5L14.9993 0.5L14.9944 0.500003L14.9746 0.500027L14.8965 0.500216C14.8277 0.500434 14.7264 0.500869 14.5964 0.501741C14.3366 0.503484 13.9624 0.506974 13.5059 0.513957C12.5927 0.527927 11.3516 0.555859 10.0385 0.611668C8.72427 0.667526 7.34363 0.75108 6.14966 0.8757C4.93714 1.00225 3.97406 1.16615 3.45874 1.36379L3.45774 1.36418C2.38645 1.7724 1.44429 3.03671 1.11771 4.77716C0.812281 6.40763 0.656294 8.9522 0.577954 11.1149C0.538981 12.1908 0.519485 13.1631 0.509737 13.8663C0.504864 14.2179 0.50243 14.5021 0.501213 14.6981C0.500605 14.7962 0.500302 14.8721 0.500151 14.9235L0.500019 14.9818L0.500002 14.9965L0.5 15.0001L0.5 15.0009V15.0011L0 15.0012L0.5 15.0012V15.0014L0.5 15.0023L0.500002 15.0059L0.500019 15.0206L0.500151 15.0788C0.500302 15.1302 0.500605 15.2062 0.501213 15.3042C0.50243 15.5003 0.504864 15.7844 0.509737 16.136C0.519485 16.8393 0.538981 17.8115 0.577954 18.8874C0.656294 21.0501 0.812281 23.5947 1.11771 25.2252C1.44428 26.968 2.38481 28.2298 3.45754 28.6381L3.45823 28.6383C3.97415 28.8356 4.93764 28.999 6.15021 29.1253C7.3443 29.2496 8.72491 29.3329 10.0391 29.3886C11.3521 29.4443 12.593 29.4721 13.5061 29.4861C13.9625 29.493 14.3367 29.4965 14.5965 29.4983C14.7264 29.4991 14.8277 29.4996 14.8965 29.4998L14.9746 29.5L14.9944 29.5L14.9993 29.5H15.0005H15.0008L15.0008 30L15.0009 29.5H15.0012H15.0023L15.0072 29.5L15.027 29.5L15.1052 29.4998C15.1739 29.4996 15.2752 29.4991 15.4051 29.4983C15.665 29.4965 16.0391 29.493 16.4955 29.4861C17.4086 29.4721 18.6496 29.4443 19.9626 29.3886C21.2767 29.3329 22.6573 29.2496 23.8514 29.1253C25.064 28.9991 26.0274 28.8356 26.5434 28.6384L30 15.0012ZM30 15.0012L29.5 15.0012V15.0014V15.0023L29.5 15.0059L29.5 15.0206L29.4998 15.0788C29.4997 15.1302 29.4994 15.2062 29.4988 15.3042C29.4976 15.5003 29.4951 15.7844 29.4903 16.136C29.4805 16.8393 29.461 17.8115 29.422 18.8874C29.3437 21.0501 29.1877 23.5947 28.8823 25.2252L28.8822 25.2255C28.5574 26.9649 27.6156 28.2277 26.5434 28.6383L30 15.0012ZM11.5 21.4289V22.4894L12.3181 21.8147L20.1121 15.3869L20.5797 15.0012L20.1122 14.6155L12.3182 8.18541L11.5 7.5104V8.5711V21.4289Z" stroke="white"/>
</svg>
