<svg width="161" height="23" viewBox="0 0 161 23" fill="none" xmlns="http://www.w3.org/2000/svg">
<path d="M0.84 22V20.41H2.07C2.37 20.41 2.63 20.37 2.85 20.29C3.09 20.19 3.28 20 3.42 19.72C3.56 19.44 3.63 19.02 3.63 18.46V4.09C3.63 3.55 3.56 3.15 3.42 2.89C3.28 2.61 3.09 2.42 2.85 2.32C2.61 2.22 2.35 2.17 2.07 2.17H0.84V0.579999H9.6C12.46 0.579999 14.6 1.02 16.02 1.9C17.46 2.78 18.18 4.16 18.18 6.04C18.18 6.92 18.02 7.66 17.7 8.26C17.38 8.84 16.94 9.32 16.38 9.7C15.82 10.06 15.16 10.36 14.4 10.6V10.75C15.32 10.97 16.13 11.32 16.83 11.8C17.53 12.28 18.08 12.88 18.48 13.6C18.88 14.3 19.08 15.14 19.08 16.12C19.08 18.08 18.36 19.55 16.92 20.53C15.48 21.51 13.34 22 10.5 22H0.84ZM10.35 20.17C11.69 20.17 12.64 19.86 13.2 19.24C13.76 18.62 14.04 17.55 14.04 16.03C14.04 15.05 13.93 14.24 13.71 13.6C13.49 12.96 13.11 12.49 12.57 12.19C12.05 11.87 11.33 11.71 10.41 11.71H8.37V20.17H10.35ZM9.51 9.88C10.45 9.88 11.18 9.75 11.7 9.49C12.22 9.23 12.59 8.82 12.81 8.26C13.03 7.68 13.14 6.94 13.14 6.04C13.14 4.68 12.86 3.74 12.3 3.22C11.76 2.68 10.81 2.41 9.45 2.41H8.37V9.88H9.51ZM29.1863 22.3C27.5463 22.3 26.1563 22.05 25.0163 21.55C23.8963 21.03 23.0363 20.3 22.4363 19.36C21.8563 18.4 21.5663 17.25 21.5663 15.91C21.5663 14.73 21.7963 13.78 22.2563 13.06C22.7363 12.32 23.3663 11.72 24.1463 11.26C24.9263 10.78 25.7763 10.36 26.6963 10C26.1763 9.36 25.7463 8.77 25.4063 8.23C25.0663 7.67 24.8163 7.11 24.6563 6.55C24.4963 5.97 24.4163 5.35 24.4163 4.69C24.4163 3.81 24.6363 3.04 25.0763 2.38C25.5363 1.72 26.2163 1.21 27.1163 0.849999C28.0163 0.469999 29.1263 0.279999 30.4463 0.279999C31.7263 0.279999 32.7863 0.479999 33.6263 0.879998C34.4863 1.26 35.1263 1.77 35.5463 2.41C35.9663 3.05 36.1763 3.76 36.1763 4.54C36.1763 5.34 36.0063 6.05 35.6663 6.67C35.3463 7.27 34.8463 7.82 34.1663 8.32C33.5063 8.82 32.6563 9.31 31.6163 9.79L36.0863 14.47C36.2063 13.77 36.2863 13.08 36.3263 12.4C36.3663 11.72 36.3863 11.1 36.3863 10.54V9.22H42.9563V10.81H42.4763C42.0363 10.81 41.6063 10.86 41.1863 10.96C40.7863 11.04 40.4263 11.22 40.1063 11.5C39.8063 11.78 39.5663 12.23 39.3863 12.85C39.2463 13.41 39.0663 14.01 38.8463 14.65C38.6263 15.27 38.3663 15.9 38.0663 16.54L41.0663 19.66C41.2663 19.86 41.4863 20.02 41.7263 20.14C41.9663 20.24 42.2363 20.31 42.5363 20.35C42.8363 20.39 43.1663 20.41 43.5263 20.41H43.7963V22H37.8563L35.7863 19.81C35.2863 20.29 34.7163 20.72 34.0763 21.1C33.4363 21.48 32.7063 21.78 31.8863 22C31.0863 22.2 30.1863 22.3 29.1863 22.3ZM29.9363 20.29C30.9963 20.29 31.8963 20.12 32.6363 19.78C33.3763 19.42 33.9863 18.95 34.4663 18.37L28.0463 11.53C27.4863 11.93 27.0563 12.37 26.7563 12.85C26.4563 13.31 26.2463 13.81 26.1263 14.35C26.0263 14.87 25.9763 15.44 25.9763 16.06C25.9763 16.66 26.0663 17.22 26.2463 17.74C26.4463 18.24 26.7163 18.68 27.0563 19.06C27.3963 19.44 27.8063 19.74 28.2863 19.96C28.7863 20.18 29.3363 20.29 29.9363 20.29ZM30.3563 8.44C31.1963 7.96 31.7663 7.43 32.0663 6.85C32.3863 6.25 32.5463 5.49 32.5463 4.57C32.5463 4.09 32.4863 3.67 32.3663 3.31C32.2463 2.93 32.0363 2.63 31.7363 2.41C31.4363 2.19 31.0063 2.08 30.4463 2.08C29.7663 2.08 29.2663 2.32 28.9463 2.8C28.6463 3.28 28.4963 3.88 28.4963 4.6C28.4963 5.06 28.5663 5.5 28.7063 5.92C28.8463 6.32 29.0463 6.72 29.3063 7.12C29.5863 7.52 29.9363 7.96 30.3563 8.44ZM47.8915 22V20.41H49.1515C49.4515 20.41 49.7115 20.37 49.9315 20.29C50.1715 20.19 50.3515 20 50.4715 19.72C50.6115 19.44 50.6815 19.02 50.6815 18.46V2.41H48.2815C47.6815 2.41 47.2115 2.5 46.8715 2.68C46.5315 2.84 46.2815 3.08 46.1215 3.4C45.9615 3.72 45.8515 4.1 45.7915 4.54L45.5815 6.4H43.5715L43.7215 0.579999H62.4115L62.5615 6.4H60.5515L60.3415 4.54C60.3015 4.1 60.1915 3.72 60.0115 3.4C59.8515 3.08 59.6015 2.84 59.2615 2.68C58.9215 2.5 58.4515 2.41 57.8515 2.41H55.4515V18.46C55.4515 19.02 55.5115 19.44 55.6315 19.72C55.7715 20 55.9615 20.19 56.2015 20.29C56.4415 20.37 56.7015 20.41 56.9815 20.41H58.2415V22H47.8915ZM61.204 22V20.41H61.564C61.924 20.41 62.244 20.35 62.524 20.23C62.804 20.11 63.054 19.9 63.274 19.6C63.514 19.28 63.744 18.82 63.964 18.22L70.474 0.579999H74.584L80.854 18.25C81.054 18.81 81.264 19.25 81.484 19.57C81.724 19.87 81.974 20.09 82.234 20.23C82.514 20.35 82.814 20.41 83.134 20.41H83.674V22H73.774V20.41H74.944C75.244 20.41 75.534 20.32 75.814 20.14C76.094 19.96 76.234 19.66 76.234 19.24C76.234 19.08 76.214 18.92 76.174 18.76C76.154 18.6 76.124 18.45 76.084 18.31C76.044 18.17 76.004 18.05 75.964 17.95L74.914 14.95H67.624L66.754 17.53C66.714 17.69 66.664 17.87 66.604 18.07C66.544 18.27 66.494 18.48 66.454 18.7C66.414 18.9 66.394 19.08 66.394 19.24C66.394 19.62 66.534 19.91 66.814 20.11C67.094 20.31 67.404 20.41 67.744 20.41H69.004V22H61.204ZM68.254 13.12H74.314L72.724 8.2C72.584 7.74 72.434 7.25 72.274 6.73C72.114 6.19 71.964 5.65 71.824 5.11C71.684 4.57 71.554 4.07 71.434 3.61C71.354 3.93 71.254 4.28 71.134 4.66C71.014 5.02 70.894 5.4 70.774 5.8C70.654 6.18 70.524 6.57 70.384 6.97C70.264 7.35 70.144 7.71 70.024 8.05L68.254 13.12ZM84.5119 22V20.41H85.7719C86.0719 20.41 86.3319 20.37 86.5519 20.29C86.7919 20.19 86.9719 20 87.0919 19.72C87.2319 19.44 87.3019 19.02 87.3019 18.46V4.12C87.3019 3.54 87.2319 3.12 87.0919 2.86C86.9719 2.58 86.7919 2.4 86.5519 2.32C86.3319 2.22 86.0719 2.17 85.7719 2.17H84.5119V0.579999H94.8619V2.17H93.6019C93.3219 2.17 93.0619 2.22 92.8219 2.32C92.5819 2.4 92.3919 2.58 92.2519 2.86C92.1319 3.12 92.0719 3.54 92.0719 4.12V18.46C92.0719 19.02 92.1319 19.44 92.2519 19.72C92.3919 20 92.5819 20.19 92.8219 20.29C93.0619 20.37 93.3219 20.41 93.6019 20.41H94.8619V22H84.5119ZM96.5529 22V20.41H97.8129C98.1129 20.41 98.3729 20.37 98.5929 20.29C98.8329 20.19 99.0129 20 99.1329 19.72C99.2729 19.44 99.3429 19.02 99.3429 18.46V4.12C99.3429 3.54 99.2729 3.12 99.1329 2.86C99.0129 2.58 98.8329 2.4 98.5929 2.32C98.3729 2.22 98.1129 2.17 97.8129 2.17H96.5529V0.579999H106.903V2.17H105.643C105.363 2.17 105.103 2.21 104.863 2.29C104.643 2.37 104.463 2.54 104.323 2.8C104.183 3.06 104.113 3.46 104.113 4V20.17H109.693C110.153 20.17 110.543 20.07 110.863 19.87C111.203 19.67 111.473 19.38 111.673 19C111.893 18.6 112.063 18.12 112.183 17.56L112.663 15.31H114.343L114.133 22H96.5529ZM127.162 22.3C124.882 22.3 122.992 21.84 121.492 20.92C119.992 20 118.862 18.71 118.102 17.05C117.362 15.39 116.992 13.45 116.992 11.23C116.992 9.01 117.362 7.08 118.102 5.44C118.862 3.8 119.992 2.53 121.492 1.63C123.012 0.709999 124.912 0.249999 127.192 0.249999C129.352 0.249999 131.182 0.709999 132.682 1.63C134.202 2.53 135.352 3.81 136.132 5.47C136.912 7.11 137.302 9.04 137.302 11.26C137.302 13.48 136.902 15.42 136.102 17.08C135.322 18.72 134.182 20 132.682 20.92C131.182 21.84 129.342 22.3 127.162 22.3ZM127.162 20.35C128.102 20.35 128.892 20.15 129.532 19.75C130.192 19.33 130.722 18.73 131.122 17.95C131.522 17.17 131.812 16.22 131.992 15.1C132.172 13.98 132.262 12.7 132.262 11.26C132.262 9.82 132.172 8.54 131.992 7.42C131.812 6.3 131.522 5.35 131.122 4.57C130.722 3.79 130.202 3.2 129.562 2.8C128.922 2.4 128.132 2.2 127.192 2.2C126.252 2.2 125.452 2.4 124.792 2.8C124.132 3.2 123.602 3.79 123.202 4.57C122.802 5.35 122.502 6.3 122.302 7.42C122.122 8.54 122.032 9.82 122.032 11.26C122.032 12.7 122.122 13.98 122.302 15.1C122.502 16.22 122.802 17.17 123.202 17.95C123.602 18.73 124.132 19.33 124.792 19.75C125.452 20.15 126.242 20.35 127.162 20.35ZM139.795 22V20.41H141.055C141.335 20.41 141.585 20.37 141.805 20.29C142.045 20.21 142.235 20.04 142.375 19.78C142.515 19.52 142.585 19.13 142.585 18.61V4C142.585 3.46 142.515 3.06 142.375 2.8C142.235 2.54 142.045 2.37 141.805 2.29C141.585 2.21 141.335 2.17 141.055 2.17H139.795V0.579999H149.455C151.355 0.579999 152.905 0.789999 154.105 1.21C155.325 1.63 156.225 2.26 156.805 3.1C157.385 3.92 157.675 4.93 157.675 6.13C157.675 7.19 157.475 8.09 157.075 8.83C156.675 9.57 156.165 10.18 155.545 10.66C154.925 11.14 154.275 11.52 153.595 11.8L157.165 17.95C157.425 18.39 157.675 18.77 157.915 19.09C158.155 19.39 158.385 19.64 158.605 19.84C158.845 20.04 159.095 20.19 159.355 20.29C159.615 20.37 159.885 20.41 160.165 20.41H160.285V22H159.295C158.395 22 157.605 21.97 156.925 21.91C156.265 21.83 155.685 21.7 155.185 21.52C154.705 21.32 154.275 21.04 153.895 20.68C153.515 20.32 153.175 19.86 152.875 19.3L149.305 12.7H147.325V18.61C147.325 19.13 147.395 19.52 147.535 19.78C147.675 20.04 147.865 20.21 148.105 20.29C148.345 20.37 148.595 20.41 148.855 20.41H150.145V22H139.795ZM149.005 10.96C149.925 10.96 150.645 10.8 151.165 10.48C151.705 10.14 152.085 9.65 152.305 9.01C152.525 8.35 152.635 7.53 152.635 6.55C152.635 5.53 152.515 4.72 152.275 4.12C152.035 3.5 151.645 3.05 151.105 2.77C150.565 2.49 149.845 2.35 148.945 2.35H147.325V10.96H149.005Z" fill="white"/>
</svg>
