<svg width="20" height="20" viewBox="0 0 20 20" fill="none" xmlns="http://www.w3.org/2000/svg">
<path d="M19.5825 3.1234C19.352 1.89485 18.6746 0.925682 17.8146 0.597966C16.2544 9.62784e-07 10.0005 0 10.0005 0C10.0005 0 3.74558 9.62784e-07 2.18646 0.597966C1.32645 0.925682 0.648002 1.89485 0.417504 3.1234C-3.88832e-07 5.35218 0 10.0008 0 10.0008C0 10.0008 -3.88832e-07 14.6494 0.417504 16.8782C0.648002 18.1083 1.32536 19.0759 2.18646 19.4036C3.74667 20 10.0005 20 10.0005 20C10.0005 20 16.2544 20 17.8146 19.4036C18.6746 19.0743 19.3531 18.1067 19.5825 16.8782C20 14.6494 20 10.0008 20 10.0008C20 10.0008 20 5.35218 19.5825 3.1234ZM8 14.2859V5.71407L13.196 10.0008L8 14.2859Z" fill="white"/>
</svg>
