<svg width="20" height="21" viewBox="0 0 20 21" fill="none" xmlns="http://www.w3.org/2000/svg">
<path d="M5.85698 0.474393C4.79001 0.519822 4.06356 0.69018 3.42792 0.940038C2.78093 1.20125 2.22474 1.54197 1.66856 2.09847C1.11237 2.65497 0.77185 3.21147 0.522134 3.87019C0.272418 4.50619 0.113507 5.23305 0.0567537 6.30063C0.0113507 7.3682 0 7.70892 0 10.4233C0.0113507 13.1377 0.0227015 13.4784 0.0681044 14.5459C0.113507 15.6135 0.283768 16.3404 0.533485 16.965C0.794552 17.6237 1.13507 18.1802 1.69126 18.7367C2.24745 19.2932 2.80363 19.634 3.46198 19.8838C4.09762 20.1337 4.82406 20.2927 5.89103 20.3495C6.958 20.3949 7.29852 20.4062 10.0114 20.4062C12.7242 20.3949 13.0647 20.3949 14.1317 20.3381C15.1986 20.2927 15.9251 20.1223 16.5607 19.8725C17.2191 19.6112 17.7753 19.2705 18.3314 18.714C18.8876 18.1575 19.2281 17.601 19.4779 16.9423C19.7276 16.3063 19.8865 15.5794 19.9432 14.5119C19.9886 13.4443 20 13.1036 20 10.3892C19.9886 7.67485 19.9886 7.33413 19.9319 6.26656C19.8865 5.19898 19.7162 4.47212 19.4665 3.83612C19.2055 3.1774 18.8649 2.6209 18.3087 2.0644C17.7526 1.5079 17.1964 1.16718 16.538 0.917323C15.9024 0.667465 15.1759 0.508465 14.109 0.451679C13.0306 0.417607 12.6901 0.40625 9.9773 0.40625C7.26447 0.417607 6.92395 0.428964 5.85698 0.474393ZM5.97049 18.5437C4.99433 18.4982 4.47219 18.3392 4.12032 18.203C3.65494 18.0212 3.32577 17.8055 2.97389 17.4534C2.62202 17.1013 2.40636 16.7719 2.22474 16.3063C2.08854 15.9542 1.91827 15.4204 1.87287 14.4551C1.82747 13.3989 1.81612 13.0809 1.80477 10.4119C1.80477 7.74299 1.80477 7.42499 1.85017 6.36877C1.89557 5.39205 2.05448 4.86962 2.19069 4.51755C2.3723 4.05191 2.58797 3.72255 2.93984 3.37047C3.29171 3.0184 3.62089 2.80262 4.08627 2.6209C4.43814 2.48461 4.97162 2.32561 5.93644 2.26883C6.99205 2.2234 7.30988 2.21204 9.96595 2.20068C12.6334 2.20068 12.9512 2.20069 14.0068 2.24611C14.983 2.29154 15.5051 2.45054 15.857 2.58683C16.3224 2.76854 16.6629 2.98433 17.0034 3.3364C17.3553 3.68848 17.5709 4.01783 17.7526 4.48348C17.8888 4.83555 18.0477 5.36934 18.1044 6.3347C18.1498 7.39092 18.1612 7.70892 18.1725 10.3665C18.1839 13.0354 18.1725 13.3534 18.1271 14.4097C18.0817 15.3864 17.9228 15.9088 17.7866 16.2722C17.605 16.7379 17.3893 17.0672 17.0375 17.4193C16.6856 17.7714 16.3564 17.9872 15.891 18.1689C15.5392 18.3052 15.0057 18.4642 14.0409 18.521C12.9852 18.5664 12.6674 18.5777 10 18.5891C7.34393 18.6005 7.02611 18.5891 5.97049 18.5437ZM14.1203 5.0627C14.1203 5.72141 14.6652 6.2552 15.3235 6.2552C15.9818 6.2552 16.5267 5.71005 16.5153 5.05134C16.5153 4.39262 15.9705 3.85883 15.3121 3.85883C14.6538 3.85883 14.1203 4.40398 14.1203 5.0627ZM4.86947 10.4119C4.86947 13.2512 7.17367 15.534 10.0114 15.534C12.8377 15.5227 15.1305 13.2285 15.1305 10.3892C15.1192 7.56128 12.8263 5.25577 9.98865 5.26712C7.15097 5.27848 4.85812 7.58399 4.86947 10.4119ZM6.66288 10.4119C6.66288 8.57206 8.14983 7.08427 9.98865 7.07292C11.8275 7.07292 13.3258 8.56071 13.3258 10.4006C13.3258 12.2404 11.8388 13.7396 10 13.7396C8.16118 13.7396 6.67423 12.2518 6.66288 10.4119Z" fill="white"/>
</svg>
