<svg width="452" height="73" viewBox="0 0 452 73" fill="none" xmlns="http://www.w3.org/2000/svg">
<g clip-path="url(#clip0_55_2)">
<path d="M52.3701 32.9501C56.5001 11.0601 65.6701 11.0001 67.6501 10.9001C68.1101 10.8801 68.6801 10.9301 69.3001 11.0201C67.9001 6.91007 65.7401 3.67007 62.8801 1.78007C56.0201 -2.74993 47.0401 1.67007 40.0801 11.8501C41.2001 11.5501 42.2901 11.4301 43.2801 11.4901C47.9001 11.7801 50.4501 13.9901 51.4901 15.4401L47.1901 23.8001C47.1901 23.8001 44.3501 19.6501 40.7101 20.5101C37.5001 21.2701 36.8801 23.4001 36.8501 25.1801C36.8301 26.6601 37.3001 27.7501 40.3101 28.8701C43.3301 29.9901 47.8801 31.6401 48.2201 38.2801C48.5701 44.9301 43.4701 57.9001 31.5101 57.9001C31.5101 57.9001 31.4501 57.9101 31.3501 57.9101C32.7301 62.5301 35.0001 66.1601 38.1101 68.2201C44.8201 72.6501 53.5601 68.5201 60.4401 58.8201C59.1101 58.3601 57.7001 57.5501 56.2801 56.2501C49.6301 50.1701 52.3701 32.9501 52.3701 32.9501Z" fill="#00A73C"/>
<path d="M31.2202 57.9199C31.2102 57.9199 31.2002 57.9199 31.1802 57.9199C31.1502 57.9199 31.1302 57.9199 31.1002 57.9199C31.0802 57.9199 31.0602 57.9199 31.0402 57.9199C31.0102 57.9199 30.9902 57.9199 30.9602 57.9199C30.9302 57.9199 30.9002 57.9199 30.8602 57.9199C30.8402 57.9199 30.8102 57.9199 30.7902 57.9199C30.7502 57.9199 30.7002 57.9199 30.6502 57.9099C30.6302 57.9099 30.6202 57.9099 30.6002 57.9099C30.4602 57.8999 30.3102 57.8899 30.1502 57.8699C30.1402 57.8699 30.1302 57.8699 30.1202 57.8699C30.0502 57.8599 29.9702 57.8499 29.8902 57.8399C29.8702 57.8399 29.8502 57.8299 29.8302 57.8299C29.7602 57.8199 29.6902 57.8099 29.6102 57.7899C29.5902 57.7899 29.5602 57.7799 29.5402 57.7799C29.4702 57.7699 29.3902 57.7499 29.3202 57.7299C29.2902 57.7199 29.2702 57.7199 29.2402 57.7099C29.1602 57.6899 29.0802 57.6699 29.0002 57.6499C28.9802 57.6399 28.9502 57.6399 28.9302 57.6299C28.8402 57.6099 28.7502 57.5799 28.6602 57.5599C28.6402 57.5499 28.6202 57.5499 28.6002 57.5399C28.2602 57.4399 27.9002 57.3099 27.5202 57.1599C27.5002 57.1499 27.4802 57.1399 27.4702 57.1399C27.3602 57.0999 27.2602 57.0499 27.1502 56.9999C27.1202 56.9899 27.0902 56.9699 27.0502 56.9499C26.9502 56.9099 26.8602 56.8599 26.7602 56.8099C26.7202 56.7899 26.6802 56.7699 26.6402 56.7499C26.5502 56.6999 26.4502 56.6499 26.3602 56.5999C26.3202 56.5799 26.2802 56.5499 26.2402 56.5299C26.1402 56.4799 26.0502 56.4199 25.9502 56.3599C25.9102 56.3399 25.8702 56.3099 25.8302 56.2899C25.7302 56.2299 25.6202 56.1599 25.5202 56.0899C25.4902 56.0699 25.4502 56.0499 25.4202 56.0199C25.2802 55.9299 25.1502 55.8399 25.0102 55.7399C25.0102 55.7399 25.0002 55.7399 25.0002 55.7299C24.8502 55.6299 24.7102 55.5199 24.5602 55.4099C24.5402 55.3899 24.5102 55.3699 24.4902 55.3499C24.3702 55.2599 24.2502 55.1599 24.1302 55.0699C24.0802 55.0299 24.0402 54.9899 23.9902 54.9499C23.8902 54.8699 23.7902 54.7799 23.7002 54.6999C23.6502 54.6499 23.5902 54.5999 23.5402 54.5499C23.4502 54.4699 23.3602 54.3799 23.2602 54.2899C23.2002 54.2299 23.1402 54.1799 23.0902 54.1199C23.0002 54.0299 22.9102 53.9399 22.8202 53.8499C22.7602 53.7899 22.7002 53.7299 22.6402 53.6699C22.5502 53.5699 22.4602 53.4699 22.3702 53.3699C22.3102 53.3099 22.2602 53.2499 22.2002 53.1799C22.1002 53.0699 22.0002 52.9499 21.9002 52.8299C21.8502 52.7699 21.8002 52.7199 21.7502 52.6599C21.6002 52.4799 21.4502 52.2999 21.3102 52.1099L27.1902 43.0199C27.1902 43.0199 29.6402 49.2799 34.3602 48.9499C37.9202 48.6899 39.0202 45.4999 39.3502 43.6499C39.5402 42.5899 39.3702 41.4499 38.8402 40.6099C38.3402 39.8399 37.4802 39.0099 36.0002 38.6499C31.7602 37.6299 26.3502 35.9799 28.2802 25.9099C28.3402 25.6199 28.4002 25.3399 28.4602 25.0599C28.4802 24.9699 28.5002 24.8899 28.5202 24.7999C28.5702 24.6099 28.6202 24.4099 28.6702 24.2199C28.7002 24.1299 28.7202 24.0299 28.7502 23.9399C28.8002 23.7499 28.8602 23.5599 28.9202 23.3799C28.9402 23.2999 28.9702 23.2199 28.9902 23.1399C29.0702 22.8799 29.1602 22.6299 29.2602 22.3799C29.2702 22.3499 29.2802 22.3299 29.2902 22.2999C29.3702 22.0799 29.4602 21.8599 29.5502 21.6399C29.5802 21.5599 29.6202 21.4799 29.6502 21.3999C29.7202 21.2399 29.7902 21.0799 29.8702 20.9199C29.9102 20.8399 29.9502 20.7499 29.9902 20.6699C30.0702 20.5099 30.1502 20.3599 30.2302 20.1999C30.2702 20.1299 30.3002 20.0599 30.3402 19.9899C30.4602 19.7799 30.5702 19.5599 30.6902 19.3599C30.7202 19.3099 30.7502 19.2599 30.7802 19.2099C30.8802 19.0499 30.9702 18.8899 31.0702 18.7399C31.1202 18.6599 31.1702 18.5799 31.2202 18.5099C31.3002 18.3899 31.3802 18.2699 31.4702 18.1499C31.5302 18.0699 31.5802 17.9899 31.6402 17.9099C31.7302 17.7899 31.8102 17.6799 31.9002 17.5599C31.9502 17.4899 32.0102 17.4199 32.0602 17.3499C32.1902 17.1799 32.3302 17.0099 32.4702 16.8499C32.5302 16.7799 32.5902 16.7099 32.6602 16.6399C32.7402 16.5399 32.8302 16.4499 32.9102 16.3499C32.9802 16.2699 33.0602 16.1899 33.1302 16.1099C33.2002 16.0299 33.2802 15.9499 33.3602 15.8799C33.4402 15.7999 33.5202 15.7199 33.6002 15.6399C33.6702 15.5699 33.7402 15.4999 33.8102 15.4399C34.1302 15.1399 34.4602 14.8499 34.8002 14.5799C34.8502 14.5399 34.9102 14.4899 34.9602 14.4499C35.0602 14.3699 35.1702 14.2899 35.2802 14.2099C35.3302 14.1699 35.3802 14.1299 35.4402 14.0999C35.5502 14.0199 35.6602 13.9399 35.7802 13.8599C35.8102 13.8399 35.8502 13.8099 35.8802 13.7899C36.2802 13.5199 36.6902 13.2699 37.1002 13.0499C37.1202 13.0399 37.1302 13.0299 37.1502 13.0199C37.2802 12.9499 37.4202 12.8799 37.5502 12.8099C37.5702 12.7999 37.5902 12.7899 37.6102 12.7799C38.3502 12.4099 39.0802 12.1299 39.8102 11.9099C38.4202 7.36989 36.1702 3.79989 33.1002 1.75989C23.9202 -4.30011 10.9402 5.64989 4.10019 23.9999C-2.73981 42.3499 -0.849807 62.1399 8.33019 68.1999C15.2402 72.7699 24.3102 68.2399 31.2902 57.8899C31.2802 57.9199 31.2502 57.9199 31.2202 57.9199Z" fill="#008CD6"/>
<path d="M91.6599 1.77994C84.9899 -2.63006 76.2999 1.43994 69.4199 11.0399C71.6999 11.4099 74.5199 12.3499 74.5199 12.3499L73.1399 23.5999C71.6199 22.3599 70.0699 22.4099 70.0699 22.4099C65.8999 22.0799 61.8099 29.6499 62.1599 40.1199C62.5099 50.5899 70.1699 47.4899 70.1699 47.4899L68.8299 57.9099C68.8299 57.9099 65.0799 60.4499 60.3999 58.7999C61.7999 62.9899 63.9699 66.2899 66.8799 68.2099C76.0599 74.2699 89.0399 64.3199 95.8799 45.9699C102.73 27.6299 100.84 7.83994 91.6599 1.77994Z" fill="#E6002D"/>
<path fill-rule="evenodd" clip-rule="evenodd" d="M206.98 39.7499C199.87 39.8799 199.97 34.3499 199.97 34.3499V26.4499H207.57V34.2599H227.67V23.0199C212.29 21.5699 212.8 15.5399 212.8 15.5399C209.69 23.1899 196.34 23.0399 196.34 23.0399V17.3099C210.06 16.7899 208.83 4.05994 208.83 4.05994H216.63C216.63 4.05994 217.02 16.7699 227.67 17.1699V3.93994C230.35 4.01994 235.76 3.93994 235.76 3.93994V9.67994H241.19V14.9499H235.76V39.8899L206.98 39.7499Z" fill="black"/>
<path fill-rule="evenodd" clip-rule="evenodd" d="M152.61 40.35C152.61 40.35 147.33 40.35 144.81 40.35C144.81 38.55 144.81 36.76 144.81 34.96C130.15 33.44 128.18 21.3601 128.18 21.3601C125.91 35.2801 111.65 34.73 111.65 34.73V29.58C111.65 29.58 123.46 29.78 124.73 4.05005C127.17 4.05005 129.61 4.05005 132.05 4.05005C134.98 30.89 144.81 29.34 144.81 29.34V17.17H139.14V11.78H144.81V4.29005H152.61V40.35Z" fill="black"/>
<path d="M190.33 10.38V4.05005C190.33 4.05005 185.3 4.05005 182.94 4.05005C182.94 8.50005 182.94 12.95 182.94 17.4C173.04 17.54 172.92 12.48 172.92 12.48C175.68 12.48 181.31 12.48 181.31 12.48V6.92005H172.92V4.05005H165.12V6.92005H155.55V12.48H165.12C166.15 17.57 154.73 17.87 154.73 17.87C154.73 19.67 154.73 21.46 154.73 23.26C161.09 23.39 167.57 21.93 169.23 17.44C173.06 23.27 182.94 23.26 182.94 23.26V26.25C180.25 25.42 177.01 24.94 173.53 24.94C164.27 24.94 156.77 28.3501 156.77 32.5601C156.77 36.7701 164.28 40.18 173.53 40.18C182.79 40.18 190.34 36.7701 190.34 32.5601C190.34 32.4301 190.31 32.3 190.3 32.17L190.34 32.19V16H195.61V10.38H190.33V10.38ZM173.52 35C168.69 35 164.77 33.9101 164.77 32.5601C164.77 31.2101 168.69 30.12 173.52 30.12C178.35 30.12 182.27 31.2101 182.27 32.5601C182.27 33.9101 178.35 35 173.52 35Z" fill="black"/>
<path fill-rule="evenodd" clip-rule="evenodd" d="M271.73 3.36987V9.64987H266.78C265.11 6.13987 260.5 3.60987 255.06 3.60987C248.21 3.60987 242.66 7.60987 242.66 12.5399C242.66 17.4699 248.21 21.4699 255.06 21.4699C260.75 21.4699 265.53 18.7099 266.99 14.9399H271.77V25.7599H253.28V22.8899H245.59V35.0299C245.59 39.3299 251.4 39.2099 251.4 39.2099H279.36V3.36987H271.73ZM255.06 16.0599C252.94 16.0599 251.22 14.4899 251.22 12.5499C251.22 10.6099 252.94 9.03987 255.06 9.03987C257.18 9.03987 258.9 10.6099 258.9 12.5499C258.9 14.4899 257.18 16.0599 255.06 16.0599ZM271.67 34.3799H253.58V30.8999H271.67V34.3799Z" fill="black"/>
<path fill-rule="evenodd" clip-rule="evenodd" d="M283.39 3.61987H321.56V9.16987H306.67C306.67 9.16987 308.39 16.4599 322.05 15.9999V21.4899C322.05 21.4899 306.7 22.0899 302 14.4099C302 14.4099 301.51 20.9199 282.74 21.4899V15.9999C282.74 15.9999 296.46 16.2099 297.97 9.16987H283.39V3.61987V3.61987Z" fill="black"/>
<path fill-rule="evenodd" clip-rule="evenodd" d="M282.09 23.8301V29.0201H298.49V39.7501H305.81V29.0201H322.82V23.8301H282.09Z" fill="black"/>
<path fill-rule="evenodd" clip-rule="evenodd" d="M337.06 3.25H344.66C344.66 3.25 345.55 16.33 355.52 16.48V3.25H363.49V39.38H355.52V31.79H328.48V26.36H355.52V22.06C355.52 22.06 344.6 23.55 340.66 14.25C340.66 14.25 340.01 22.21 324.39 22.39V17C324.39 17 336.29 17.06 337.06 3.25Z" fill="black"/>
<path fill-rule="evenodd" clip-rule="evenodd" d="M396 3.24998V31.09H382.69V27.73C387.47 26.52 390.93 22.97 390.93 18.78C390.93 15.58 388.9 12.75 385.81 11.06H392.45V5.40998H382.84V2.97998H375.33V5.41998H365.72V11.06H372.36C369.27 12.75 367.24 15.58 367.24 18.78C367.24 22.97 370.7 26.52 375.48 27.73V31.09H366.37V36.52H396V39.72H403.75V3.24998H396ZM379.08 15.08C381.14 15.08 382.82 16.74 382.82 18.78C382.82 20.83 381.15 22.48 379.08 22.48C377.02 22.48 375.34 20.82 375.34 18.78C375.34 16.73 377.02 15.08 379.08 15.08Z" fill="black"/>
<path fill-rule="evenodd" clip-rule="evenodd" d="M451.27 12.58H446.07V3.55005H438.01V28.96C427.22 25.93 425.46 3.55005 425.46 3.55005H418.08C417.68 29.62 405.75 28.8601 405.75 28.8601V34.41C420.82 33.93 421.84 20.35 421.84 20.35C424.9 32.9001 435.05 34.2701 438.02 34.4001V39.5601H446.08V18.01H451.28V12.58H451.27Z" fill="black"/>
<path d="M113.83 68.77L114.64 64.31C115.87 65.11 116.96 65.51 117.9 65.51C118.45 65.51 118.91 65.36 119.28 65.06C119.65 64.76 119.88 64.36 119.97 63.86C120.04 63.48 119.98 63.12 119.78 62.79C119.59 62.46 119.22 62.05 118.69 61.57C117.39 60.42 116.5 59.36 116 58.37C115.5 57.38 115.37 56.28 115.59 55.07C115.89 53.42 116.66 52.07 117.89 51.03C119.12 49.99 120.57 49.47 122.23 49.47C123.46 49.47 124.63 49.73 125.74 50.26L124.96 54.54C123.79 53.83 122.81 53.48 122 53.48C121.46 53.48 121.01 53.61 120.66 53.87C120.3 54.13 120.08 54.49 120 54.95C119.85 55.75 120.41 56.65 121.68 57.66C122.44 58.25 123.16 59.09 123.85 60.16C124.54 61.23 124.76 62.48 124.5 63.89C124.2 65.54 123.37 66.91 122.01 67.99C120.65 69.07 119.08 69.62 117.3 69.62C116.08 69.63 114.93 69.34 113.83 68.77Z" fill="black"/>
<path d="M128.98 50H137.8L137.06 54.07H132.6L131.96 57.59H135.83L135.11 61.56H131.24L130.61 65.04H135.1L134.36 69.12H125.51L128.98 50Z" fill="black"/>
<path d="M141.79 69.6C139.47 69.6 137.86 68.71 136.97 66.94C136.07 65.17 135.93 62.61 136.54 59.27C137.1 56.19 138.15 53.78 139.69 52.06C141.23 50.34 143.09 49.47 145.28 49.47C147.61 49.47 149.23 50.33 150.15 52.06C151.07 53.79 151.23 56.26 150.65 59.47C150.07 62.68 149 65.17 147.47 66.94C145.92 68.72 144.03 69.6 141.79 69.6ZM144.51 53.81C142.94 53.81 141.82 55.65 141.15 59.33C140.72 61.7 140.63 63.28 140.88 64.07C141.13 64.86 141.64 65.26 142.4 65.26C143.22 65.26 143.91 64.86 144.49 64.07C145.07 63.28 145.57 61.73 145.99 59.41C146.67 55.68 146.18 53.82 144.51 53.81Z" fill="black"/>
<path d="M168.87 64.62L168.04 69.16C167.07 69.46 166.21 69.6 165.48 69.6C162.96 69.6 161.08 68.66 159.86 66.77C158.64 64.88 158.3 62.4 158.86 59.33C159.38 56.47 160.6 54.12 162.52 52.26C164.44 50.4 166.61 49.47 169.03 49.47C169.97 49.47 170.81 49.59 171.55 49.84L170.72 54.4C169.94 54.12 169.17 53.98 168.44 53.98C167.31 53.98 166.27 54.5 165.34 55.53C164.4 56.56 163.79 57.87 163.5 59.47C163.19 61.19 163.32 62.55 163.89 63.55C164.46 64.55 165.37 65.05 166.63 65.05C167.25 65.05 168 64.9 168.87 64.62Z" fill="black"/>
<path d="M173.18 50.01H177.54L176.25 57.1H180.12L181.41 50.01H185.77L182.28 69.13H177.92L179.37 61.18H175.5L174.05 69.13H169.69L173.18 50.01Z" fill="black"/>
<path d="M197.67 69.13H193.14L192.99 65.94H188.39L187.05 69.13H182.6L191.18 50.01H196.07L197.67 69.13ZM192.78 62.5C192.65 59.65 192.65 56.95 192.79 54.38H192.73C191.9 57.03 190.92 59.73 189.8 62.5H192.78Z" fill="black"/>
<path d="M202.18 50.01H206.58L210.11 61.04L210.33 58.98L211.97 50.01H216.33L212.84 69.13H208.37L204.93 58.27L204.61 60.65L203.06 69.13H198.7L202.18 50.01Z" fill="black"/>
<path d="M229.96 58.42L229.37 61.63C228.92 64.11 227.96 66.06 226.5 67.48C225.04 68.9 223.26 69.61 221.17 69.61C218.83 69.61 217.18 68.73 216.23 66.98C215.27 65.23 215.09 62.73 215.68 59.48C216.28 56.2 217.37 53.72 218.95 52.02C220.53 50.32 222.54 49.48 224.99 49.48C227.73 49.48 229.45 50.94 230.15 53.85L225.68 55.55C225.45 54.94 225.21 54.49 224.96 54.21C224.71 53.93 224.33 53.79 223.82 53.79C222.94 53.79 222.23 54.25 221.69 55.17C221.15 56.09 220.7 57.58 220.32 59.65C219.97 61.57 219.92 62.98 220.17 63.88C220.42 64.78 221 65.23 221.92 65.23C223.38 65.23 224.32 64.19 224.75 62.12H222.72L223.4 58.41L229.96 58.42Z" fill="black"/>
<path d="M240.71 50.01H245.07L241.58 69.13H237.22L240.71 50.01Z" fill="black"/>
<path d="M247.16 50.01H251.56L255.09 61.04L255.31 58.98L256.95 50.01H261.31L257.82 69.13H253.35L249.91 58.27L249.59 60.65L248.04 69.13H243.68L247.16 50.01Z" fill="black"/>
<path d="M263.27 50.01H267.34C270.16 50.01 272.16 50.81 273.33 52.41C274.51 54.01 274.81 56.35 274.25 59.42C273.83 61.75 273.12 63.63 272.14 65.06C271.15 66.49 269.95 67.53 268.54 68.17C267.12 68.81 265.63 69.13 264.06 69.13H259.79L263.27 50.01ZM266.88 54.08L264.88 65.05C266.22 64.94 267.24 64.47 267.94 63.65C268.64 62.83 269.15 61.49 269.5 59.62C269.7 58.51 269.78 57.57 269.73 56.81C269.68 56.04 269.5 55.45 269.2 55.03C268.9 54.61 268.57 54.36 268.23 54.26C267.88 54.17 267.44 54.1 266.88 54.08Z" fill="black"/>
<path d="M277.61 50.01H282.08L279.62 63.48C279.51 64.11 279.58 64.61 279.85 64.98C280.12 65.35 280.54 65.53 281.1 65.53C281.69 65.53 282.18 65.33 282.59 64.94C283 64.55 283.27 64.01 283.4 63.32L285.83 50.01H290.28L288 62.56C287.69 64.27 287.21 65.64 286.57 66.67C285.93 67.7 285.13 68.46 284.16 68.94C283.19 69.42 281.92 69.66 280.35 69.66C278.03 69.66 276.5 69.07 275.77 67.88C275.04 66.69 274.93 64.69 275.44 61.88L277.61 50.01Z" fill="black"/>
<path d="M289.63 68.78L290.44 64.32C291.67 65.12 292.76 65.52 293.7 65.52C294.25 65.52 294.71 65.37 295.08 65.07C295.45 64.77 295.68 64.37 295.77 63.87C295.84 63.49 295.78 63.13 295.58 62.8C295.38 62.47 295.02 62.06 294.49 61.58C293.19 60.43 292.3 59.37 291.8 58.38C291.3 57.39 291.17 56.29 291.39 55.08C291.69 53.43 292.46 52.08 293.69 51.04C294.92 50 296.37 49.48 298.03 49.48C299.26 49.48 300.43 49.74 301.54 50.27L300.76 54.55C299.59 53.84 298.61 53.49 297.8 53.49C297.26 53.49 296.81 53.62 296.45 53.88C296.09 54.14 295.87 54.5 295.79 54.96C295.64 55.76 296.2 56.66 297.47 57.67C298.23 58.26 298.95 59.1 299.64 60.17C300.33 61.24 300.55 62.49 300.29 63.9C299.99 65.55 299.16 66.92 297.8 68C296.44 69.08 294.87 69.63 293.09 69.63C291.88 69.63 290.72 69.35 289.63 68.78Z" fill="black"/>
<path d="M304.32 50.01H314.72L313.92 54.38H310.91L308.22 69.14H303.8L306.49 54.38H303.51L304.32 50.01Z" fill="black"/>
<path d="M317.23 50.01H322.31C324.36 50.01 325.89 50.54 326.89 51.59C327.89 52.64 328.22 54.07 327.89 55.87C327.72 56.8 327.33 57.69 326.72 58.56C326.11 59.43 325.34 60.08 324.39 60.52L326.3 69.14H321.7L319.76 60.43H319.69L318.1 69.14H313.74L317.23 50.01ZM320.92 53.71L320.09 58.25C322.02 58.21 323.11 57.54 323.35 56.23C323.51 55.34 323.4 54.71 323.03 54.32C322.65 53.94 321.95 53.73 320.92 53.71Z" fill="black"/>
<path d="M332.21 50.01H336.57L333.08 69.13H328.72L332.21 50.01Z" fill="black"/>
<path d="M348.62 69.13H344.09L343.94 65.94H339.34L338 69.13H333.55L342.13 50.01H347.02L348.62 69.13ZM343.73 62.5C343.6 59.65 343.6 56.95 343.74 54.38H343.68C342.85 57.03 341.87 59.73 340.75 62.5H343.73Z" fill="black"/>
<path d="M353.13 50.01H357.49L354.81 64.71H358.26L357.45 69.14H349.64L353.13 50.01Z" fill="black"/>
<path d="M377.16 64.62L376.33 69.16C375.36 69.46 374.5 69.6 373.77 69.6C371.25 69.6 369.37 68.66 368.15 66.77C366.93 64.88 366.59 62.4 367.16 59.33C367.68 56.47 368.9 54.12 370.82 52.26C372.74 50.4 374.91 49.47 377.33 49.47C378.27 49.47 379.11 49.59 379.85 49.84L379.02 54.4C378.24 54.12 377.47 53.98 376.74 53.98C375.61 53.98 374.57 54.5 373.64 55.53C372.7 56.56 372.09 57.87 371.8 59.47C371.49 61.19 371.61 62.55 372.19 63.55C372.76 64.55 373.67 65.05 374.93 65.05C375.54 65.05 376.28 64.91 377.16 64.62Z" fill="black"/>
<path d="M384.15 69.61C381.83 69.61 380.22 68.72 379.33 66.95C378.43 65.18 378.29 62.62 378.9 59.28C379.46 56.2 380.51 53.79 382.05 52.07C383.59 50.35 385.45 49.48 387.64 49.48C389.97 49.48 391.59 50.34 392.51 52.07C393.43 53.8 393.59 56.27 393.01 59.48C392.43 62.69 391.36 65.18 389.83 66.95C388.28 68.72 386.39 69.61 384.15 69.61ZM386.87 53.82C385.3 53.82 384.18 55.66 383.51 59.34C383.08 61.71 382.99 63.29 383.24 64.08C383.49 64.87 384 65.27 384.76 65.27C385.58 65.27 386.27 64.87 386.85 64.08C387.43 63.29 387.93 61.74 388.35 59.42C389.03 55.69 388.54 53.82 386.87 53.82Z" fill="black"/>
<path d="M393.23 67.2001C393.35 66.5501 393.68 65.9901 394.23 65.5201C394.78 65.0501 395.39 64.8201 396.05 64.8201C396.71 64.8201 397.24 65.0501 397.63 65.5101C398.02 65.9701 398.16 66.5301 398.04 67.1701C397.92 67.8101 397.58 68.3701 397.01 68.8501C396.44 69.3301 395.83 69.5701 395.19 69.5701C394.53 69.5701 394.01 69.3401 393.63 68.8801C393.24 68.4201 393.11 67.8601 393.23 67.2001Z" fill="black"/>
<path d="M400.99 64.77H405.06L399.79 72.98H396.93L400.99 64.77Z" fill="black"/>
<path d="M414.39 50.01H418.75L416.07 64.71H419.52L418.71 69.14H410.9L414.39 50.01Z" fill="black"/>
<path d="M422.99 50.01H433.39L432.59 54.38H429.58L426.89 69.14H422.47L425.16 54.38H422.18L422.99 50.01Z" fill="black"/>
<path d="M435.9 50.01H439.97C442.79 50.01 444.79 50.81 445.96 52.41C447.13 54.01 447.44 56.35 446.88 59.42C446.46 61.75 445.75 63.63 444.77 65.06C443.78 66.49 442.58 67.53 441.17 68.17C439.76 68.81 438.26 69.13 436.69 69.13H432.42L435.9 50.01ZM439.52 54.08L437.52 65.05C438.86 64.94 439.88 64.47 440.58 63.65C441.28 62.83 441.79 61.49 442.14 59.62C442.34 58.51 442.42 57.57 442.37 56.81C442.32 56.04 442.14 55.45 441.84 55.03C441.54 54.61 441.21 54.36 440.87 54.26C440.51 54.17 440.07 54.11 439.52 54.08Z" fill="black"/>
<path d="M446.8 67.2001C446.92 66.5501 447.25 65.9901 447.8 65.5201C448.35 65.0501 448.96 64.8201 449.62 64.8201C450.28 64.8201 450.81 65.0501 451.2 65.5101C451.59 65.9701 451.73 66.5301 451.61 67.1701C451.49 67.8101 451.15 68.3701 450.58 68.8501C450.01 69.3301 449.4 69.5701 448.76 69.5701C448.1 69.5701 447.58 69.3401 447.2 68.8801C446.81 68.4201 446.68 67.8601 446.8 67.2001Z" fill="black"/>
</g>
<defs>
<clipPath id="clip0_55_2">
<rect width="451.65" height="72.98" fill="white"/>
</clipPath>
</defs>
</svg>
