<svg xmlns="http://www.w3.org/2000/svg" width="30" height="30" viewBox="0 0 30 30">
  <path id="sns_twiter" d="M279.5,27.865a5.175,5.175,0,0,1-3.4-.5,3.786,3.786,0,0,0,3.265-2.823,3.9,3.9,0,0,1-3.537.568c-.053-.358-.109-.7-.166-1-.793-4.235-3.512-7.641-6.358-7.227.229-.133.462-.261.7-.373.314-.164,2.151-.6,1.862-1.539-.247-.829-2.493.624-2.916.818.557-.307,1.484-.829,1.58-1.759a4.068,4.068,0,0,0-2.345,1.611,2.82,2.82,0,0,0,.451-1.294c-2.281,2.117-3.618,6.383-4.7,10.526a13.188,13.188,0,0,0-2.274-2.654,52.874,52.874,0,0,0-7.7-4.92,6.492,6.492,0,0,0,2.563,5.478,4.438,4.438,0,0,0-1.844.317,4.767,4.767,0,0,0,3.36,4.337A2.413,2.413,0,0,0,256,28.611c.473,1.36,1.626,2.956,3.7,2.629-2.3,1.442-.941,4.112.934,3.713-3.195,4.792-8.233,4.439-11.125.43,7.553,14.945,23.97,8.838,26.418-5.554A3.978,3.978,0,0,0,279.5,27.865Z" transform="translate(-249.5 -14.03)" fill="#fff" fill-rule="evenodd"/>
</svg>
