<svg xmlns="http://www.w3.org/2000/svg" width="30" height="30" viewBox="0 0 30 30">
  <path id="sns_youtube" d="M160.984,237.935a4.859,4.859,0,0,0-2.652-3.788c-2.34-.9-11.721-.9-11.721-.9s-9.382,0-11.721.9a4.861,4.861,0,0,0-2.653,3.788,85.28,85.28,0,0,0,0,20.632,4.853,4.853,0,0,0,2.653,3.788c2.34.895,11.721.895,11.721.895s9.381,0,11.721-.895a4.859,4.859,0,0,0,2.652-3.788,85.278,85.278,0,0,0,0-20.632ZM143.61,254.679V241.821l7.794,6.43Z" transform="translate(-131.61 -233.25)" fill="#fff"/>
</svg>
