<svg xmlns="http://www.w3.org/2000/svg" width="30" height="30" viewBox="0 0 30 30">
  <g id="sns_insta" transform="translate(-6.3 -9)">
    <g id="그룹_43" data-name="그룹 43" transform="translate(6.3 9)">
      <path id="SVGID_1_" d="M15.085,9.1a10.78,10.78,0,0,0-3.644.7A7.558,7.558,0,0,0,8.8,11.538,7.2,7.2,0,0,0,7.083,14.2a11.234,11.234,0,0,0-.7,3.646c-.068,1.6-.085,2.112-.085,6.184.017,4.072.034,4.583.1,6.184a10.6,10.6,0,0,0,.7,3.629A7.473,7.473,0,0,0,8.837,36.5a7.2,7.2,0,0,0,2.656,1.721,11.216,11.216,0,0,0,3.644.7c1.6.068,2.111.085,6.18.085,4.069-.017,4.58-.017,6.18-.1a10.78,10.78,0,0,0,3.644-.7A7.468,7.468,0,0,0,33.8,36.462a7.2,7.2,0,0,0,1.72-2.658,11.233,11.233,0,0,0,.7-3.646c.068-1.6.085-2.112.085-6.184-.017-4.072-.017-4.583-.1-6.184a10.8,10.8,0,0,0-.7-3.646,7.473,7.473,0,0,0-1.737-2.658,7.2,7.2,0,0,0-2.656-1.721,11.216,11.216,0,0,0-3.644-.7C25.846,9.017,25.335,9,21.266,9c-4.069.017-4.58.034-6.18.1m.17,27.1A8.31,8.31,0,0,1,12.48,35.7,5.009,5.009,0,0,1,9.637,32.85a8.305,8.305,0,0,1-.528-2.777c-.068-1.584-.085-2.061-.1-6.065,0-4,0-4.48.068-6.065a8.323,8.323,0,0,1,.511-2.777,5.009,5.009,0,0,1,2.843-2.845,8.762,8.762,0,0,1,2.775-.528c1.583-.068,2.06-.085,6.044-.1,4,0,4.478,0,6.061.068a8.31,8.31,0,0,1,2.775.511,4.507,4.507,0,0,1,1.72,1.124,4.643,4.643,0,0,1,1.124,1.721,8.775,8.775,0,0,1,.528,2.777c.068,1.584.085,2.061.1,6.048.017,4,0,4.48-.068,6.065A8.557,8.557,0,0,1,32.98,32.8a5.009,5.009,0,0,1-2.843,2.845,8.762,8.762,0,0,1-2.775.528c-1.583.068-2.06.085-6.061.1-3.984.017-4.461,0-6.044-.068M27.48,15.985a1.8,1.8,0,1,0,1.788-1.806,1.8,1.8,0,0,0-1.788,1.806M13.6,24.009a7.7,7.7,0,1,0,7.679-7.717A7.69,7.69,0,0,0,13.6,24.009m2.69,0A5,5,0,1,1,21.3,29a5.012,5.012,0,0,1-5.006-4.991" transform="translate(-6.3 -9)" fill="#fff"/>
    </g>
  </g>
</svg>
